<svg version="1.1" viewBox="0.0 0.0 600.0 481.0" fill="none" stroke="none" stroke-linecap="square" stroke-miterlimit="10" width="600" height="481" xmlns:xlink="http://www.w3.org/1999/xlink" xmlns="http://www.w3.org/2000/svg"><path fill="#ffffff" d="M0 0L600.0 0L600.0 481.0L0 481.0L0 0Z" fill-rule="nonzero"/><path stroke="#333333" stroke-width="1.0" stroke-linecap="butt" d="M83.5 436.5L575.5 436.5" fill-rule="nonzero"/><path stroke="#cccccc" stroke-width="1.0" stroke-linecap="butt" d="M83.5 369.5L575.5 369.5" fill-rule="nonzero"/><path stroke="#cccccc" stroke-width="1.0" stroke-linecap="butt" d="M83.5 302.5L575.5 302.5" fill-rule="nonzero"/><path stroke="#cccccc" stroke-width="1.0" stroke-linecap="butt" d="M83.5 235.5L575.5 235.5" fill-rule="nonzero"/><path stroke="#cccccc" stroke-width="1.0" stroke-linecap="butt" d="M83.5 168.5L575.5 168.5" fill-rule="nonzero"/><path stroke="#cccccc" stroke-width="1.0" stroke-linecap="butt" d="M83.5 101.5L575.5 101.5" fill-rule="nonzero"/><clipPath id="id_0"><path d="M83.05 101.11667L575.95 101.11667L575.95 436.95L83.05 436.95L83.05 101.11667Z" clip-rule="nonzero"/></clipPath><path stroke="#000000" stroke-width="2.0" stroke-linecap="butt" stroke-opacity="0.0" clip-path="url(#id_0)" d="M127.0 437.0L107.0 437.0L107.0 203.0C107.0 201.89543 107.89543 201.0 109.0 201.0L125.0 201.0C126.10457 201.0 127.0 201.89543 127.0 203.0Z" fill-rule="nonzero"/><path fill="#4f81bd" clip-path="url(#id_0)" d="M127.0 437.0L107.0 437.0L107.0 203.0C107.0 201.89543 107.89543 201.0 109.0 201.0L125.0 201.0C126.10457 201.0 127.0 201.89543 127.0 203.0Z" fill-rule="nonzero"/><path stroke="#000000" stroke-width="2.0" stroke-linecap="butt" stroke-opacity="0.0" clip-path="url(#id_0)" d="M194.0 437.0L174.0 437.0L174.0 179.0C174.0 177.89543 174.89543 177.0 176.0 177.0L192.0 177.0C193.10457 177.0 194.0 177.89543 194.0 179.0Z" fill-rule="nonzero"/><path fill="#4f81bd" clip-path="url(#id_0)" d="M194.0 437.0L174.0 437.0L174.0 179.0C174.0 177.89543 174.89543 177.0 176.0 177.0L192.0 177.0C193.10457 177.0 194.0 177.89543 194.0 179.0Z" fill-rule="nonzero"/><path stroke="#000000" stroke-width="2.0" stroke-linecap="butt" stroke-opacity="0.0" clip-path="url(#id_0)" d="M261.0 437.0L241.0 437.0L241.0 174.0C241.0 172.89543 241.89543 172.0 243.0 172.0L259.0 172.0C260.10458 172.0 261.0 172.89543 261.0 174.0Z" fill-rule="nonzero"/><path fill="#4f81bd" clip-path="url(#id_0)" d="M261.0 437.0L241.0 437.0L241.0 174.0C241.0 172.89543 241.89543 172.0 243.0 172.0L259.0 172.0C260.10458 172.0 261.0 172.89543 261.0 174.0Z" fill-rule="nonzero"/><path stroke="#000000" stroke-width="2.0" stroke-linecap="butt" stroke-opacity="0.0" clip-path="url(#id_0)" d="M329.0 437.0L309.0 437.0L309.0 215.0C309.0 213.89543 309.89542 213.0 311.0 213.0L327.0 213.0C328.10458 213.0 329.0 213.89543 329.0 215.0Z" fill-rule="nonzero"/><path fill="#4f81bd" clip-path="url(#id_0)" d="M329.0 437.0L309.0 437.0L309.0 215.0C309.0 213.89543 309.89542 213.0 311.0 213.0L327.0 213.0C328.10458 213.0 329.0 213.89543 329.0 215.0Z" fill-rule="nonzero"/><path stroke="#000000" stroke-width="2.0" stroke-linecap="butt" stroke-opacity="0.0" clip-path="url(#id_0)" d="M396.0 437.0L376.0 437.0L376.0 202.0C376.0 200.89543 376.89542 200.0 378.0 200.0L394.0 200.0C395.10458 200.0 396.0 200.89543 396.0 202.0Z" fill-rule="nonzero"/><path fill="#4f81bd" clip-path="url(#id_0)" d="M396.0 437.0L376.0 437.0L376.0 202.0C376.0 200.89543 376.89542 200.0 378.0 200.0L394.0 200.0C395.10458 200.0 396.0 200.89543 396.0 202.0Z" fill-rule="nonzero"/><path stroke="#000000" stroke-width="2.0" stroke-linecap="butt" stroke-opacity="0.0" clip-path="url(#id_0)" d="M463.0 437.0L443.0 437.0L443.0 224.0C443.0 222.89543 443.89542 222.0 445.0 222.0L461.0 222.0C462.10458 222.0 463.0 222.89543 463.0 224.0Z" fill-rule="nonzero"/><path fill="#4f81bd" clip-path="url(#id_0)" d="M463.0 437.0L443.0 437.0L443.0 224.0C443.0 222.89543 443.89542 222.0 445.0 222.0L461.0 222.0C462.10458 222.0 463.0 222.89543 463.0 224.0Z" fill-rule="nonzero"/><path stroke="#000000" stroke-width="2.0" stroke-linecap="butt" stroke-opacity="0.0" clip-path="url(#id_0)" d="M530.0 437.0L510.0 437.0L510.0 192.0C510.0 190.89543 510.89542 190.0 512.0 190.0L528.0 190.0C529.10455 190.0 530.0 190.89543 530.0 192.0Z" fill-rule="nonzero"/><path fill="#4f81bd" clip-path="url(#id_0)" d="M530.0 437.0L510.0 437.0L510.0 192.0C510.0 190.89543 510.89542 190.0 512.0 190.0L528.0 190.0C529.10455 190.0 530.0 190.89543 530.0 192.0Z" fill-rule="nonzero"/><path stroke="#000000" stroke-width="2.0" stroke-linecap="butt" stroke-opacity="0.0" clip-path="url(#id_0)" d="M149.0 437.0L129.0 437.0L129.0 118.0C129.0 116.89543 129.89543 116.0 131.0 116.0L147.0 116.0C148.10457 116.0 149.0 116.89543 149.0 118.0Z" fill-rule="nonzero"/><path fill="#c0504d" clip-path="url(#id_0)" d="M149.0 437.0L129.0 437.0L129.0 118.0C129.0 116.89543 129.89543 116.0 131.0 116.0L147.0 116.0C148.10457 116.0 149.0 116.89543 149.0 118.0Z" fill-rule="nonzero"/><path stroke="#000000" stroke-width="2.0" stroke-linecap="butt" stroke-opacity="0.0" clip-path="url(#id_0)" d="M216.0 437.0L196.0 437.0L196.0 161.0C196.0 159.89543 196.89543 159.0 198.0 159.0L214.0 159.0C215.10457 159.0 216.0 159.89543 216.0 161.0Z" fill-rule="nonzero"/><path fill="#c0504d" clip-path="url(#id_0)" d="M216.0 437.0L196.0 437.0L196.0 161.0C196.0 159.89543 196.89543 159.0 198.0 159.0L214.0 159.0C215.10457 159.0 216.0 159.89543 216.0 161.0Z" fill-rule="nonzero"/><path stroke="#000000" stroke-width="2.0" stroke-linecap="butt" stroke-opacity="0.0" clip-path="url(#id_0)" d="M283.0 437.0L263.0 437.0L263.0 131.0C263.0 129.89543 263.89542 129.0 265.0 129.0L281.0 129.0C282.10458 129.0 283.0 129.89543 283.0 131.0Z" fill-rule="nonzero"/><path fill="#c0504d" clip-path="url(#id_0)" d="M283.0 437.0L263.0 437.0L263.0 131.0C263.0 129.89543 263.89542 129.0 265.0 129.0L281.0 129.0C282.10458 129.0 283.0 129.89543 283.0 131.0Z" fill-rule="nonzero"/><path stroke="#000000" stroke-width="2.0" stroke-linecap="butt" stroke-opacity="0.0" clip-path="url(#id_0)" d="M351.0 437.0L331.0 437.0L331.0 106.0C331.0 104.89543 331.89542 104.0 333.0 104.0L349.0 104.0C350.10458 104.0 351.0 104.89543 351.0 106.0Z" fill-rule="nonzero"/><path fill="#c0504d" clip-path="url(#id_0)" d="M351.0 437.0L331.0 437.0L331.0 106.0C331.0 104.89543 331.89542 104.0 333.0 104.0L349.0 104.0C350.10458 104.0 351.0 104.89543 351.0 106.0Z" fill-rule="nonzero"/><path stroke="#000000" stroke-width="2.0" stroke-linecap="butt" stroke-opacity="0.0" clip-path="url(#id_0)" d="M418.0 437.0L398.0 437.0L398.0 116.0C398.0 114.89543 398.89542 114.0 400.0 114.0L416.0 114.0C417.10458 114.0 418.0 114.89543 418.0 116.0Z" fill-rule="nonzero"/><path fill="#c0504d" clip-path="url(#id_0)" d="M418.0 437.0L398.0 437.0L398.0 116.0C398.0 114.89543 398.89542 114.0 400.0 114.0L416.0 114.0C417.10458 114.0 418.0 114.89543 418.0 116.0Z" fill-rule="nonzero"/><path stroke="#000000" stroke-width="2.0" stroke-linecap="butt" stroke-opacity="0.0" clip-path="url(#id_0)" d="M485.0 437.0L465.0 437.0L465.0 158.0C465.0 156.89543 465.89542 156.0 467.0 156.0L483.0 156.0C484.10458 156.0 485.0 156.89543 485.0 158.0Z" fill-rule="nonzero"/><path fill="#c0504d" clip-path="url(#id_0)" d="M485.0 437.0L465.0 437.0L465.0 158.0C465.0 156.89543 465.89542 156.0 467.0 156.0L483.0 156.0C484.10458 156.0 485.0 156.89543 485.0 158.0Z" fill-rule="nonzero"/><path stroke="#000000" stroke-width="2.0" stroke-linecap="butt" stroke-opacity="0.0" clip-path="url(#id_0)" d="M552.0 437.0L532.0 437.0L532.0 134.0C532.0 132.89543 532.89545 132.0 534.0 132.0L550.0 132.0C551.10455 132.0 552.0 132.89543 552.0 134.0Z" fill-rule="nonzero"/><path fill="#c0504d" clip-path="url(#id_0)" d="M552.0 437.0L532.0 437.0L532.0 134.0C532.0 132.89543 532.89545 132.0 534.0 132.0L550.0 132.0C551.10455 132.0 552.0 132.89543 552.0 134.0Z" fill-rule="nonzero"/><path fill="#000000" d="M35.05001 283.73645L28.831263 283.73645L28.831263 282.79895L29.706263 282.79895Q29.237513 282.50208 28.971888 282.0177Q28.690638 281.53333 28.690638 280.90833Q28.690638 280.22083 28.971888 279.78333Q29.253138 279.3302 29.768763 279.15833Q28.690638 278.40833 28.690638 277.23645Q28.690638 276.29895 29.206263 275.81458Q29.706263 275.31458 30.784388 275.31458L35.05001 275.31458L35.05001 276.36145L31.128138 276.36145Q30.503138 276.36145 30.221888 276.47083Q29.940638 276.56458 29.768763 276.8302Q29.596888 277.09583 29.596888 277.47083Q29.596888 278.12708 30.034388 278.56458Q30.471888 278.98645 31.440638 278.98645L35.05001 278.98645L35.05001 280.04895L31.003138 280.04895Q30.300013 280.04895 29.956263 280.31458Q29.596888 280.56458 29.596888 281.1427Q29.596888 281.59583 29.831263 281.97083Q30.065638 282.34583 30.518763 282.5177Q30.971888 282.68958 31.815638 282.68958L35.05001 282.68958L35.05001 283.73645ZM33.190636 273.15833L33.034386 272.12708Q33.659386 272.03333 33.98751 271.6427Q34.315636 271.23645 34.315636 270.50208Q34.315636 269.78333 34.034386 269.43958Q33.73751 269.0802 33.33126 269.0802Q32.971886 269.0802 32.76876 269.3927Q32.628136 269.61145 32.409386 270.47083Q32.11251 271.62708 31.909388 272.0802Q31.690638 272.5177 31.315638 272.75208Q30.940638 272.98645 30.471888 272.98645Q30.065638 272.98645 29.706263 272.79895Q29.346888 272.61145 29.112513 272.28333Q28.940638 272.03333 28.815638 271.61145Q28.690638 271.18958 28.690638 270.68958Q28.690638 269.97083 28.909388 269.42395Q29.112513 268.86145 29.471888 268.59583Q29.831263 268.3302 30.425013 268.23645L30.565638 269.2677Q30.096888 269.3302 29.831263 269.67395Q29.550013 270.00208 29.550013 270.62708Q29.550013 271.34583 29.800013 271.65833Q30.034388 271.97083 30.362513 271.97083Q30.565638 271.97083 30.721888 271.84583Q30.893763 271.7052 31.003138 271.43958Q31.065638 271.28333 31.268763 270.50208Q31.581263 269.37708 31.768763 268.93958Q31.956263 268.50208 32.315636 268.25208Q32.67501 268.00208 33.221886 268.00208Q33.753136 268.00208 34.221886 268.31458Q34.67501 268.61145 34.940636 269.18958Q35.190636 269.7677 35.190636 270.50208Q35.190636 271.72083 34.690636 272.36145Q34.17501 272.98645 33.190636 273.15833Z" fill-rule="nonzero"/><path fill="#000000" d="M70.55 436.71564Q70.55 435.1844 70.8625 434.2625Q71.175 433.325 71.78438 432.825Q72.40938 432.325 73.34688 432.325Q74.03438 432.325 74.55 432.60626Q75.08125 432.8875 75.425 433.41876Q75.76875 433.9344 75.95625 434.6844Q76.14375 435.4344 76.14375 436.71564Q76.14375 438.23126 75.83125 439.15314Q75.53438 440.075 74.90938 440.59064Q74.3 441.09064 73.34688 441.09064Q72.1125 441.09064 71.39375 440.2Q70.55 439.1375 70.55 436.71564ZM71.62813 436.71564Q71.62813 438.825 72.12813 439.52814Q72.62813 440.23126 73.34688 440.23126Q74.08125 440.23126 74.56563 439.52814Q75.06563 438.825 75.06563 436.71564Q75.06563 434.59064 74.56563 433.90314Q74.08125 433.2 73.33125 433.2Q72.6125 433.2 72.175 433.8094Q71.62813 434.59064 71.62813 436.71564Z" fill-rule="nonzero"/><path fill="#000000" d="M63.55 371.53333L64.65938 371.43958Q64.78438 372.25208 65.22188 372.65833Q65.675 373.06458 66.31563 373.06458Q67.06563 373.06458 67.59688 372.48645Q68.12813 371.90833 68.12813 370.97083Q68.12813 370.06458 67.6125 369.54895Q67.1125 369.0177 66.28438 369.0177Q65.78438 369.0177 65.3625 369.25208Q64.95625 369.48645 64.72188 369.84583L63.7375 369.72083L64.56563 365.31458L68.84688 365.31458L68.84688 366.31458L65.40938 366.31458L64.95625 368.62708Q65.72188 368.0802 66.56563 368.0802Q67.69063 368.0802 68.45625 368.86145Q69.2375 369.6427 69.2375 370.87708Q69.2375 372.03333 68.56563 372.8927Q67.7375 373.92395 66.31563 373.92395Q65.14375 373.92395 64.39375 373.2677Q63.659374 372.61145 63.55 371.53333ZM70.55 369.54895Q70.55 368.0177 70.8625 367.09583Q71.175 366.15833 71.78438 365.65833Q72.40938 365.15833 73.34688 365.15833Q74.03438 365.15833 74.55 365.43958Q75.08125 365.72083 75.425 366.25208Q75.76875 366.7677 75.95625 367.5177Q76.14375 368.2677 76.14375 369.54895Q76.14375 371.06458 75.83125 371.98645Q75.53438 372.90833 74.90938 373.42395Q74.3 373.92395 73.34688 373.92395Q72.1125 373.92395 71.39375 373.03333Q70.55 371.97083 70.55 369.54895ZM71.62813 369.54895Q71.62813 371.65833 72.12813 372.36145Q72.62813 373.06458 73.34688 373.06458Q74.08125 373.06458 74.56563 372.36145Q75.06563 371.65833 75.06563 369.54895Q75.06563 367.42395 74.56563 366.73645Q74.08125 366.03333 73.33125 366.03333Q72.6125 366.03333 72.175 366.6427Q71.62813 367.42395 71.62813 369.54895Z" fill-rule="nonzero"/><path fill="#000000" d="M60.51875 306.61667L59.471874 306.61667L59.471874 299.89792Q59.08125 300.2573 58.45625 300.6323Q57.846874 300.99167 57.3625 301.16354L57.3625 300.14792Q58.2375 299.72604 58.89375 299.14792Q59.565624 298.55417 59.846874 297.99167L60.51875 297.99167L60.51875 306.61667ZM63.55 302.3823Q63.55 300.85104 63.8625 299.92917Q64.175 298.99167 64.78438 298.49167Q65.40938 297.99167 66.34688 297.99167Q67.03438 297.99167 67.55 298.27292Q68.08125 298.55417 68.425 299.08542Q68.76875 299.60104 68.95625 300.35104Q69.14375 301.10104 69.14375 302.3823Q69.14375 303.89792 68.83125 304.8198Q68.53438 305.74167 67.90938 306.2573Q67.3 306.7573 66.34688 306.7573Q65.1125 306.7573 64.39375 305.86667Q63.55 304.80417 63.55 302.3823ZM64.62813 302.3823Q64.62813 304.49167 65.12813 305.1948Q65.62813 305.89792 66.34688 305.89792Q67.08125 305.89792 67.56563 305.1948Q68.06563 304.49167 68.06563 302.3823Q68.06563 300.2573 67.56563 299.5698Q67.08125 298.86667 66.33125 298.86667Q65.6125 298.86667 65.175 299.47604Q64.62813 300.2573 64.62813 302.3823ZM70.55 302.3823Q70.55 300.85104 70.8625 299.92917Q71.175 298.99167 71.78438 298.49167Q72.40938 297.99167 73.34688 297.99167Q74.03438 297.99167 74.55 298.27292Q75.08125 298.55417 75.425 299.08542Q75.76875 299.60104 75.95625 300.35104Q76.14375 301.10104 76.14375 302.3823Q76.14375 303.89792 75.83125 304.8198Q75.53438 305.74167 74.90938 306.2573Q74.3 306.7573 73.34688 306.7573Q72.1125 306.7573 71.39375 305.86667Q70.55 304.80417 70.55 302.3823ZM71.62813 302.3823Q71.62813 304.49167 72.12813 305.1948Q72.62813 305.89792 73.34688 305.89792Q74.08125 305.89792 74.56563 305.1948Q75.06563 304.49167 75.06563 302.3823Q75.06563 300.2573 74.56563 299.5698Q74.08125 298.86667 73.33125 298.86667Q72.6125 298.86667 72.175 299.47604Q71.62813 300.2573 71.62813 302.3823Z" fill-rule="nonzero"/><path fill="#000000" d="M60.51875 239.45L59.471874 239.45L59.471874 232.73125Q59.08125 233.09062 58.45625 233.46562Q57.846874 233.825 57.3625 233.99687L57.3625 232.98125Q58.2375 232.55937 58.89375 231.98125Q59.565624 231.3875 59.846874 230.825L60.51875 230.825L60.51875 239.45ZM63.55 237.2L64.65938 237.10625Q64.78438 237.91875 65.22188 238.325Q65.675 238.73125 66.31563 238.73125Q67.06563 238.73125 67.59688 238.15312Q68.12813 237.575 68.12813 236.6375Q68.12813 235.73125 67.6125 235.21562Q67.1125 234.68437 66.28438 234.68437Q65.78438 234.68437 65.3625 234.91875Q64.95625 235.15312 64.72188 235.5125L63.7375 235.3875L64.56563 230.98125L68.84688 230.98125L68.84688 231.98125L65.40938 231.98125L64.95625 234.29375Q65.72188 233.74687 66.56563 233.74687Q67.69063 233.74687 68.45625 234.52812Q69.2375 235.30937 69.2375 236.54375Q69.2375 237.7 68.56563 238.55937Q67.7375 239.59062 66.31563 239.59062Q65.14375 239.59062 64.39375 238.93437Q63.659374 238.27812 63.55 237.2ZM70.55 235.21562Q70.55 233.68437 70.8625 232.7625Q71.175 231.825 71.78438 231.325Q72.40938 230.825 73.34688 230.825Q74.03438 230.825 74.55 231.10625Q75.08125 231.3875 75.425 231.91875Q75.76875 232.43437 75.95625 233.18437Q76.14375 233.93437 76.14375 235.21562Q76.14375 236.73125 75.83125 237.65312Q75.53438 238.575 74.90938 239.09062Q74.3 239.59062 73.34688 239.59062Q72.1125 239.59062 71.39375 238.7Q70.55 237.6375 70.55 235.21562ZM71.62813 235.21562Q71.62813 237.325 72.12813 238.02812Q72.62813 238.73125 73.34688 238.73125Q74.08125 238.73125 74.56563 238.02812Q75.06563 237.325 75.06563 235.21562Q75.06563 233.09062 74.56563 232.40312Q74.08125 231.7 73.33125 231.7Q72.6125 231.7 72.175 232.30937Q71.62813 233.09062 71.62813 235.21562Z" fill-rule="nonzero"/><path fill="#000000" d="M62.096874 171.26772L62.096874 172.28334L56.409374 172.28334Q56.409374 171.90834 56.534374 171.54897Q56.753124 170.97084 57.221874 170.40834Q57.70625 169.84584 58.6125 169.11147Q60.01875 167.95522 60.503124 167.28334Q61.003124 166.61147 61.003124 166.01772Q61.003124 165.39272 60.55 164.97084Q60.096874 164.53334 59.378124 164.53334Q58.6125 164.53334 58.159374 164.98647Q57.70625 165.43959 57.690624 166.25209L56.6125 166.14272Q56.721874 164.92397 57.440624 164.29897Q58.175 163.65834 59.409374 163.65834Q60.64375 163.65834 61.3625 164.34584Q62.08125 165.03334 62.08125 166.04897Q62.08125 166.56459 61.8625 167.06459Q61.659374 167.54897 61.159374 168.11147Q60.675 168.65834 59.55 169.61147Q58.596874 170.40834 58.315624 170.70522Q58.05 170.98647 57.878124 171.26772L62.096874 171.26772ZM63.55 168.04897Q63.55 166.51772 63.8625 165.59584Q64.175 164.65834 64.78438 164.15834Q65.40938 163.65834 66.34688 163.65834Q67.03438 163.65834 67.55 163.93959Q68.08125 164.22084 68.425 164.75209Q68.76875 165.26772 68.95625 166.01772Q69.14375 166.76772 69.14375 168.04897Q69.14375 169.56459 68.83125 170.48647Q68.53438 171.40834 67.90938 171.92397Q67.3 172.42397 66.34688 172.42397Q65.1125 172.42397 64.39375 171.53334Q63.55 170.47084 63.55 168.04897ZM64.62813 168.04897Q64.62813 170.15834 65.12813 170.86147Q65.62813 171.56459 66.34688 171.56459Q67.08125 171.56459 67.56563 170.86147Q68.06563 170.15834 68.06563 168.04897Q68.06563 165.92397 67.56563 165.23647Q67.08125 164.53334 66.33125 164.53334Q65.6125 164.53334 65.175 165.14272Q64.62813 165.92397 64.62813 168.04897ZM70.55 168.04897Q70.55 166.51772 70.8625 165.59584Q71.175 164.65834 71.78438 164.15834Q72.40938 163.65834 73.34688 163.65834Q74.03438 163.65834 74.55 163.93959Q75.08125 164.22084 75.425 164.75209Q75.76875 165.26772 75.95625 166.01772Q76.14375 166.76772 76.14375 168.04897Q76.14375 169.56459 75.83125 170.48647Q75.53438 171.40834 74.90938 171.92397Q74.3 172.42397 73.34688 172.42397Q72.1125 172.42397 71.39375 171.53334Q70.55 170.47084 70.55 168.04897ZM71.62813 168.04897Q71.62813 170.15834 72.12813 170.86147Q72.62813 171.56459 73.34688 171.56459Q74.08125 171.56459 74.56563 170.86147Q75.06563 170.15834 75.06563 168.04897Q75.06563 165.92397 74.56563 165.23647Q74.08125 164.53334 73.33125 164.53334Q72.6125 164.53334 72.175 165.14272Q71.62813 165.92397 71.62813 168.04897Z" fill-rule="nonzero"/><path fill="#000000" d="M62.096874 104.10104L62.096874 105.11667L56.409374 105.11667Q56.409374 104.74167 56.534374 104.38229Q56.753124 103.80417 57.221874 103.24167Q57.70625 102.67917 58.6125 101.94479Q60.01875 100.78854 60.503124 100.11667Q61.003124 99.44479 61.003124 98.85104Q61.003124 98.22604 60.55 97.80417Q60.096874 97.36667 59.378124 97.36667Q58.6125 97.36667 58.159374 97.81979Q57.70625 98.27292 57.690624 99.08542L56.6125 98.97604Q56.721874 97.75729 57.440624 97.13229Q58.175 96.49167 59.409374 96.49167Q60.64375 96.49167 61.3625 97.17917Q62.08125 97.86667 62.08125 98.88229Q62.08125 99.39792 61.8625 99.89792Q61.659374 100.38229 61.159374 100.94479Q60.675 101.49167 59.55 102.44479Q58.596874 103.24167 58.315624 103.53854Q58.05 103.81979 57.878124 104.10104L62.096874 104.10104ZM63.55 102.86667L64.65938 102.77292Q64.78438 103.58542 65.22188 103.99167Q65.675 104.39792 66.31563 104.39792Q67.06563 104.39792 67.59688 103.81979Q68.12813 103.24167 68.12813 102.30417Q68.12813 101.39792 67.6125 100.88229Q67.1125 100.35104 66.28438 100.35104Q65.78438 100.35104 65.3625 100.58542Q64.95625 100.81979 64.72188 101.17917L63.7375 101.05417L64.56563 96.64792L68.84688 96.64792L68.84688 97.64792L65.40938 97.64792L64.95625 99.96042Q65.72188 99.41354 66.56563 99.41354Q67.69063 99.41354 68.45625 100.19479Q69.2375 100.97604 69.2375 102.21042Q69.2375 103.36667 68.56563 104.22604Q67.7375 105.25729 66.31563 105.25729Q65.14375 105.25729 64.39375 104.60104Q63.659374 103.94479 63.55 102.86667ZM70.55 100.88229Q70.55 99.35104 70.8625 98.42917Q71.175 97.49167 71.78438 96.99167Q72.40938 96.49167 73.34688 96.49167Q74.03438 96.49167 74.55 96.77292Q75.08125 97.05417 75.425 97.58542Q75.76875 98.10104 75.95625 98.85104Q76.14375 99.60104 76.14375 100.88229Q76.14375 102.39792 75.83125 103.31979Q75.53438 104.24167 74.90938 104.75729Q74.3 105.25729 73.34688 105.25729Q72.1125 105.25729 71.39375 104.36667Q70.55 103.30417 70.55 100.88229ZM71.62813 100.88229Q71.62813 102.99167 72.12813 103.69479Q72.62813 104.39792 73.34688 104.39792Q74.08125 104.39792 74.56563 103.69479Q75.06563 102.99167 75.06563 100.88229Q75.06563 98.75729 74.56563 98.06979Q74.08125 97.36667 73.33125 97.36667Q72.6125 97.36667 72.175 97.97604Q71.62813 98.75729 71.62813 100.88229Z" fill-rule="nonzero"/><path fill="#000000" d="M115.613205 446.575L115.613205 445.35626L116.675705 445.35626L116.675705 446.575L115.613205 446.575ZM115.613205 453.95L115.613205 447.73126L116.675705 447.73126L116.675705 453.95L115.613205 453.95ZM120.91008 453.0125L121.06633 453.9344Q120.613205 454.02814 120.269455 454.02814Q119.69133 454.02814 119.37883 453.85626Q119.06633 453.66876 118.925705 453.3719Q118.800705 453.075 118.800705 452.1219L118.800705 448.54376L118.03508 448.54376L118.03508 447.73126L118.800705 447.73126L118.800705 446.1844L119.84758 445.5594L119.84758 447.73126L120.91008 447.73126L120.91008 448.54376L119.84758 448.54376L119.84758 452.1844Q119.84758 452.6375 119.894455 452.7625Q119.956955 452.8875 120.081955 452.96564Q120.206955 453.04376 120.44133 453.04376Q120.62883 453.04376 120.91008 453.0125ZM125.863205 451.95L126.956955 452.075Q126.706955 453.02814 126.00383 453.5594Q125.300705 454.09064 124.22258 454.09064Q122.863205 454.09064 122.050705 453.2469Q121.25383 452.40314 121.25383 450.8875Q121.25383 449.325 122.06633 448.46564Q122.87883 447.59064 124.16008 447.59064Q125.41008 447.59064 126.19133 448.4344Q126.988205 449.27814 126.988205 450.825Q126.988205 450.91876 126.988205 451.10626L122.34758 451.10626Q122.41008 452.1375 122.925705 452.6844Q123.44133 453.21564 124.22258 453.21564Q124.800705 453.21564 125.206955 452.91876Q125.62883 452.60626 125.863205 451.95ZM122.41008 450.2469L125.87883 450.2469Q125.81633 449.45 125.488205 449.0594Q124.97258 448.45 124.175705 448.45Q123.44133 448.45 122.94133 448.9344Q122.456955 449.41876 122.41008 450.2469ZM128.59758 453.95L128.59758 447.73126L129.5507 447.73126L129.5507 448.66876Q129.91008 448.0125 130.20695 447.8094Q130.51945 447.59064 130.89445 447.59064Q131.4257 447.59064 131.97258 447.91876L131.6132 448.90314Q131.22258 448.66876 130.84758 448.66876Q130.4882 448.66876 130.20695 448.8875Q129.94133 449.09064 129.83195 449.46564Q129.64445 450.02814 129.64445 450.6844L129.64445 453.95L128.59758 453.95ZM139.28508 453.95L138.2382 453.95L138.2382 447.23126Q137.84758 447.59064 137.22258 447.96564Q136.6132 448.325 136.12883 448.4969L136.12883 447.48126Q137.00383 447.0594 137.66008 446.48126Q138.33195 445.8875 138.6132 445.325L139.28508 445.325L139.28508 453.95Z" fill-rule="nonzero"/><path fill="#000000" d="M182.67442 446.575L182.67442 445.35626L183.73692 445.35626L183.73692 446.575L182.67442 446.575ZM182.67442 453.95L182.67442 447.73126L183.73692 447.73126L183.73692 453.95L182.67442 453.95ZM187.9713 453.0125L188.12755 453.9344Q187.67442 454.02814 187.33067 454.02814Q186.75255 454.02814 186.44005 453.85626Q186.12755 453.66876 185.98692 453.3719Q185.86192 453.075 185.86192 452.1219L185.86192 448.54376L185.0963 448.54376L185.0963 447.73126L185.86192 447.73126L185.86192 446.1844L186.9088 445.5594L186.9088 447.73126L187.9713 447.73126L187.9713 448.54376L186.9088 448.54376L186.9088 452.1844Q186.9088 452.6375 186.95567 452.7625Q187.01817 452.8875 187.14317 452.96564Q187.26817 453.04376 187.50255 453.04376Q187.69005 453.04376 187.9713 453.0125ZM192.92442 451.95L194.01817 452.075Q193.76817 453.02814 193.06505 453.5594Q192.36192 454.09064 191.2838 454.09064Q189.92442 454.09064 189.11192 453.2469Q188.31505 452.40314 188.31505 450.8875Q188.31505 449.325 189.12755 448.46564Q189.94005 447.59064 191.2213 447.59064Q192.4713 447.59064 193.25255 448.4344Q194.04942 449.27814 194.04942 450.825Q194.04942 450.91876 194.04942 451.10626L189.4088 451.10626Q189.4713 452.1375 189.98692 452.6844Q190.50255 453.21564 191.2838 453.21564Q191.86192 453.21564 192.26817 452.91876Q192.69005 452.60626 192.92442 451.95ZM189.4713 450.2469L192.94005 450.2469Q192.87755 449.45 192.54942 449.0594Q192.0338 448.45 191.23692 448.45Q190.50255 448.45 190.00255 448.9344Q189.51817 449.41876 189.4713 450.2469ZM195.6588 453.95L195.6588 447.73126L196.61192 447.73126L196.61192 448.66876Q196.9713 448.0125 197.26817 447.8094Q197.58067 447.59064 197.95567 447.59064Q198.48692 447.59064 199.0338 447.91876L198.67442 448.90314Q198.2838 448.66876 197.9088 448.66876Q197.54942 448.66876 197.26817 448.8875Q197.00255 449.09064 196.89317 449.46564Q196.70567 450.02814 196.70567 450.6844L196.70567 453.95L195.6588 453.95ZM207.92442 452.9344L207.92442 453.95L202.23692 453.95Q202.23692 453.575 202.36192 453.21564Q202.58067 452.6375 203.04942 452.075Q203.5338 451.5125 204.44005 450.77814Q205.8463 449.6219 206.33067 448.95Q206.83067 448.27814 206.83067 447.6844Q206.83067 447.0594 206.37755 446.6375Q205.92442 446.2 205.20567 446.2Q204.44005 446.2 203.98692 446.65314Q203.5338 447.10626 203.51817 447.91876L202.44005 447.8094Q202.54942 446.59064 203.26817 445.96564Q204.00255 445.325 205.23692 445.325Q206.4713 445.325 207.19005 446.0125Q207.9088 446.7 207.9088 447.71564Q207.9088 448.23126 207.69005 448.73126Q207.48692 449.21564 206.98692 449.77814Q206.50255 450.325 205.37755 451.27814Q204.42442 452.075 204.14317 452.3719Q203.87755 452.65314 203.70567 452.9344L207.92442 452.9344Z" fill-rule="nonzero"/><path fill="#000000" d="M249.73566 446.575L249.73566 445.35626L250.79816 445.35626L250.79816 446.575L249.73566 446.575ZM249.73566 453.95L249.73566 447.73126L250.79816 447.73126L250.79816 453.95L249.73566 453.95ZM255.03253 453.0125L255.18878 453.9344Q254.73566 454.02814 254.3919 454.02814Q253.81378 454.02814 253.50128 453.85626Q253.18878 453.66876 253.04816 453.3719Q252.92316 453.075 252.92316 452.1219L252.92316 448.54376L252.15753 448.54376L252.15753 447.73126L252.92316 447.73126L252.92316 446.1844L253.97003 445.5594L253.97003 447.73126L255.03253 447.73126L255.03253 448.54376L253.97003 448.54376L253.97003 452.1844Q253.97003 452.6375 254.0169 452.7625Q254.0794 452.8875 254.2044 452.96564Q254.3294 453.04376 254.56378 453.04376Q254.75128 453.04376 255.03253 453.0125ZM259.98566 451.95L261.0794 452.075Q260.8294 453.02814 260.12628 453.5594Q259.42316 454.09064 258.34503 454.09064Q256.98566 454.09064 256.17316 453.2469Q255.37628 452.40314 255.37628 450.8875Q255.37628 449.325 256.18878 448.46564Q257.00128 447.59064 258.28253 447.59064Q259.53253 447.59064 260.31378 448.4344Q261.11066 449.27814 261.11066 450.825Q261.11066 450.91876 261.11066 451.10626L256.47003 451.10626Q256.53253 452.1375 257.04816 452.6844Q257.56378 453.21564 258.34503 453.21564Q258.92316 453.21564 259.3294 452.91876Q259.75128 452.60626 259.98566 451.95ZM256.53253 450.2469L260.00128 450.2469Q259.93878 449.45 259.61066 449.0594Q259.09503 448.45 258.29816 448.45Q257.56378 448.45 257.06378 448.9344Q256.5794 449.41876 256.53253 450.2469ZM262.72003 453.95L262.72003 447.73126L263.67316 447.73126L263.67316 448.66876Q264.03253 448.0125 264.3294 447.8094Q264.6419 447.59064 265.0169 447.59064Q265.54816 447.59064 266.09503 447.91876L265.73566 448.90314Q265.34503 448.66876 264.97003 448.66876Q264.61066 448.66876 264.3294 448.8875Q264.06378 449.09064 263.9544 449.46564Q263.7669 450.02814 263.7669 450.6844L263.7669 453.95L262.72003 453.95ZM269.43878 451.6844L270.50128 451.54376Q270.67316 452.4344 271.11066 452.84064Q271.54816 453.23126 272.17316 453.23126Q272.92316 453.23126 273.43878 452.71564Q273.9544 452.2 273.9544 451.4344Q273.9544 450.71564 273.47003 450.2469Q273.00128 449.7625 272.2669 449.7625Q271.97003 449.7625 271.5169 449.8875L271.6419 448.95Q271.75128 448.96564 271.81378 448.96564Q272.48566 448.96564 273.0169 448.6219Q273.56378 448.2625 273.56378 447.52814Q273.56378 446.95 273.17316 446.575Q272.78253 446.1844 272.15753 446.1844Q271.54816 446.1844 271.12628 446.575Q270.72003 446.96564 270.61066 447.73126L269.54816 447.54376Q269.73566 446.4969 270.42316 445.91876Q271.11066 445.325 272.12628 445.325Q272.8294 445.325 273.42316 445.6375Q274.0169 445.9344 274.3294 446.45Q274.6419 446.96564 274.6419 447.5594Q274.6419 448.10626 274.34503 448.575Q274.04816 449.02814 273.47003 449.29376Q274.22003 449.46564 274.6419 450.02814Q275.06378 450.575 275.06378 451.41876Q275.06378 452.54376 274.23566 453.325Q273.42316 454.10626 272.17316 454.10626Q271.04816 454.10626 270.29816 453.4344Q269.54816 452.7469 269.43878 451.6844Z" fill-rule="nonzero"/><path fill="#000000" d="M316.79688 446.575L316.79688 445.35626L317.85938 445.35626L317.85938 446.575L316.79688 446.575ZM316.79688 453.95L316.79688 447.73126L317.85938 447.73126L317.85938 453.95L316.79688 453.95ZM322.09375 453.0125L322.25 453.9344Q321.79688 454.02814 321.45312 454.02814Q320.875 454.02814 320.5625 453.85626Q320.25 453.66876 320.10938 453.3719Q319.98438 453.075 319.98438 452.1219L319.98438 448.54376L319.21875 448.54376L319.21875 447.73126L319.98438 447.73126L319.98438 446.1844L321.03125 445.5594L321.03125 447.73126L322.09375 447.73126L322.09375 448.54376L321.03125 448.54376L321.03125 452.1844Q321.03125 452.6375 321.07812 452.7625Q321.14062 452.8875 321.26562 452.96564Q321.39062 453.04376 321.625 453.04376Q321.8125 453.04376 322.09375 453.0125ZM327.04688 451.95L328.14062 452.075Q327.89062 453.02814 327.1875 453.5594Q326.48438 454.09064 325.40625 454.09064Q324.04688 454.09064 323.23438 453.2469Q322.4375 452.40314 322.4375 450.8875Q322.4375 449.325 323.25 448.46564Q324.0625 447.59064 325.34375 447.59064Q326.59375 447.59064 327.375 448.4344Q328.17188 449.27814 328.17188 450.825Q328.17188 450.91876 328.17188 451.10626L323.53125 451.10626Q323.59375 452.1375 324.10938 452.6844Q324.625 453.21564 325.40625 453.21564Q325.98438 453.21564 326.39062 452.91876Q326.8125 452.60626 327.04688 451.95ZM323.59375 450.2469L327.0625 450.2469Q327.0 449.45 326.67188 449.0594Q326.15625 448.45 325.35938 448.45Q324.625 448.45 324.125 448.9344Q323.64062 449.41876 323.59375 450.2469ZM329.78125 453.95L329.78125 447.73126L330.73438 447.73126L330.73438 448.66876Q331.09375 448.0125 331.39062 447.8094Q331.70312 447.59064 332.07812 447.59064Q332.60938 447.59064 333.15625 447.91876L332.79688 448.90314Q332.40625 448.66876 332.03125 448.66876Q331.67188 448.66876 331.39062 448.8875Q331.125 449.09064 331.01562 449.46564Q330.82812 450.02814 330.82812 450.6844L330.82812 453.95L329.78125 453.95ZM339.875 453.95L339.875 451.8875L336.15625 451.8875L336.15625 450.91876L340.07812 445.35626L340.9375 445.35626L340.9375 450.91876L342.09375 450.91876L342.09375 451.8875L340.9375 451.8875L340.9375 453.95L339.875 453.95ZM339.875 450.91876L339.875 447.0594L337.1875 450.91876L339.875 450.91876Z" fill-rule="nonzero"/><path fill="#000000" d="M383.8581 446.575L383.8581 445.35626L384.9206 445.35626L384.9206 446.575L383.8581 446.575ZM383.8581 453.95L383.8581 447.73126L384.9206 447.73126L384.9206 453.95L383.8581 453.95ZM389.15497 453.0125L389.31122 453.9344Q388.8581 454.02814 388.51434 454.02814Q387.93622 454.02814 387.62372 453.85626Q387.31122 453.66876 387.1706 453.3719Q387.0456 453.075 387.0456 452.1219L387.0456 448.54376L386.27997 448.54376L386.27997 447.73126L387.0456 447.73126L387.0456 446.1844L388.09247 445.5594L388.09247 447.73126L389.15497 447.73126L389.15497 448.54376L388.09247 448.54376L388.09247 452.1844Q388.09247 452.6375 388.13934 452.7625Q388.20184 452.8875 388.32684 452.96564Q388.45184 453.04376 388.68622 453.04376Q388.87372 453.04376 389.15497 453.0125ZM394.1081 451.95L395.20184 452.075Q394.95184 453.02814 394.24872 453.5594Q393.5456 454.09064 392.46747 454.09064Q391.1081 454.09064 390.2956 453.2469Q389.49872 452.40314 389.49872 450.8875Q389.49872 449.325 390.31122 448.46564Q391.12372 447.59064 392.40497 447.59064Q393.65497 447.59064 394.43622 448.4344Q395.2331 449.27814 395.2331 450.825Q395.2331 450.91876 395.2331 451.10626L390.59247 451.10626Q390.65497 452.1375 391.1706 452.6844Q391.68622 453.21564 392.46747 453.21564Q393.0456 453.21564 393.45184 452.91876Q393.87372 452.60626 394.1081 451.95ZM390.65497 450.2469L394.12372 450.2469Q394.06122 449.45 393.7331 449.0594Q393.21747 448.45 392.4206 448.45Q391.68622 448.45 391.18622 448.9344Q390.70184 449.41876 390.65497 450.2469ZM396.84247 453.95L396.84247 447.73126L397.7956 447.73126L397.7956 448.66876Q398.15497 448.0125 398.45184 447.8094Q398.76434 447.59064 399.13934 447.59064Q399.6706 447.59064 400.21747 447.91876L399.8581 448.90314Q399.46747 448.66876 399.09247 448.66876Q398.7331 448.66876 398.45184 448.8875Q398.18622 449.09064 398.07684 449.46564Q397.88934 450.02814 397.88934 450.6844L397.88934 453.95L396.84247 453.95ZM403.56122 451.7L404.6706 451.60626Q404.7956 452.41876 405.2331 452.825Q405.68622 453.23126 406.32684 453.23126Q407.07684 453.23126 407.6081 452.65314Q408.13934 452.075 408.13934 451.1375Q408.13934 450.23126 407.62372 449.71564Q407.12372 449.1844 406.2956 449.1844Q405.7956 449.1844 405.37372 449.41876Q404.96747 449.65314 404.7331 450.0125L403.74872 449.8875L404.57684 445.48126L408.8581 445.48126L408.8581 446.48126L405.4206 446.48126L404.96747 448.79376Q405.7331 448.2469 406.57684 448.2469Q407.70184 448.2469 408.46747 449.02814Q409.24872 449.8094 409.24872 451.04376Q409.24872 452.2 408.57684 453.0594Q407.74872 454.09064 406.32684 454.09064Q405.15497 454.09064 404.40497 453.4344Q403.6706 452.77814 403.56122 451.7Z" fill-rule="nonzero"/><path fill="#000000" d="M450.9193 446.575L450.9193 445.35626L451.9818 445.35626L451.9818 446.575L450.9193 446.575ZM450.9193 453.95L450.9193 447.73126L451.9818 447.73126L451.9818 453.95L450.9193 453.95ZM456.2162 453.0125L456.37244 453.9344Q455.9193 454.02814 455.57556 454.02814Q454.99744 454.02814 454.68494 453.85626Q454.37244 453.66876 454.2318 453.3719Q454.1068 453.075 454.1068 452.1219L454.1068 448.54376L453.3412 448.54376L453.3412 447.73126L454.1068 447.73126L454.1068 446.1844L455.1537 445.5594L455.1537 447.73126L456.2162 447.73126L456.2162 448.54376L455.1537 448.54376L455.1537 452.1844Q455.1537 452.6375 455.20056 452.7625Q455.26306 452.8875 455.38806 452.96564Q455.51306 453.04376 455.74744 453.04376Q455.93494 453.04376 456.2162 453.0125ZM461.1693 451.95L462.26306 452.075Q462.01306 453.02814 461.30994 453.5594Q460.6068 454.09064 459.5287 454.09064Q458.1693 454.09064 457.3568 453.2469Q456.55994 452.40314 456.55994 450.8875Q456.55994 449.325 457.37244 448.46564Q458.18494 447.59064 459.4662 447.59064Q460.7162 447.59064 461.49744 448.4344Q462.2943 449.27814 462.2943 450.825Q462.2943 450.91876 462.2943 451.10626L457.6537 451.10626Q457.7162 452.1375 458.2318 452.6844Q458.74744 453.21564 459.5287 453.21564Q460.1068 453.21564 460.51306 452.91876Q460.93494 452.60626 461.1693 451.95ZM457.7162 450.2469L461.18494 450.2469Q461.12244 449.45 460.7943 449.0594Q460.2787 448.45 459.4818 448.45Q458.74744 448.45 458.24744 448.9344Q457.76306 449.41876 457.7162 450.2469ZM463.9037 453.95L463.9037 447.73126L464.8568 447.73126L464.8568 448.66876Q465.2162 448.0125 465.51306 447.8094Q465.82556 447.59064 466.20056 447.59064Q466.7318 447.59064 467.2787 447.91876L466.9193 448.90314Q466.5287 448.66876 466.1537 448.66876Q465.7943 448.66876 465.51306 448.8875Q465.24744 449.09064 465.13806 449.46564Q464.95056 450.02814 464.95056 450.6844L464.95056 453.95L463.9037 453.95ZM476.0912 447.46564L475.0443 447.54376Q474.9037 446.91876 474.6537 446.6375Q474.2162 446.1844 473.5912 446.1844Q473.0912 446.1844 472.70056 446.46564Q472.2162 446.84064 471.9193 447.54376Q471.63806 448.23126 471.62244 449.5125Q471.99744 448.9344 472.5443 448.65314Q473.1068 448.3719 473.7162 448.3719Q474.76306 448.3719 475.49744 449.15314Q476.24744 449.9344 476.24744 451.15314Q476.24744 451.96564 475.88806 452.66876Q475.5443 453.35626 474.93494 453.73126Q474.32556 454.09064 473.55994 454.09064Q472.2318 454.09064 471.4037 453.1219Q470.57556 452.15314 470.57556 449.9344Q470.57556 447.4344 471.49744 446.3094Q472.2943 445.325 473.6537 445.325Q474.6693 445.325 475.30994 445.90314Q475.9662 446.46564 476.0912 447.46564ZM471.7943 451.16876Q471.7943 451.71564 472.01306 452.21564Q472.24744 452.7 472.6537 452.96564Q473.07556 453.23126 473.5443 453.23126Q474.20056 453.23126 474.68494 452.7Q475.1693 452.15314 475.1693 451.23126Q475.1693 450.34064 474.68494 449.825Q474.2162 449.3094 473.49744 449.3094Q472.7787 449.3094 472.2787 449.825Q471.7943 450.34064 471.7943 451.16876Z" fill-rule="nonzero"/><path fill="#000000" d="M509.48056 446.575L509.48056 445.35626L510.54306 445.35626L510.54306 446.575L509.48056 446.575ZM509.48056 453.95L509.48056 447.73126L510.54306 447.73126L510.54306 453.95L509.48056 453.95ZM514.77747 453.0125L514.9337 453.9344Q514.4806 454.02814 514.13684 454.02814Q513.5587 454.02814 513.2462 453.85626Q512.9337 453.66876 512.7931 453.3719Q512.6681 453.075 512.6681 452.1219L512.6681 448.54376L511.90244 448.54376L511.90244 447.73126L512.6681 447.73126L512.6681 446.1844L513.71497 445.5594L513.71497 447.73126L514.77747 447.73126L514.77747 448.54376L513.71497 448.54376L513.71497 452.1844Q513.71497 452.6375 513.76184 452.7625Q513.82434 452.8875 513.94934 452.96564Q514.07434 453.04376 514.3087 453.04376Q514.4962 453.04376 514.77747 453.0125ZM519.7306 451.95L520.82434 452.075Q520.57434 453.02814 519.8712 453.5594Q519.1681 454.09064 518.08997 454.09064Q516.7306 454.09064 515.9181 453.2469Q515.1212 452.40314 515.1212 450.8875Q515.1212 449.325 515.9337 448.46564Q516.7462 447.59064 518.02747 447.59064Q519.27747 447.59064 520.0587 448.4344Q520.8556 449.27814 520.8556 450.825Q520.8556 450.91876 520.8556 451.10626L516.21497 451.10626Q516.27747 452.1375 516.7931 452.6844Q517.3087 453.21564 518.08997 453.21564Q518.6681 453.21564 519.07434 452.91876Q519.4962 452.60626 519.7306 451.95ZM516.27747 450.2469L519.7462 450.2469Q519.6837 449.45 519.3556 449.0594Q518.83997 448.45 518.0431 448.45Q517.3087 448.45 516.8087 448.9344Q516.32434 449.41876 516.27747 450.2469ZM522.46497 453.95L522.46497 447.73126L523.4181 447.73126L523.4181 448.66876Q523.77747 448.0125 524.07434 447.8094Q524.38684 447.59064 524.76184 447.59064Q525.2931 447.59064 525.83997 447.91876L525.4806 448.90314Q525.08997 448.66876 524.71497 448.66876Q524.3556 448.66876 524.07434 448.8875Q523.8087 449.09064 523.69934 449.46564Q523.51184 450.02814 523.51184 450.6844L523.51184 453.95L522.46497 453.95ZM529.44934 453.95L529.44934 445.35626L530.51184 445.35626L530.51184 453.95L529.44934 453.95ZM532.08997 450.84064Q532.08997 449.10626 533.0431 448.27814Q533.83997 447.59064 534.9962 447.59064Q536.27747 447.59064 537.08997 448.4344Q537.9181 449.2625 537.9181 450.7469Q537.9181 451.95 537.5587 452.6375Q537.19934 453.325 536.4962 453.71564Q535.8087 454.09064 534.9962 454.09064Q533.69934 454.09064 532.88684 453.2625Q532.08997 452.41876 532.08997 450.84064ZM533.1681 450.84064Q533.1681 452.02814 533.6837 452.6219Q534.21497 453.21564 534.9962 453.21564Q535.7931 453.21564 536.3087 452.6219Q536.82434 452.02814 536.82434 450.8094Q536.82434 449.65314 536.2931 449.0594Q535.77747 448.46564 534.9962 448.46564Q534.21497 448.46564 533.6837 449.0594Q533.1681 449.6375 533.1681 450.84064ZM539.4806 453.95L539.4806 447.73126L540.4181 447.73126L540.4181 448.60626Q541.1056 447.59064 542.40247 447.59064Q542.96497 447.59064 543.4337 447.79376Q543.9181 447.9969 544.15247 448.325Q544.38684 448.65314 544.4806 449.09064Q544.52747 449.3875 544.52747 450.1219L544.52747 453.95L543.4806 453.95L543.4806 450.16876Q543.4806 449.5125 543.3556 449.2Q543.2306 448.8875 542.9181 448.7Q542.6056 448.4969 542.1837 448.4969Q541.51184 448.4969 541.01184 448.9344Q540.52747 449.35626 540.52747 450.54376L540.52747 453.95L539.4806 453.95ZM546.27747 454.46564L547.3087 454.6219Q547.3712 455.09064 547.6681 455.3094Q548.0587 455.60626 548.7306 455.60626Q549.46497 455.60626 549.8556 455.3094Q550.26184 455.0125 550.40247 454.4969Q550.4962 454.16876 550.4806 453.1375Q549.7931 453.95 548.76184 453.95Q547.4806 453.95 546.77747 453.02814Q546.07434 452.09064 546.07434 450.8094Q546.07434 449.91876 546.38684 449.16876Q546.71497 448.40314 547.32434 447.9969Q547.9337 447.59064 548.76184 447.59064Q549.8712 447.59064 550.58997 448.48126L550.58997 447.73126L551.5587 447.73126L551.5587 453.10626Q551.5587 454.5594 551.26184 455.16876Q550.96497 455.77814 550.32434 456.1219Q549.6837 456.48126 548.7462 456.48126Q547.63684 456.48126 546.94934 455.98126Q546.26184 455.48126 546.27747 454.46564ZM547.15247 450.73126Q547.15247 451.95 547.63684 452.5125Q548.1212 453.075 548.8556 453.075Q549.58997 453.075 550.07434 452.5125Q550.57434 451.95 550.57434 450.7625Q550.57434 449.6219 550.0587 449.04376Q549.5587 448.46564 548.83997 448.46564Q548.13684 448.46564 547.63684 449.04376Q547.15247 449.60626 547.15247 450.73126Z" fill-rule="nonzero"/><path fill="#4f81bd" d="M166.5 66.083336C166.5 65.53105 166.94771 65.083336 167.5 65.083336L177.5 65.083336C178.05229 65.083336 178.5 65.53105 178.5 66.083336L178.5 76.083336C178.5 76.63562 178.05229 77.083336 177.5 77.083336L167.5 77.083336C166.94771 77.083336 166.5 76.63562 166.5 76.083336Z" fill-rule="nonzero"/><path fill="#1a1a1a" d="M187.4375 75.083336L187.4375 66.489586L191.25 66.489586Q192.40625 66.489586 193.0 66.72396Q193.59375 66.958336 193.95312 67.552086Q194.3125 68.13021 194.3125 68.833336Q194.3125 69.75521 193.71875 70.38021Q193.125 71.00521 191.89062 71.177086Q192.34375 71.395836 192.57812 71.59896Q193.07812 72.052086 193.51562 72.739586L195.01562 75.083336L193.57812 75.083336L192.45312 73.302086Q191.95312 72.520836 191.625 72.114586Q191.3125 71.708336 191.04688 71.552086Q190.79688 71.38021 190.53125 71.302086Q190.34375 71.270836 189.90625 71.270836L188.57812 71.270836L188.57812 75.083336L187.4375 75.083336ZM188.57812 70.28646L191.03125 70.28646Q191.79688 70.28646 192.23438 70.13021Q192.6875 69.958336 192.90625 69.614586Q193.14062 69.25521 193.14062 68.833336Q193.14062 68.22396 192.6875 67.833336Q192.25 67.44271 191.29688 67.44271L188.57812 67.44271L188.57812 70.28646ZM196.375 75.083336L196.375 66.489586L197.51562 66.489586L197.51562 70.75521L201.78125 66.489586L203.32812 66.489586L199.71875 69.97396L203.48438 75.083336L201.98438 75.083336L198.92188 70.739586L197.51562 72.09896L197.51562 75.083336L196.375 75.083336ZM204.45312 75.083336L204.45312 66.489586L210.65625 66.489586L210.65625 67.50521L205.59375 67.50521L205.59375 70.13021L210.34375 70.13021L210.34375 71.145836L205.59375 71.145836L205.59375 74.06771L210.85938 74.06771L210.85938 75.083336L204.45312 75.083336ZM217.54688 74.06771L217.54688 75.083336L211.85938 75.083336Q211.85938 74.708336 211.98438 74.34896Q212.20312 73.770836 212.67188 73.208336Q213.15625 72.645836 214.0625 71.91146Q215.46875 70.75521 215.95312 70.083336Q216.45312 69.41146 216.45312 68.81771Q216.45312 68.19271 216.0 67.770836Q215.54688 67.333336 214.82812 67.333336Q214.0625 67.333336 213.60938 67.78646Q213.15625 68.239586 213.14062 69.052086L212.0625 68.94271Q212.17188 67.72396 212.89062 67.09896Q213.625 66.458336 214.85938 66.458336Q216.09375 66.458336 216.8125 67.145836Q217.53125 67.833336 217.53125 68.84896Q217.53125 69.364586 217.3125 69.864586Q217.10938 70.34896 216.60938 70.91146Q216.125 71.458336 215.0 72.41146Q214.04688 73.208336 213.76562 73.50521Q213.5 73.78646 213.32812 74.06771L217.54688 74.06771ZM225.96875 75.083336L224.92188 75.083336L224.92188 68.364586Q224.53125 68.72396 223.90625 69.09896Q223.29688 69.458336 222.8125 69.63021L222.8125 68.614586Q223.6875 68.19271 224.34375 67.614586Q225.01562 67.020836 225.29688 66.458336L225.96875 66.458336L225.96875 75.083336ZM229.0 70.84896Q229.0 69.31771 229.3125 68.395836Q229.625 67.458336 230.23438 66.958336Q230.85938 66.458336 231.79688 66.458336Q232.48438 66.458336 233.0 66.739586Q233.53125 67.020836 233.875 67.552086Q234.21875 68.06771 234.40625 68.81771Q234.59375 69.56771 234.59375 70.84896Q234.59375 72.364586 234.28125 73.28646Q233.98438 74.208336 233.35938 74.72396Q232.75 75.22396 231.79688 75.22396Q230.5625 75.22396 229.84375 74.333336Q229.0 73.270836 229.0 70.84896ZM230.07812 70.84896Q230.07812 72.958336 230.57812 73.66146Q231.07812 74.364586 231.79688 74.364586Q232.53125 74.364586 233.01562 73.66146Q233.51562 72.958336 233.51562 70.84896Q233.51562 68.72396 233.01562 68.03646Q232.53125 67.333336 231.78125 67.333336Q231.0625 67.333336 230.625 67.94271Q230.07812 68.72396 230.07812 70.84896ZM236.0 70.84896Q236.0 69.31771 236.3125 68.395836Q236.625 67.458336 237.23438 66.958336Q237.85938 66.458336 238.79688 66.458336Q239.48438 66.458336 240.0 66.739586Q240.53125 67.020836 240.875 67.552086Q241.21875 68.06771 241.40625 68.81771Q241.59375 69.56771 241.59375 70.84896Q241.59375 72.364586 241.28125 73.28646Q240.98438 74.208336 240.35938 74.72396Q239.75 75.22396 238.79688 75.22396Q237.5625 75.22396 236.84375 74.333336Q236.0 73.270836 236.0 70.84896ZM237.07812 70.84896Q237.07812 72.958336 237.57812 73.66146Q238.07812 74.364586 238.79688 74.364586Q239.53125 74.364586 240.01562 73.66146Q240.51562 72.958336 240.51562 70.84896Q240.51562 68.72396 240.01562 68.03646Q239.53125 67.333336 238.78125 67.333336Q238.0625 67.333336 237.625 67.94271Q237.07812 68.72396 237.07812 70.84896ZM245.59375 75.083336L247.85938 71.84896L245.76562 68.864586L247.07812 68.864586L248.03125 70.31771Q248.29688 70.739586 248.46875 71.020836Q248.71875 70.63021 248.9375 70.333336L249.98438 68.864586L251.25 68.864586L249.09375 71.78646L251.40625 75.083336L250.125 75.083336L248.84375 73.145836L248.5 72.63021L246.85938 75.083336L245.59375 75.083336ZM257.96875 75.083336L256.92188 75.083336L256.92188 68.364586Q256.53125 68.72396 255.90625 69.09896Q255.29688 69.458336 254.8125 69.63021L254.8125 68.614586Q255.6875 68.19271 256.34375 67.614586Q257.01562 67.020836 257.29688 66.458336L257.96875 66.458336L257.96875 75.083336ZM261.29688 75.083336L261.29688 68.864586L262.23438 68.864586L262.23438 69.739586Q262.92188 68.72396 264.21875 68.72396Q264.78125 68.72396 265.25 68.927086Q265.73438 69.13021 265.96875 69.458336Q266.20312 69.78646 266.29688 70.22396Q266.34375 70.520836 266.34375 71.25521L266.34375 75.083336L265.29688 75.083336L265.29688 71.302086Q265.29688 70.645836 265.17188 70.333336Q265.04688 70.020836 264.73438 69.833336Q264.42188 69.63021 264.0 69.63021Q263.32812 69.63021 262.82812 70.06771Q262.34375 70.489586 262.34375 71.677086L262.34375 75.083336L261.29688 75.083336ZM267.90625 71.97396Q267.90625 70.239586 268.85938 69.41146Q269.65625 68.72396 270.8125 68.72396Q272.09375 68.72396 272.90625 69.56771Q273.73438 70.395836 273.73438 71.88021Q273.73438 73.083336 273.375 73.770836Q273.01562 74.458336 272.3125 74.84896Q271.625 75.22396 270.8125 75.22396Q269.51562 75.22396 268.70312 74.395836Q267.90625 73.552086 267.90625 71.97396ZM268.98438 71.97396Q268.98438 73.16146 269.5 73.75521Q270.03125 74.34896 270.8125 74.34896Q271.60938 74.34896 272.125 73.75521Q272.64062 73.16146 272.64062 71.94271Q272.64062 70.78646 272.10938 70.19271Q271.59375 69.59896 270.8125 69.59896Q270.03125 69.59896 269.5 70.19271Q268.98438 70.770836 268.98438 71.97396ZM279.32812 75.083336L279.32812 74.302086Q278.73438 75.22396 277.59375 75.22396Q276.84375 75.22396 276.21875 74.81771Q275.59375 74.395836 275.25 73.66146Q274.90625 72.927086 274.90625 71.97396Q274.90625 71.052086 275.21875 70.28646Q275.53125 69.520836 276.15625 69.13021Q276.78125 68.72396 277.54688 68.72396Q278.10938 68.72396 278.54688 68.958336Q278.98438 69.19271 279.26562 69.56771L279.26562 66.489586L280.3125 66.489586L280.3125 75.083336L279.32812 75.083336ZM276.0 71.97396Q276.0 73.177086 276.5 73.770836Q277.0 74.34896 277.6875 74.34896Q278.375 74.34896 278.85938 73.78646Q279.34375 73.22396 279.34375 72.06771Q279.34375 70.78646 278.84375 70.19271Q278.35938 69.59896 277.64062 69.59896Q276.9375 69.59896 276.46875 70.177086Q276.0 70.739586 276.0 71.97396ZM286.54688 73.083336L287.64062 73.208336Q287.39062 74.16146 286.6875 74.69271Q285.98438 75.22396 284.90625 75.22396Q283.54688 75.22396 282.73438 74.38021Q281.9375 73.53646 281.9375 72.020836Q281.9375 70.458336 282.75 69.59896Q283.5625 68.72396 284.84375 68.72396Q286.09375 68.72396 286.875 69.56771Q287.67188 70.41146 287.67188 71.958336Q287.67188 72.052086 287.67188 72.239586L283.03125 72.239586Q283.09375 73.270836 283.60938 73.81771Q284.125 74.34896 284.90625 74.34896Q285.48438 74.34896 285.89062 74.052086Q286.3125 73.739586 286.54688 73.083336ZM283.09375 71.38021L286.5625 71.38021Q286.5 70.583336 286.17188 70.19271Q285.65625 69.583336 284.85938 69.583336Q284.125 69.583336 283.625 70.06771Q283.14062 70.552086 283.09375 71.38021Z" fill-rule="nonzero"/><path fill="#c0504d" d="M304.5 66.083336C304.5 65.53105 304.94772 65.083336 305.5 65.083336L315.5 65.083336C316.05228 65.083336 316.5 65.53105 316.5 66.083336L316.5 76.083336C316.5 76.63562 316.05228 77.083336 315.5 77.083336L305.5 77.083336C304.94772 77.083336 304.5 76.63562 304.5 76.083336Z" fill-rule="nonzero"/><path fill="#1a1a1a" d="M325.4375 75.083336L325.4375 66.489586L329.25 66.489586Q330.40625 66.489586 331.0 66.72396Q331.59375 66.958336 331.95312 67.552086Q332.3125 68.13021 332.3125 68.833336Q332.3125 69.75521 331.71875 70.38021Q331.125 71.00521 329.89062 71.177086Q330.34375 71.395836 330.57812 71.59896Q331.07812 72.052086 331.51562 72.739586L333.01562 75.083336L331.57812 75.083336L330.45312 73.302086Q329.95312 72.520836 329.625 72.114586Q329.3125 71.708336 329.04688 71.552086Q328.79688 71.38021 328.53125 71.302086Q328.34375 71.270836 327.90625 71.270836L326.57812 71.270836L326.57812 75.083336L325.4375 75.083336ZM326.57812 70.28646L329.03125 70.28646Q329.79688 70.28646 330.23438 70.13021Q330.6875 69.958336 330.90625 69.614586Q331.14062 69.25521 331.14062 68.833336Q331.14062 68.22396 330.6875 67.833336Q330.25 67.44271 329.29688 67.44271L326.57812 67.44271L326.57812 70.28646ZM334.375 75.083336L334.375 66.489586L335.51562 66.489586L335.51562 70.75521L339.78125 66.489586L341.32812 66.489586L337.71875 69.97396L341.48438 75.083336L339.98438 75.083336L336.92188 70.739586L335.51562 72.09896L335.51562 75.083336L334.375 75.083336ZM342.45312 75.083336L342.45312 66.489586L348.65625 66.489586L348.65625 67.50521L343.59375 67.50521L343.59375 70.13021L348.34375 70.13021L348.34375 71.145836L343.59375 71.145836L343.59375 74.06771L348.85938 74.06771L348.85938 75.083336L342.45312 75.083336ZM355.54688 74.06771L355.54688 75.083336L349.85938 75.083336Q349.85938 74.708336 349.98438 74.34896Q350.20312 73.770836 350.67188 73.208336Q351.15625 72.645836 352.0625 71.91146Q353.46875 70.75521 353.95312 70.083336Q354.45312 69.41146 354.45312 68.81771Q354.45312 68.19271 354.0 67.770836Q353.54688 67.333336 352.82812 67.333336Q352.0625 67.333336 351.60938 67.78646Q351.15625 68.239586 351.14062 69.052086L350.0625 68.94271Q350.17188 67.72396 350.89062 67.09896Q351.625 66.458336 352.85938 66.458336Q354.09375 66.458336 354.8125 67.145836Q355.53125 67.833336 355.53125 68.84896Q355.53125 69.364586 355.3125 69.864586Q355.10938 70.34896 354.60938 70.91146Q354.125 71.458336 353.0 72.41146Q352.04688 73.208336 351.76562 73.50521Q351.5 73.78646 351.32812 74.06771L355.54688 74.06771ZM363.96875 75.083336L362.92188 75.083336L362.92188 68.364586Q362.53125 68.72396 361.90625 69.09896Q361.29688 69.458336 360.8125 69.63021L360.8125 68.614586Q361.6875 68.19271 362.34375 67.614586Q363.01562 67.020836 363.29688 66.458336L363.96875 66.458336L363.96875 75.083336ZM367.0 70.84896Q367.0 69.31771 367.3125 68.395836Q367.625 67.458336 368.23438 66.958336Q368.85938 66.458336 369.79688 66.458336Q370.48438 66.458336 371.0 66.739586Q371.53125 67.020836 371.875 67.552086Q372.21875 68.06771 372.40625 68.81771Q372.59375 69.56771 372.59375 70.84896Q372.59375 72.364586 372.28125 73.28646Q371.98438 74.208336 371.35938 74.72396Q370.75 75.22396 369.79688 75.22396Q368.5625 75.22396 367.84375 74.333336Q367.0 73.270836 367.0 70.84896ZM368.07812 70.84896Q368.07812 72.958336 368.57812 73.66146Q369.07812 74.364586 369.79688 74.364586Q370.53125 74.364586 371.01562 73.66146Q371.51562 72.958336 371.51562 70.84896Q371.51562 68.72396 371.01562 68.03646Q370.53125 67.333336 369.78125 67.333336Q369.0625 67.333336 368.625 67.94271Q368.07812 68.72396 368.07812 70.84896ZM374.0 70.84896Q374.0 69.31771 374.3125 68.395836Q374.625 67.458336 375.23438 66.958336Q375.85938 66.458336 376.79688 66.458336Q377.48438 66.458336 378.0 66.739586Q378.53125 67.020836 378.875 67.552086Q379.21875 68.06771 379.40625 68.81771Q379.59375 69.56771 379.59375 70.84896Q379.59375 72.364586 379.28125 73.28646Q378.98438 74.208336 378.35938 74.72396Q377.75 75.22396 376.79688 75.22396Q375.5625 75.22396 374.84375 74.333336Q374.0 73.270836 374.0 70.84896ZM375.07812 70.84896Q375.07812 72.958336 375.57812 73.66146Q376.07812 74.364586 376.79688 74.364586Q377.53125 74.364586 378.01562 73.66146Q378.51562 72.958336 378.51562 70.84896Q378.51562 68.72396 378.01562 68.03646Q377.53125 67.333336 376.78125 67.333336Q376.0625 67.333336 375.625 67.94271Q375.07812 68.72396 375.07812 70.84896ZM383.59375 75.083336L385.85938 71.84896L383.76562 68.864586L385.07812 68.864586L386.03125 70.31771Q386.29688 70.739586 386.46875 71.020836Q386.71875 70.63021 386.9375 70.333336L387.98438 68.864586L389.25 68.864586L387.09375 71.78646L389.40625 75.083336L388.125 75.083336L386.84375 73.145836L386.5 72.63021L384.85938 75.083336L383.59375 75.083336ZM392.0 72.81771L393.0625 72.677086Q393.23438 73.56771 393.67188 73.97396Q394.10938 74.364586 394.73438 74.364586Q395.48438 74.364586 396.0 73.84896Q396.51562 73.333336 396.51562 72.56771Q396.51562 71.84896 396.03125 71.38021Q395.5625 70.895836 394.82812 70.895836Q394.53125 70.895836 394.07812 71.020836L394.20312 70.083336Q394.3125 70.09896 394.375 70.09896Q395.04688 70.09896 395.57812 69.75521Q396.125 69.395836 396.125 68.66146Q396.125 68.083336 395.73438 67.708336Q395.34375 67.31771 394.71875 67.31771Q394.10938 67.31771 393.6875 67.708336Q393.28125 68.09896 393.17188 68.864586L392.10938 68.677086Q392.29688 67.63021 392.98438 67.052086Q393.67188 66.458336 394.6875 66.458336Q395.39062 66.458336 395.98438 66.770836Q396.57812 67.06771 396.89062 67.583336Q397.20312 68.09896 397.20312 68.69271Q397.20312 69.239586 396.90625 69.708336Q396.60938 70.16146 396.03125 70.427086Q396.78125 70.59896 397.20312 71.16146Q397.625 71.708336 397.625 72.552086Q397.625 73.677086 396.79688 74.458336Q395.98438 75.239586 394.73438 75.239586Q393.60938 75.239586 392.85938 74.56771Q392.10938 73.88021 392.0 72.81771ZM399.29688 75.083336L399.29688 68.864586L400.23438 68.864586L400.23438 69.739586Q400.92188 68.72396 402.21875 68.72396Q402.78125 68.72396 403.25 68.927086Q403.73438 69.13021 403.96875 69.458336Q404.20312 69.78646 404.29688 70.22396Q404.34375 70.520836 404.34375 71.25521L404.34375 75.083336L403.29688 75.083336L403.29688 71.302086Q403.29688 70.645836 403.17188 70.333336Q403.04688 70.020836 402.73438 69.833336Q402.42188 69.63021 402.0 69.63021Q401.32812 69.63021 400.82812 70.06771Q400.34375 70.489586 400.34375 71.677086L400.34375 75.083336L399.29688 75.083336ZM405.90625 71.97396Q405.90625 70.239586 406.85938 69.41146Q407.65625 68.72396 408.8125 68.72396Q410.09375 68.72396 410.90625 69.56771Q411.73438 70.395836 411.73438 71.88021Q411.73438 73.083336 411.375 73.770836Q411.01562 74.458336 410.3125 74.84896Q409.625 75.22396 408.8125 75.22396Q407.51562 75.22396 406.70312 74.395836Q405.90625 73.552086 405.90625 71.97396ZM406.98438 71.97396Q406.98438 73.16146 407.5 73.75521Q408.03125 74.34896 408.8125 74.34896Q409.60938 74.34896 410.125 73.75521Q410.64062 73.16146 410.64062 71.94271Q410.64062 70.78646 410.10938 70.19271Q409.59375 69.59896 408.8125 69.59896Q408.03125 69.59896 407.5 70.19271Q406.98438 70.770836 406.98438 71.97396ZM417.32812 75.083336L417.32812 74.302086Q416.73438 75.22396 415.59375 75.22396Q414.84375 75.22396 414.21875 74.81771Q413.59375 74.395836 413.25 73.66146Q412.90625 72.927086 412.90625 71.97396Q412.90625 71.052086 413.21875 70.28646Q413.53125 69.520836 414.15625 69.13021Q414.78125 68.72396 415.54688 68.72396Q416.10938 68.72396 416.54688 68.958336Q416.98438 69.19271 417.26562 69.56771L417.26562 66.489586L418.3125 66.489586L418.3125 75.083336L417.32812 75.083336ZM414.0 71.97396Q414.0 73.177086 414.5 73.770836Q415.0 74.34896 415.6875 74.34896Q416.375 74.34896 416.85938 73.78646Q417.34375 73.22396 417.34375 72.06771Q417.34375 70.78646 416.84375 70.19271Q416.35938 69.59896 415.64062 69.59896Q414.9375 69.59896 414.46875 70.177086Q414.0 70.739586 414.0 71.97396ZM424.54688 73.083336L425.64062 73.208336Q425.39062 74.16146 424.6875 74.69271Q423.98438 75.22396 422.90625 75.22396Q421.54688 75.22396 420.73438 74.38021Q419.9375 73.53646 419.9375 72.020836Q419.9375 70.458336 420.75 69.59896Q421.5625 68.72396 422.84375 68.72396Q424.09375 68.72396 424.875 69.56771Q425.67188 70.41146 425.67188 71.958336Q425.67188 72.052086 425.67188 72.239586L421.03125 72.239586Q421.09375 73.270836 421.60938 73.81771Q422.125 74.34896 422.90625 74.34896Q423.48438 74.34896 423.89062 74.052086Q424.3125 73.739586 424.54688 73.083336ZM421.09375 71.38021L424.5625 71.38021Q424.5 70.583336 424.17188 70.19271Q423.65625 69.583336 422.85938 69.583336Q422.125 69.583336 421.625 70.06771Q421.14062 70.552086 421.09375 71.38021ZM426.875 73.22396L427.90625 73.06771Q428.0 73.69271 428.39062 74.020836Q428.79688 74.34896 429.53125 74.34896Q430.25 74.34896 430.59375 74.06771Q430.95312 73.770836 430.95312 73.364586Q430.95312 73.00521 430.64062 72.802086Q430.42188 72.66146 429.5625 72.44271Q428.40625 72.145836 427.95312 71.94271Q427.51562 71.72396 427.28125 71.34896Q427.04688 70.97396 427.04688 70.50521Q427.04688 70.09896 427.23438 69.739586Q427.42188 69.38021 427.75 69.145836Q428.0 68.97396 428.42188 68.84896Q428.84375 68.72396 429.34375 68.72396Q430.0625 68.72396 430.60938 68.94271Q431.17188 69.145836 431.4375 69.50521Q431.70312 69.864586 431.79688 70.458336L430.76562 70.59896Q430.70312 70.13021 430.35938 69.864586Q430.03125 69.583336 429.40625 69.583336Q428.6875 69.583336 428.375 69.833336Q428.0625 70.06771 428.0625 70.395836Q428.0625 70.59896 428.1875 70.75521Q428.32812 70.927086 428.59375 71.03646Q428.75 71.09896 429.53125 71.302086Q430.65625 71.614586 431.09375 71.802086Q431.53125 71.989586 431.78125 72.34896Q432.03125 72.708336 432.03125 73.25521Q432.03125 73.78646 431.71875 74.25521Q431.42188 74.708336 430.84375 74.97396Q430.26562 75.22396 429.53125 75.22396Q428.3125 75.22396 427.67188 74.72396Q427.04688 74.208336 426.875 73.22396Z" fill-rule="nonzero"/><path fill="#757575" d="M32.14375 39.253124L33.8625 39.471874Q33.58125 41.26875 32.409374 42.284374Q31.253124 43.284374 29.55 43.284374Q27.425 43.284374 26.128124 41.89375Q24.83125 40.503124 24.83125 37.909374Q24.83125 36.221874 25.378124 34.971874Q25.940624 33.70625 27.08125 33.08125Q28.221874 32.440624 29.565624 32.440624Q31.253124 32.440624 32.315624 33.3Q33.39375 34.159374 33.70625 35.721874L31.9875 35.9875Q31.753124 34.940624 31.128124 34.425Q30.503124 33.89375 29.628124 33.89375Q28.3 33.89375 27.471874 34.846874Q26.64375 35.8 26.64375 37.846874Q26.64375 39.940624 27.440624 40.89375Q28.2375 41.83125 29.534374 41.83125Q30.565624 41.83125 31.253124 41.20625Q31.95625 40.565624 32.14375 39.253124ZM35.33125 43.05L35.33125 28.7375L37.08125 28.7375L37.08125 43.05L35.33125 43.05ZM46.159374 43.05L46.159374 41.51875Q44.95625 43.284374 42.878124 43.284374Q41.95625 43.284374 41.159374 42.940624Q40.3625 42.58125 39.971874 42.05Q39.596874 41.51875 39.440624 40.7375Q39.33125 40.221874 39.33125 39.096874L39.33125 32.675L41.08125 32.675L41.08125 38.425Q41.08125 39.8 41.190624 40.284374Q41.3625 40.971874 41.89375 41.378124Q42.440624 41.76875 43.221874 41.76875Q44.01875 41.76875 44.70625 41.3625Q45.409374 40.95625 45.690624 40.26875Q45.9875 39.565624 45.9875 38.2375L45.9875 32.675L47.7375 32.675L47.7375 43.05L46.159374 43.05ZM48.659374 39.95625L50.409374 39.675Q50.55 40.721874 51.221874 41.284374Q51.89375 41.83125 53.096874 41.83125Q54.3 41.83125 54.878124 41.346874Q55.471874 40.846874 55.471874 40.190624Q55.471874 39.596874 54.95625 39.253124Q54.596874 39.01875 53.159374 38.659374Q51.221874 38.159374 50.471874 37.815624Q49.7375 37.45625 49.346874 36.83125Q48.95625 36.190624 48.95625 35.425Q48.95625 34.7375 49.26875 34.14375Q49.596874 33.55 50.14375 33.159374Q50.55 32.8625 51.253124 32.659374Q51.971874 32.440624 52.784374 32.440624Q54.003124 32.440624 54.925 32.8Q55.846874 33.14375 56.284374 33.753124Q56.721874 34.346874 56.89375 35.346874L55.175 35.58125Q55.05 34.784374 54.4875 34.346874Q53.925 33.89375 52.909374 33.89375Q51.690624 33.89375 51.175 34.3Q50.659374 34.690624 50.659374 35.221874Q50.659374 35.565624 50.878124 35.846874Q51.08125 36.128124 51.55 36.315624Q51.815624 36.409374 53.096874 36.753124Q54.971874 37.253124 55.70625 37.58125Q56.440624 37.89375 56.8625 38.503124Q57.284374 39.096874 57.284374 40.003124Q57.284374 40.878124 56.76875 41.659374Q56.253124 42.440624 55.284374 42.8625Q54.315624 43.284374 53.096874 43.284374Q51.08125 43.284374 50.01875 42.440624Q48.95625 41.596874 48.659374 39.95625ZM63.20625 41.471874L63.45625 43.034374Q62.721874 43.190624 62.128124 43.190624Q61.175 43.190624 60.64375 42.89375Q60.128124 42.58125 59.909374 42.096874Q59.690624 41.596874 59.690624 40.01875L59.690624 34.05L58.409374 34.05L58.409374 32.675L59.690624 32.675L59.690624 30.1125L61.440624 29.05L61.440624 32.675L63.20625 32.675L63.20625 34.05L61.440624 34.05L61.440624 40.1125Q61.440624 40.8625 61.534374 41.08125Q61.628124 41.284374 61.83125 41.425Q62.05 41.55 62.440624 41.55Q62.721874 41.55 63.20625 41.471874ZM72.47188 39.70625L74.28438 39.940624Q73.8625 41.51875 72.69063 42.409374Q71.53438 43.284374 69.72188 43.284374Q67.45625 43.284374 66.1125 41.89375Q64.78438 40.4875 64.78438 37.95625Q64.78438 35.33125 66.12813 33.89375Q67.47188 32.440624 69.62813 32.440624Q71.70625 32.440624 73.01875 33.8625Q74.34688 35.26875 74.34688 37.846874Q74.34688 38.003124 74.33125 38.315624L66.59688 38.315624Q66.69063 40.01875 67.56563 40.925Q68.44063 41.83125 69.7375 41.83125Q70.70625 41.83125 71.37813 41.33125Q72.06563 40.815624 72.47188 39.70625ZM66.69063 36.8625L72.4875 36.8625Q72.37813 35.565624 71.83125 34.909374Q70.9875 33.89375 69.64375 33.89375Q68.44063 33.89375 67.6125 34.70625Q66.78438 35.503124 66.69063 36.8625ZM76.34688 43.05L76.34688 32.675L77.925 32.675L77.925 34.253124Q78.53438 33.14375 79.05 32.8Q79.56563 32.440624 80.175 32.440624Q81.06563 32.440624 81.9875 33.003124L81.37813 34.64375Q80.7375 34.253124 80.09688 34.253124Q79.51875 34.253124 79.05 34.6125Q78.59688 34.95625 78.39375 35.565624Q78.1125 36.503124 78.1125 37.6125L78.1125 43.05L76.34688 43.05ZM82.65938 39.95625L84.40938 39.675Q84.55 40.721874 85.22188 41.284374Q85.89375 41.83125 87.09688 41.83125Q88.3 41.83125 88.87813 41.346874Q89.47188 40.846874 89.47188 40.190624Q89.47188 39.596874 88.95625 39.253124Q88.59688 39.01875 87.15938 38.659374Q85.22188 38.159374 84.47188 37.815624Q83.7375 37.45625 83.34688 36.83125Q82.95625 36.190624 82.95625 35.425Q82.95625 34.7375 83.26875 34.14375Q83.59688 33.55 84.14375 33.159374Q84.55 32.8625 85.25313 32.659374Q85.97188 32.440624 86.78438 32.440624Q88.00313 32.440624 88.925 32.8Q89.84688 33.14375 90.28438 33.753124Q90.72188 34.346874 90.89375 35.346874L89.175 35.58125Q89.05 34.784374 88.4875 34.346874Q87.925 33.89375 86.90938 33.89375Q85.69063 33.89375 85.175 34.3Q84.65938 34.690624 84.65938 35.221874Q84.65938 35.565624 84.87813 35.846874Q85.08125 36.128124 85.55 36.315624Q85.81563 36.409374 87.09688 36.753124Q88.97188 37.253124 89.70625 37.58125Q90.44063 37.89375 90.8625 38.503124Q91.28438 39.096874 91.28438 40.003124Q91.28438 40.878124 90.76875 41.659374Q90.25313 42.440624 89.28438 42.8625Q88.31563 43.284374 87.09688 43.284374Q85.08125 43.284374 84.01875 42.440624Q82.95625 41.596874 82.65938 39.95625ZM98.01875 43.05L103.51875 28.7375L105.56563 28.7375L111.425 43.05L109.26875 43.05L107.59688 38.70625L101.6125 38.70625L100.03438 43.05L98.01875 43.05ZM102.15938 37.175L107.00313 37.175L105.51875 33.20625Q104.83125 31.39375 104.50313 30.2375Q104.22188 31.6125 103.72188 32.971874L102.15938 37.175ZM116.69063 43.05L111.14375 28.7375L113.19063 28.7375L116.90938 39.128124Q117.3625 40.378124 117.65938 41.471874Q117.9875 40.3 118.44063 39.128124L122.3 28.7375L124.2375 28.7375L118.62813 43.05L116.69063 43.05ZM132.3 37.440624L132.3 35.753124L138.3625 35.7375L138.3625 41.05Q136.95625 42.175 135.47188 42.7375Q133.9875 43.3 132.425 43.3Q130.31563 43.3 128.59688 42.39375Q126.87813 41.4875 125.9875 39.784374Q125.1125 38.065624 125.1125 35.95625Q125.1125 33.8625 125.9875 32.065624Q126.8625 30.253124 128.50313 29.378124Q130.14375 28.4875 132.28438 28.4875Q133.83125 28.4875 135.08125 28.9875Q136.34688 29.4875 137.05 30.39375Q137.76875 31.284374 138.14375 32.7375L136.44063 33.20625Q136.1125 32.1125 135.62813 31.4875Q135.15938 30.8625 134.26875 30.4875Q133.37813 30.1125 132.3 30.1125Q130.9875 30.1125 130.03438 30.503124Q129.09688 30.89375 128.51875 31.55Q127.94063 32.190624 127.6125 32.95625Q127.06563 34.284374 127.06563 35.846874Q127.06563 37.753124 127.72188 39.05Q128.39375 40.33125 129.64375 40.95625Q130.90938 41.58125 132.31563 41.58125Q133.55 41.58125 134.72188 41.1125Q135.89375 40.64375 136.50313 40.096874L136.50313 37.440624L132.3 37.440624ZM149.28438 43.05L146.1125 32.675L147.925 32.675L149.58125 38.659374L150.19063 40.89375Q150.2375 40.721874 150.72188 38.753124L152.37813 32.675L154.19063 32.675L155.7375 38.690624L156.25313 40.675L156.84688 38.675L158.62813 32.675L160.33125 32.675L157.09688 43.05L155.26875 43.05L153.6125 36.83125L153.22188 35.065624L151.1125 43.05L149.28438 43.05ZM162.37813 30.753124L162.37813 28.7375L164.14375 28.7375L164.14375 30.753124L162.37813 30.753124ZM162.37813 43.05L162.37813 32.675L164.14375 32.675L164.14375 43.05L162.37813 43.05ZM170.20625 41.471874L170.45625 43.034374Q169.72188 43.190624 169.12813 43.190624Q168.175 43.190624 167.64375 42.89375Q167.12813 42.58125 166.90938 42.096874Q166.69063 41.596874 166.69063 40.01875L166.69063 34.05L165.40938 34.05L165.40938 32.675L166.69063 32.675L166.69063 30.1125L168.44063 29.05L168.44063 32.675L170.20625 32.675L170.20625 34.05L168.44063 34.05L168.44063 40.1125Q168.44063 40.8625 168.53438 41.08125Q168.62813 41.284374 168.83125 41.425Q169.05 41.55 169.44063 41.55Q169.72188 41.55 170.20625 41.471874ZM172.3625 43.05L172.3625 28.7375L174.12813 28.7375L174.12813 33.8625Q175.3625 32.440624 177.2375 32.440624Q178.37813 32.440624 179.22188 32.89375Q180.08125 33.346874 180.44063 34.159374Q180.81563 34.95625 180.81563 36.471874L180.81563 43.05L179.06563 43.05L179.06563 36.471874Q179.06563 35.159374 178.4875 34.565624Q177.90938 33.95625 176.87813 33.95625Q176.09688 33.95625 175.39375 34.3625Q174.70625 34.76875 174.40938 35.471874Q174.12813 36.159374 174.12813 37.378124L174.12813 43.05L172.3625 43.05ZM188.34688 43.05L188.34688 32.675L189.925 32.675L189.925 34.253124Q190.53438 33.14375 191.05 32.8Q191.56563 32.440624 192.175 32.440624Q193.06563 32.440624 193.9875 33.003124L193.37813 34.64375Q192.7375 34.253124 192.09688 34.253124Q191.51875 34.253124 191.05 34.6125Q190.59688 34.95625 190.39375 35.565624Q190.1125 36.503124 190.1125 37.6125L190.1125 43.05L188.34688 43.05ZM202.47188 39.70625L204.28438 39.940624Q203.8625 41.51875 202.69063 42.409374Q201.53438 43.284374 199.72188 43.284374Q197.45625 43.284374 196.1125 41.89375Q194.78438 40.4875 194.78438 37.95625Q194.78438 35.33125 196.12813 33.89375Q197.47188 32.440624 199.62813 32.440624Q201.70625 32.440624 203.01875 33.8625Q204.34688 35.26875 204.34688 37.846874Q204.34688 38.003124 204.33125 38.315624L196.59688 38.315624Q196.69063 40.01875 197.56563 40.925Q198.44063 41.83125 199.7375 41.83125Q200.70625 41.83125 201.37813 41.33125Q202.06563 40.815624 202.47188 39.70625ZM196.69063 36.8625L202.4875 36.8625Q202.37813 35.565624 201.83125 34.909374Q200.9875 33.89375 199.64375 33.89375Q198.44063 33.89375 197.6125 34.70625Q196.78438 35.503124 196.69063 36.8625ZM205.65938 39.95625L207.40938 39.675Q207.55 40.721874 208.22188 41.284374Q208.89375 41.83125 210.09688 41.83125Q211.3 41.83125 211.87813 41.346874Q212.47188 40.846874 212.47188 40.190624Q212.47188 39.596874 211.95625 39.253124Q211.59688 39.01875 210.15938 38.659374Q208.22188 38.159374 207.47188 37.815624Q206.7375 37.45625 206.34688 36.83125Q205.95625 36.190624 205.95625 35.425Q205.95625 34.7375 206.26875 34.14375Q206.59688 33.55 207.14375 33.159374Q207.55 32.8625 208.25313 32.659374Q208.97188 32.440624 209.78438 32.440624Q211.00313 32.440624 211.925 32.8Q212.84688 33.14375 213.28438 33.753124Q213.72188 34.346874 213.89375 35.346874L212.175 35.58125Q212.05 34.784374 211.4875 34.346874Q210.925 33.89375 209.90938 33.89375Q208.69063 33.89375 208.175 34.3Q207.65938 34.690624 207.65938 35.221874Q207.65938 35.565624 207.87813 35.846874Q208.08125 36.128124 208.55 36.315624Q208.81563 36.409374 210.09688 36.753124Q211.97188 37.253124 212.70625 37.58125Q213.44063 37.89375 213.8625 38.503124Q214.28438 39.096874 214.28438 40.003124Q214.28438 40.878124 213.76875 41.659374Q213.25313 42.440624 212.28438 42.8625Q211.31563 43.284374 210.09688 43.284374Q208.08125 43.284374 207.01875 42.440624Q205.95625 41.596874 205.65938 39.95625ZM215.72188 37.8625Q215.72188 34.9875 217.31563 33.596874Q218.65938 32.440624 220.58125 32.440624Q222.72188 32.440624 224.06563 33.846874Q225.425 35.253124 225.425 37.721874Q225.425 39.721874 224.83125 40.878124Q224.2375 42.01875 223.08125 42.659374Q221.94063 43.284374 220.58125 43.284374Q218.39375 43.284374 217.05 41.89375Q215.72188 40.4875 215.72188 37.8625ZM217.51875 37.8625Q217.51875 39.8625 218.37813 40.846874Q219.25313 41.83125 220.58125 41.83125Q221.89375 41.83125 222.75313 40.846874Q223.62813 39.846874 223.62813 37.8Q223.62813 35.878124 222.75313 34.89375Q221.87813 33.89375 220.58125 33.89375Q219.25313 33.89375 218.37813 34.89375Q217.51875 35.878124 217.51875 37.8625ZM234.15938 43.05L234.15938 41.51875Q232.95625 43.284374 230.87813 43.284374Q229.95625 43.284374 229.15938 42.940624Q228.3625 42.58125 227.97188 42.05Q227.59688 41.51875 227.44063 40.7375Q227.33125 40.221874 227.33125 39.096874L227.33125 32.675L229.08125 32.675L229.08125 38.425Q229.08125 39.8 229.19063 40.284374Q229.3625 40.971874 229.89375 41.378124Q230.44063 41.76875 231.22188 41.76875Q232.01875 41.76875 232.70625 41.3625Q233.40938 40.95625 233.69063 40.26875Q233.9875 39.565624 233.9875 38.2375L233.9875 32.675L235.7375 32.675L235.7375 43.05L234.15938 43.05ZM237.34688 43.05L237.34688 32.675L238.925 32.675L238.925 34.253124Q239.53438 33.14375 240.05 32.8Q240.56563 32.440624 241.175 32.440624Q242.06563 32.440624 242.9875 33.003124L242.37813 34.64375Q241.7375 34.253124 241.09688 34.253124Q240.51875 34.253124 240.05 34.6125Q239.59688 34.95625 239.39375 35.565624Q239.1125 36.503124 239.1125 37.6125L239.1125 43.05L237.34688 43.05ZM251.14375 39.253124L252.8625 39.471874Q252.58125 41.26875 251.40938 42.284374Q250.25313 43.284374 248.55 43.284374Q246.425 43.284374 245.12813 41.89375Q243.83125 40.503124 243.83125 37.909374Q243.83125 36.221874 244.37813 34.971874Q244.94063 33.70625 246.08125 33.08125Q247.22188 32.440624 248.56563 32.440624Q250.25313 32.440624 251.31563 33.3Q252.39375 34.159374 252.70625 35.721874L250.9875 35.9875Q250.75313 34.940624 250.12813 34.425Q249.50313 33.89375 248.62813 33.89375Q247.3 33.89375 246.47188 34.846874Q245.64375 35.8 245.64375 37.846874Q245.64375 39.940624 246.44063 40.89375Q247.2375 41.83125 248.53438 41.83125Q249.56563 41.83125 250.25313 41.20625Q250.95625 40.565624 251.14375 39.253124ZM261.47186 39.70625L263.28436 39.940624Q262.8625 41.51875 261.6906 42.409374Q260.53436 43.284374 258.72186 43.284374Q256.45624 43.284374 255.1125 41.89375Q253.78438 40.4875 253.78438 37.95625Q253.78438 35.33125 255.12813 33.89375Q256.47186 32.440624 258.6281 32.440624Q260.70624 32.440624 262.01874 33.8625Q263.34686 35.26875 263.34686 37.846874Q263.34686 38.003124 263.33124 38.315624L255.59688 38.315624Q255.69063 40.01875 256.5656 40.925Q257.4406 41.83125 258.7375 41.83125Q259.70624 41.83125 260.3781 41.33125Q261.0656 40.815624 261.47186 39.70625ZM255.69063 36.8625L261.4875 36.8625Q261.3781 35.565624 260.83124 34.909374Q259.9875 33.89375 258.64374 33.89375Q257.4406 33.89375 256.6125 34.70625Q255.78438 35.503124 255.69063 36.8625ZM264.65936 39.95625L266.40936 39.675Q266.55 40.721874 267.22186 41.284374Q267.89374 41.83125 269.09686 41.83125Q270.3 41.83125 270.8781 41.346874Q271.47186 40.846874 271.47186 40.190624Q271.47186 39.596874 270.95624 39.253124Q270.59686 39.01875 269.15936 38.659374Q267.22186 38.159374 266.47186 37.815624Q265.7375 37.45625 265.34686 36.83125Q264.95624 36.190624 264.95624 35.425Q264.95624 34.7375 265.26874 34.14375Q265.59686 33.55 266.14374 33.159374Q266.55 32.8625 267.2531 32.659374Q267.97186 32.440624 268.78436 32.440624Q270.0031 32.440624 270.925 32.8Q271.84686 33.14375 272.28436 33.753124Q272.72186 34.346874 272.89374 35.346874L271.175 35.58125Q271.05 34.784374 270.4875 34.346874Q269.925 33.89375 268.90936 33.89375Q267.6906 33.89375 267.175 34.3Q266.65936 34.690624 266.65936 35.221874Q266.65936 35.565624 266.8781 35.846874Q267.08124 36.128124 267.55 36.315624Q267.8156 36.409374 269.09686 36.753124Q270.97186 37.253124 271.70624 37.58125Q272.4406 37.89375 272.8625 38.503124Q273.28436 39.096874 273.28436 40.003124Q273.28436 40.878124 272.76874 41.659374Q272.2531 42.440624 271.28436 42.8625Q270.3156 43.284374 269.09686 43.284374Q267.08124 43.284374 266.01874 42.440624Q264.95624 41.596874 264.65936 39.95625ZM281.33124 43.05L281.33124 28.7375L283.08124 28.7375L283.08124 43.05L281.33124 43.05ZM284.72186 37.8625Q284.72186 34.9875 286.3156 33.596874Q287.65936 32.440624 289.58124 32.440624Q291.72186 32.440624 293.0656 33.846874Q294.425 35.253124 294.425 37.721874Q294.425 39.721874 293.83124 40.878124Q293.2375 42.01875 292.08124 42.659374Q290.9406 43.284374 289.58124 43.284374Q287.39374 43.284374 286.05 41.89375Q284.72186 40.4875 284.72186 37.8625ZM286.51874 37.8625Q286.51874 39.8625 287.3781 40.846874Q288.2531 41.83125 289.58124 41.83125Q290.89374 41.83125 291.7531 40.846874Q292.6281 39.846874 292.6281 37.8Q292.6281 35.878124 291.7531 34.89375Q290.8781 33.89375 289.58124 33.89375Q288.2531 33.89375 287.3781 34.89375Q286.51874 35.878124 286.51874 37.8625ZM303.14374 41.76875Q302.15936 42.596874 301.2531 42.940624Q300.34686 43.284374 299.3156 43.284374Q297.6125 43.284374 296.6906 42.45625Q295.76874 41.6125 295.76874 40.315624Q295.76874 39.55 296.1125 38.925Q296.47186 38.3 297.03436 37.925Q297.59686 37.534374 298.3 37.33125Q298.8156 37.20625 299.8625 37.065624Q301.9875 36.815624 302.9875 36.471874Q303.0031 36.1125 303.0031 36.003124Q303.0031 34.940624 302.5031 34.4875Q301.83124 33.89375 300.5031 33.89375Q299.2531 33.89375 298.65936 34.33125Q298.08124 34.76875 297.8 35.878124L296.08124 35.64375Q296.3156 34.534374 296.84686 33.8625Q297.3781 33.175 298.39374 32.815624Q299.40936 32.440624 300.7531 32.440624Q302.08124 32.440624 302.90936 32.753124Q303.7375 33.065624 304.1281 33.55Q304.51874 34.01875 304.675 34.7375Q304.76874 35.190624 304.76874 36.3625L304.76874 38.70625Q304.76874 41.159374 304.8781 41.815624Q304.9875 42.45625 305.33124 43.05L303.4875 43.05Q303.22186 42.503124 303.14374 41.76875ZM302.9875 37.846874Q302.03436 38.2375 300.1125 38.503124Q299.03436 38.659374 298.58124 38.8625Q298.14374 39.05 297.89374 39.425Q297.64374 39.8 297.64374 40.26875Q297.64374 40.971874 298.175 41.440624Q298.70624 41.909374 299.7375 41.909374Q300.7531 41.909374 301.53436 41.471874Q302.33124 41.01875 302.70624 40.253124Q302.9875 39.64375 302.9875 38.4875L302.9875 37.846874ZM314.09686 43.05L314.09686 41.7375Q313.1125 43.284374 311.1906 43.284374Q309.95624 43.284374 308.90936 42.596874Q307.8781 41.909374 307.3 40.690624Q306.7375 39.471874 306.7375 37.878124Q306.7375 36.315624 307.2531 35.05Q307.76874 33.784374 308.8 33.1125Q309.84686 32.440624 311.1125 32.440624Q312.05 32.440624 312.78436 32.846874Q313.51874 33.2375 313.9875 33.8625L313.9875 28.7375L315.72186 28.7375L315.72186 43.05L314.09686 43.05ZM308.53436 37.878124Q308.53436 39.8625 309.3781 40.846874Q310.22186 41.83125 311.3625 41.83125Q312.51874 41.83125 313.3156 40.89375Q314.1281 39.95625 314.1281 38.01875Q314.1281 35.89375 313.3 34.89375Q312.4875 33.89375 311.28436 33.89375Q310.1125 33.89375 309.3156 34.8625Q308.53436 35.815624 308.53436 37.878124ZM325.47186 39.70625L327.28436 39.940624Q326.8625 41.51875 325.6906 42.409374Q324.53436 43.284374 322.72186 43.284374Q320.45624 43.284374 319.1125 41.89375Q317.78436 40.4875 317.78436 37.95625Q317.78436 35.33125 319.1281 33.89375Q320.47186 32.440624 322.6281 32.440624Q324.70624 32.440624 326.01874 33.8625Q327.34686 35.26875 327.34686 37.846874Q327.34686 38.003124 327.33124 38.315624L319.59686 38.315624Q319.6906 40.01875 320.5656 40.925Q321.4406 41.83125 322.7375 41.83125Q323.70624 41.83125 324.3781 41.33125Q325.0656 40.815624 325.47186 39.70625ZM319.6906 36.8625L325.4875 36.8625Q325.3781 35.565624 324.83124 34.909374Q323.9875 33.89375 322.64374 33.89375Q321.4406 33.89375 320.6125 34.70625Q319.78436 35.503124 319.6906 36.8625ZM336.09686 43.05L336.09686 41.7375Q335.1125 43.284374 333.1906 43.284374Q331.95624 43.284374 330.90936 42.596874Q329.8781 41.909374 329.3 40.690624Q328.7375 39.471874 328.7375 37.878124Q328.7375 36.315624 329.2531 35.05Q329.76874 33.784374 330.8 33.1125Q331.84686 32.440624 333.1125 32.440624Q334.05 32.440624 334.78436 32.846874Q335.51874 33.2375 335.9875 33.8625L335.9875 28.7375L337.72186 28.7375L337.72186 43.05L336.09686 43.05ZM330.53436 37.878124Q330.53436 39.8625 331.3781 40.846874Q332.22186 41.83125 333.3625 41.83125Q334.51874 41.83125 335.3156 40.89375Q336.1281 39.95625 336.1281 38.01875Q336.1281 35.89375 335.3 34.89375Q334.4875 33.89375 333.28436 33.89375Q332.1125 33.89375 331.3156 34.8625Q330.53436 35.815624 330.53436 37.878124Z" fill-rule="nonzero"/></svg>