<svg version="1.1" viewBox="0.0 0.0 600.0 481.0" fill="none" stroke="none" stroke-linecap="square" stroke-miterlimit="10" width="600" height="481" xmlns:xlink="http://www.w3.org/1999/xlink" xmlns="http://www.w3.org/2000/svg"><path fill="#ffffff" d="M0 0L600.0 0L600.0 481.0L0 481.0L0 0Z" fill-rule="nonzero"/><path stroke="#333333" stroke-width="1.0" stroke-linecap="butt" d="M90.5 436.5L575.5 436.5" fill-rule="nonzero"/><path stroke="#cccccc" stroke-width="1.0" stroke-linecap="butt" d="M90.5 352.5L575.5 352.5" fill-rule="nonzero"/><path stroke="#cccccc" stroke-width="1.0" stroke-linecap="butt" d="M90.5 269.5L575.5 269.5" fill-rule="nonzero"/><path stroke="#cccccc" stroke-width="1.0" stroke-linecap="butt" d="M90.5 185.5L575.5 185.5" fill-rule="nonzero"/><path stroke="#cccccc" stroke-width="1.0" stroke-linecap="butt" d="M90.5 101.5L575.5 101.5" fill-rule="nonzero"/><clipPath id="id_0"><path d="M90.05 101.11667L575.95 101.11667L575.95 436.95L90.05 436.95L90.05 101.11667Z" clip-rule="nonzero"/></clipPath><path stroke="#000000" stroke-width="2.0" stroke-linecap="butt" stroke-opacity="0.0" clip-path="url(#id_0)" d="M134.0 437.0L115.0 437.0L115.0 316.0C115.0 314.89542 115.89543 314.0 117.0 314.0L132.0 314.0C133.10457 314.0 134.0 314.89542 134.0 316.0Z" fill-rule="nonzero"/><path fill="#4f81bd" clip-path="url(#id_0)" d="M134.0 437.0L115.0 437.0L115.0 316.0C115.0 314.89542 115.89543 314.0 117.0 314.0L132.0 314.0C133.10457 314.0 134.0 314.89542 134.0 316.0Z" fill-rule="nonzero"/><path stroke="#000000" stroke-width="2.0" stroke-linecap="butt" stroke-opacity="0.0" clip-path="url(#id_0)" d="M200.0 437.0L181.0 437.0L181.0 303.0C181.0 301.89542 181.89543 301.0 183.0 301.0L198.0 301.0C199.10457 301.0 200.0 301.89542 200.0 303.0Z" fill-rule="nonzero"/><path fill="#4f81bd" clip-path="url(#id_0)" d="M200.0 437.0L181.0 437.0L181.0 303.0C181.0 301.89542 181.89543 301.0 183.0 301.0L198.0 301.0C199.10457 301.0 200.0 301.89542 200.0 303.0Z" fill-rule="nonzero"/><path stroke="#000000" stroke-width="2.0" stroke-linecap="butt" stroke-opacity="0.0" clip-path="url(#id_0)" d="M266.0 437.0L247.0 437.0L247.0 238.0C247.0 236.89543 247.89543 236.0 249.0 236.0L264.0 236.0C265.10458 236.0 266.0 236.89543 266.0 238.0Z" fill-rule="nonzero"/><path fill="#4f81bd" clip-path="url(#id_0)" d="M266.0 437.0L247.0 437.0L247.0 238.0C247.0 236.89543 247.89543 236.0 249.0 236.0L264.0 236.0C265.10458 236.0 266.0 236.89543 266.0 238.0Z" fill-rule="nonzero"/><path stroke="#000000" stroke-width="2.0" stroke-linecap="butt" stroke-opacity="0.0" clip-path="url(#id_0)" d="M332.0 437.0L313.0 437.0L313.0 324.0C313.0 322.89542 313.89542 322.0 315.0 322.0L330.0 322.0C331.10458 322.0 332.0 322.89542 332.0 324.0Z" fill-rule="nonzero"/><path fill="#4f81bd" clip-path="url(#id_0)" d="M332.0 437.0L313.0 437.0L313.0 324.0C313.0 322.89542 313.89542 322.0 315.0 322.0L330.0 322.0C331.10458 322.0 332.0 322.89542 332.0 324.0Z" fill-rule="nonzero"/><path stroke="#000000" stroke-width="2.0" stroke-linecap="butt" stroke-opacity="0.0" clip-path="url(#id_0)" d="M398.0 437.0L379.0 437.0L379.0 307.0C379.0 305.89542 379.89542 305.0 381.0 305.0L396.0 305.0C397.10458 305.0 398.0 305.89542 398.0 307.0Z" fill-rule="nonzero"/><path fill="#4f81bd" clip-path="url(#id_0)" d="M398.0 437.0L379.0 437.0L379.0 307.0C379.0 305.89542 379.89542 305.0 381.0 305.0L396.0 305.0C397.10458 305.0 398.0 305.89542 398.0 307.0Z" fill-rule="nonzero"/><path stroke="#000000" stroke-width="2.0" stroke-linecap="butt" stroke-opacity="0.0" clip-path="url(#id_0)" d="M464.0 437.0L445.0 437.0L445.0 310.0C445.0 308.89542 445.89542 308.0 447.0 308.0L462.0 308.0C463.10458 308.0 464.0 308.89542 464.0 310.0Z" fill-rule="nonzero"/><path fill="#4f81bd" clip-path="url(#id_0)" d="M464.0 437.0L445.0 437.0L445.0 310.0C445.0 308.89542 445.89542 308.0 447.0 308.0L462.0 308.0C463.10458 308.0 464.0 308.89542 464.0 310.0Z" fill-rule="nonzero"/><path stroke="#000000" stroke-width="2.0" stroke-linecap="butt" stroke-opacity="0.0" clip-path="url(#id_0)" d="M530.0 437.0L511.0 437.0L511.0 278.0C511.0 276.89542 511.89542 276.0 513.0 276.0L528.0 276.0C529.10455 276.0 530.0 276.89542 530.0 278.0Z" fill-rule="nonzero"/><path fill="#4f81bd" clip-path="url(#id_0)" d="M530.0 437.0L511.0 437.0L511.0 278.0C511.0 276.89542 511.89542 276.0 513.0 276.0L528.0 276.0C529.10455 276.0 530.0 276.89542 530.0 278.0Z" fill-rule="nonzero"/><path stroke="#000000" stroke-width="2.0" stroke-linecap="butt" stroke-opacity="0.0" clip-path="url(#id_0)" d="M155.0 437.0L136.0 437.0L136.0 162.0C136.0 160.89543 136.89543 160.0 138.0 160.0L153.0 160.0C154.10457 160.0 155.0 160.89543 155.0 162.0Z" fill-rule="nonzero"/><path fill="#c0504d" clip-path="url(#id_0)" d="M155.0 437.0L136.0 437.0L136.0 162.0C136.0 160.89543 136.89543 160.0 138.0 160.0L153.0 160.0C154.10457 160.0 155.0 160.89543 155.0 162.0Z" fill-rule="nonzero"/><path stroke="#000000" stroke-width="2.0" stroke-linecap="butt" stroke-opacity="0.0" clip-path="url(#id_0)" d="M221.0 437.0L202.0 437.0L202.0 266.0C202.0 264.89542 202.89543 264.0 204.0 264.0L219.0 264.0C220.10457 264.0 221.0 264.89542 221.0 266.0Z" fill-rule="nonzero"/><path fill="#c0504d" clip-path="url(#id_0)" d="M221.0 437.0L202.0 437.0L202.0 266.0C202.0 264.89542 202.89543 264.0 204.0 264.0L219.0 264.0C220.10457 264.0 221.0 264.89542 221.0 266.0Z" fill-rule="nonzero"/><path stroke="#000000" stroke-width="2.0" stroke-linecap="butt" stroke-opacity="0.0" clip-path="url(#id_0)" d="M287.0 437.0L268.0 437.0L268.0 177.0C268.0 175.89543 268.89542 175.0 270.0 175.0L285.0 175.0C286.10458 175.0 287.0 175.89543 287.0 177.0Z" fill-rule="nonzero"/><path fill="#c0504d" clip-path="url(#id_0)" d="M287.0 437.0L268.0 437.0L268.0 177.0C268.0 175.89543 268.89542 175.0 270.0 175.0L285.0 175.0C286.10458 175.0 287.0 175.89543 287.0 177.0Z" fill-rule="nonzero"/><path stroke="#000000" stroke-width="2.0" stroke-linecap="butt" stroke-opacity="0.0" clip-path="url(#id_0)" d="M353.0 437.0L334.0 437.0L334.0 113.0C334.0 111.89543 334.89542 111.0 336.0 111.0L351.0 111.0C352.10458 111.0 353.0 111.89543 353.0 113.0Z" fill-rule="nonzero"/><path fill="#c0504d" clip-path="url(#id_0)" d="M353.0 437.0L334.0 437.0L334.0 113.0C334.0 111.89543 334.89542 111.0 336.0 111.0L351.0 111.0C352.10458 111.0 353.0 111.89543 353.0 113.0Z" fill-rule="nonzero"/><path stroke="#000000" stroke-width="2.0" stroke-linecap="butt" stroke-opacity="0.0" clip-path="url(#id_0)" d="M419.0 437.0L400.0 437.0L400.0 254.0C400.0 252.89543 400.89542 252.0 402.0 252.0L417.0 252.0C418.10458 252.0 419.0 252.89543 419.0 254.0Z" fill-rule="nonzero"/><path fill="#c0504d" clip-path="url(#id_0)" d="M419.0 437.0L400.0 437.0L400.0 254.0C400.0 252.89543 400.89542 252.0 402.0 252.0L417.0 252.0C418.10458 252.0 419.0 252.89543 419.0 254.0Z" fill-rule="nonzero"/><path stroke="#000000" stroke-width="2.0" stroke-linecap="butt" stroke-opacity="0.0" clip-path="url(#id_0)" d="M485.0 437.0L466.0 437.0L466.0 246.0C466.0 244.89543 466.89542 244.0 468.0 244.0L483.0 244.0C484.10458 244.0 485.0 244.89543 485.0 246.0Z" fill-rule="nonzero"/><path fill="#c0504d" clip-path="url(#id_0)" d="M485.0 437.0L466.0 437.0L466.0 246.0C466.0 244.89543 466.89542 244.0 468.0 244.0L483.0 244.0C484.10458 244.0 485.0 244.89543 485.0 246.0Z" fill-rule="nonzero"/><path stroke="#000000" stroke-width="2.0" stroke-linecap="butt" stroke-opacity="0.0" clip-path="url(#id_0)" d="M551.0 437.0L532.0 437.0L532.0 186.0C532.0 184.89543 532.89545 184.0 534.0 184.0L549.0 184.0C550.10455 184.0 551.0 184.89543 551.0 186.0Z" fill-rule="nonzero"/><path fill="#c0504d" clip-path="url(#id_0)" d="M551.0 437.0L532.0 437.0L532.0 186.0C532.0 184.89543 532.89545 184.0 534.0 184.0L549.0 184.0C550.10455 184.0 551.0 184.89543 551.0 186.0Z" fill-rule="nonzero"/><path fill="#000000" d="M35.05001 283.73645L28.831263 283.73645L28.831263 282.79895L29.706263 282.79895Q29.237513 282.50208 28.971888 282.0177Q28.690638 281.53333 28.690638 280.90833Q28.690638 280.22083 28.971888 279.78333Q29.253138 279.3302 29.768763 279.15833Q28.690638 278.40833 28.690638 277.23645Q28.690638 276.29895 29.206263 275.81458Q29.706263 275.31458 30.784388 275.31458L35.05001 275.31458L35.05001 276.36145L31.128138 276.36145Q30.503138 276.36145 30.221888 276.47083Q29.940638 276.56458 29.768763 276.8302Q29.596888 277.09583 29.596888 277.47083Q29.596888 278.12708 30.034388 278.56458Q30.471888 278.98645 31.440638 278.98645L35.05001 278.98645L35.05001 280.04895L31.003138 280.04895Q30.300013 280.04895 29.956263 280.31458Q29.596888 280.56458 29.596888 281.1427Q29.596888 281.59583 29.831263 281.97083Q30.065638 282.34583 30.518763 282.5177Q30.971888 282.68958 31.815638 282.68958L35.05001 282.68958L35.05001 283.73645ZM33.190636 273.15833L33.034386 272.12708Q33.659386 272.03333 33.98751 271.6427Q34.315636 271.23645 34.315636 270.50208Q34.315636 269.78333 34.034386 269.43958Q33.73751 269.0802 33.33126 269.0802Q32.971886 269.0802 32.76876 269.3927Q32.628136 269.61145 32.409386 270.47083Q32.11251 271.62708 31.909388 272.0802Q31.690638 272.5177 31.315638 272.75208Q30.940638 272.98645 30.471888 272.98645Q30.065638 272.98645 29.706263 272.79895Q29.346888 272.61145 29.112513 272.28333Q28.940638 272.03333 28.815638 271.61145Q28.690638 271.18958 28.690638 270.68958Q28.690638 269.97083 28.909388 269.42395Q29.112513 268.86145 29.471888 268.59583Q29.831263 268.3302 30.425013 268.23645L30.565638 269.2677Q30.096888 269.3302 29.831263 269.67395Q29.550013 270.00208 29.550013 270.62708Q29.550013 271.34583 29.800013 271.65833Q30.034388 271.97083 30.362513 271.97083Q30.565638 271.97083 30.721888 271.84583Q30.893763 271.7052 31.003138 271.43958Q31.065638 271.28333 31.268763 270.50208Q31.581263 269.37708 31.768763 268.93958Q31.956263 268.50208 32.315636 268.25208Q32.67501 268.00208 33.221886 268.00208Q33.753136 268.00208 34.221886 268.31458Q34.67501 268.61145 34.940636 269.18958Q35.190636 269.7677 35.190636 270.50208Q35.190636 271.72083 34.690636 272.36145Q34.17501 272.98645 33.190636 273.15833Z" fill-rule="nonzero"/><path fill="#000000" d="M77.55 436.71564Q77.55 435.1844 77.8625 434.2625Q78.175 433.325 78.78438 432.825Q79.40938 432.325 80.34688 432.325Q81.03438 432.325 81.55 432.60626Q82.08125 432.8875 82.425 433.41876Q82.76875 433.9344 82.95625 434.6844Q83.14375 435.4344 83.14375 436.71564Q83.14375 438.23126 82.83125 439.15314Q82.53438 440.075 81.90938 440.59064Q81.3 441.09064 80.34688 441.09064Q79.1125 441.09064 78.39375 440.2Q77.55 439.1375 77.55 436.71564ZM78.62813 436.71564Q78.62813 438.825 79.12813 439.52814Q79.62813 440.23126 80.34688 440.23126Q81.08125 440.23126 81.56563 439.52814Q82.06563 438.825 82.06563 436.71564Q82.06563 434.59064 81.56563 433.90314Q81.08125 433.2 80.33125 433.2Q79.6125 433.2 79.175 433.8094Q78.62813 434.59064 78.62813 436.71564Z" fill-rule="nonzero"/><path fill="#000000" d="M69.09688 355.97604L69.09688 356.99167L63.409374 356.99167Q63.409374 356.61667 63.534374 356.2573Q63.753124 355.67917 64.22188 355.11667Q64.70625 354.55417 65.6125 353.8198Q67.01875 352.66354 67.50313 351.99167Q68.00313 351.3198 68.00313 350.72604Q68.00313 350.10104 67.55 349.67917Q67.09688 349.24167 66.37813 349.24167Q65.6125 349.24167 65.15938 349.6948Q64.70625 350.14792 64.69063 350.96042L63.6125 350.85104Q63.721874 349.6323 64.44063 349.0073Q65.175 348.36667 66.40938 348.36667Q67.64375 348.36667 68.3625 349.05417Q69.08125 349.74167 69.08125 350.7573Q69.08125 351.27292 68.8625 351.77292Q68.65938 352.2573 68.15938 352.8198Q67.675 353.36667 66.55 354.3198Q65.59688 355.11667 65.31563 355.41354Q65.05 355.6948 64.87813 355.97604L69.09688 355.97604ZM70.55 354.74167L71.65938 354.64792Q71.78438 355.46042 72.22188 355.86667Q72.675 356.27292 73.31563 356.27292Q74.06563 356.27292 74.59688 355.6948Q75.12813 355.11667 75.12813 354.17917Q75.12813 353.27292 74.6125 352.7573Q74.1125 352.22604 73.28438 352.22604Q72.78438 352.22604 72.3625 352.46042Q71.95625 352.6948 71.72188 353.05417L70.7375 352.92917L71.56563 348.52292L75.84688 348.52292L75.84688 349.52292L72.40938 349.52292L71.95625 351.83542Q72.72188 351.28854 73.56563 351.28854Q74.69063 351.28854 75.45625 352.0698Q76.2375 352.85104 76.2375 354.08542Q76.2375 355.24167 75.56563 356.10104Q74.7375 357.1323 73.31563 357.1323Q72.14375 357.1323 71.39375 356.47604Q70.65938 355.8198 70.55 354.74167ZM77.55 352.7573Q77.55 351.22604 77.8625 350.30417Q78.175 349.36667 78.78438 348.86667Q79.40938 348.36667 80.34688 348.36667Q81.03438 348.36667 81.55 348.64792Q82.08125 348.92917 82.425 349.46042Q82.76875 349.97604 82.95625 350.72604Q83.14375 351.47604 83.14375 352.7573Q83.14375 354.27292 82.83125 355.1948Q82.53438 356.11667 81.90938 356.6323Q81.3 357.1323 80.34688 357.1323Q79.1125 357.1323 78.39375 356.24167Q77.55 355.17917 77.55 352.7573ZM78.62813 352.7573Q78.62813 354.86667 79.12813 355.5698Q79.62813 356.27292 80.34688 356.27292Q81.08125 356.27292 81.56563 355.5698Q82.06563 354.86667 82.06563 352.7573Q82.06563 350.6323 81.56563 349.9448Q81.08125 349.24167 80.33125 349.24167Q79.6125 349.24167 79.175 349.85104Q78.62813 350.6323 78.62813 352.7573Z" fill-rule="nonzero"/><path fill="#000000" d="M63.55 270.78333L64.65938 270.68958Q64.78438 271.50208 65.22188 271.90833Q65.675 272.31458 66.31563 272.31458Q67.06563 272.31458 67.59688 271.73645Q68.12813 271.15833 68.12813 270.22083Q68.12813 269.31458 67.6125 268.79895Q67.1125 268.2677 66.28438 268.2677Q65.78438 268.2677 65.3625 268.50208Q64.95625 268.73645 64.72188 269.09583L63.7375 268.97083L64.56563 264.56458L68.84688 264.56458L68.84688 265.56458L65.40938 265.56458L64.95625 267.87708Q65.72188 267.3302 66.56563 267.3302Q67.69063 267.3302 68.45625 268.11145Q69.2375 268.8927 69.2375 270.12708Q69.2375 271.28333 68.56563 272.1427Q67.7375 273.17395 66.31563 273.17395Q65.14375 273.17395 64.39375 272.5177Q63.659374 271.86145 63.55 270.78333ZM70.55 268.79895Q70.55 267.2677 70.8625 266.34583Q71.175 265.40833 71.78438 264.90833Q72.40938 264.40833 73.34688 264.40833Q74.03438 264.40833 74.55 264.68958Q75.08125 264.97083 75.425 265.50208Q75.76875 266.0177 75.95625 266.7677Q76.14375 267.5177 76.14375 268.79895Q76.14375 270.31458 75.83125 271.23645Q75.53438 272.15833 74.90938 272.67395Q74.3 273.17395 73.34688 273.17395Q72.1125 273.17395 71.39375 272.28333Q70.55 271.22083 70.55 268.79895ZM71.62813 268.79895Q71.62813 270.90833 72.12813 271.61145Q72.62813 272.31458 73.34688 272.31458Q74.08125 272.31458 74.56563 271.61145Q75.06563 270.90833 75.06563 268.79895Q75.06563 266.67395 74.56563 265.98645Q74.08125 265.28333 73.33125 265.28333Q72.6125 265.28333 72.175 265.8927Q71.62813 266.67395 71.62813 268.79895ZM77.55 268.79895Q77.55 267.2677 77.8625 266.34583Q78.175 265.40833 78.78438 264.90833Q79.40938 264.40833 80.34688 264.40833Q81.03438 264.40833 81.55 264.68958Q82.08125 264.97083 82.425 265.50208Q82.76875 266.0177 82.95625 266.7677Q83.14375 267.5177 83.14375 268.79895Q83.14375 270.31458 82.83125 271.23645Q82.53438 272.15833 81.90938 272.67395Q81.3 273.17395 80.34688 273.17395Q79.1125 273.17395 78.39375 272.28333Q77.55 271.22083 77.55 268.79895ZM78.62813 268.79895Q78.62813 270.90833 79.12813 271.61145Q79.62813 272.31458 80.34688 272.31458Q81.08125 272.31458 81.56563 271.61145Q82.06563 270.90833 82.06563 268.79895Q82.06563 266.67395 81.56563 265.98645Q81.08125 265.28333 80.33125 265.28333Q79.6125 265.28333 79.175 265.8927Q78.62813 266.67395 78.62813 268.79895Z" fill-rule="nonzero"/><path fill="#000000" d="M63.6125 181.60625L63.6125 180.59062L69.175 180.59062L69.175 181.41875Q68.3625 182.29375 67.55 183.74687Q66.75313 185.18437 66.31563 186.71562Q65.9875 187.79375 65.90938 189.075L64.81563 189.075Q64.83125 188.05937 65.20625 186.62187Q65.59688 185.18437 66.3 183.85625Q67.01875 182.52812 67.83125 181.60625L63.6125 181.60625ZM70.55 186.825L71.65938 186.73125Q71.78438 187.54375 72.22188 187.95Q72.675 188.35625 73.31563 188.35625Q74.06563 188.35625 74.59688 187.77812Q75.12813 187.2 75.12813 186.2625Q75.12813 185.35625 74.6125 184.84062Q74.1125 184.30937 73.28438 184.30937Q72.78438 184.30937 72.3625 184.54375Q71.95625 184.77812 71.72188 185.1375L70.7375 185.0125L71.56563 180.60625L75.84688 180.60625L75.84688 181.60625L72.40938 181.60625L71.95625 183.91875Q72.72188 183.37187 73.56563 183.37187Q74.69063 183.37187 75.45625 184.15312Q76.2375 184.93437 76.2375 186.16875Q76.2375 187.325 75.56563 188.18437Q74.7375 189.21562 73.31563 189.21562Q72.14375 189.21562 71.39375 188.55937Q70.65938 187.90312 70.55 186.825ZM77.55 184.84062Q77.55 183.30937 77.8625 182.3875Q78.175 181.45 78.78438 180.95Q79.40938 180.45 80.34688 180.45Q81.03438 180.45 81.55 180.73125Q82.08125 181.0125 82.425 181.54375Q82.76875 182.05937 82.95625 182.80937Q83.14375 183.55937 83.14375 184.84062Q83.14375 186.35625 82.83125 187.27812Q82.53438 188.2 81.90938 188.71562Q81.3 189.21562 80.34688 189.21562Q79.1125 189.21562 78.39375 188.325Q77.55 187.2625 77.55 184.84062ZM78.62813 184.84062Q78.62813 186.95 79.12813 187.65312Q79.62813 188.35625 80.34688 188.35625Q81.08125 188.35625 81.56563 187.65312Q82.06563 186.95 82.06563 184.84062Q82.06563 182.71562 81.56563 182.02812Q81.08125 181.325 80.33125 181.325Q79.6125 181.325 79.175 181.93437Q78.62813 182.71562 78.62813 184.84062Z" fill-rule="nonzero"/><path fill="#000000" d="M60.51875 105.11667L59.471874 105.11667L59.471874 98.39792Q59.08125 98.75729 58.45625 99.13229Q57.846874 99.49167 57.3625 99.66354L57.3625 98.64792Q58.2375 98.22604 58.89375 97.64792Q59.565624 97.05417 59.846874 96.49167L60.51875 96.49167L60.51875 105.11667ZM63.55 100.88229Q63.55 99.35104 63.8625 98.42917Q64.175 97.49167 64.78438 96.99167Q65.40938 96.49167 66.34688 96.49167Q67.03438 96.49167 67.55 96.77292Q68.08125 97.05417 68.425 97.58542Q68.76875 98.10104 68.95625 98.85104Q69.14375 99.60104 69.14375 100.88229Q69.14375 102.39792 68.83125 103.31979Q68.53438 104.24167 67.90938 104.75729Q67.3 105.25729 66.34688 105.25729Q65.1125 105.25729 64.39375 104.36667Q63.55 103.30417 63.55 100.88229ZM64.62813 100.88229Q64.62813 102.99167 65.12813 103.69479Q65.62813 104.39792 66.34688 104.39792Q67.08125 104.39792 67.56563 103.69479Q68.06563 102.99167 68.06563 100.88229Q68.06563 98.75729 67.56563 98.06979Q67.08125 97.36667 66.33125 97.36667Q65.6125 97.36667 65.175 97.97604Q64.62813 98.75729 64.62813 100.88229ZM70.55 100.88229Q70.55 99.35104 70.8625 98.42917Q71.175 97.49167 71.78438 96.99167Q72.40938 96.49167 73.34688 96.49167Q74.03438 96.49167 74.55 96.77292Q75.08125 97.05417 75.425 97.58542Q75.76875 98.10104 75.95625 98.85104Q76.14375 99.60104 76.14375 100.88229Q76.14375 102.39792 75.83125 103.31979Q75.53438 104.24167 74.90938 104.75729Q74.3 105.25729 73.34688 105.25729Q72.1125 105.25729 71.39375 104.36667Q70.55 103.30417 70.55 100.88229ZM71.62813 100.88229Q71.62813 102.99167 72.12813 103.69479Q72.62813 104.39792 73.34688 104.39792Q74.08125 104.39792 74.56563 103.69479Q75.06563 102.99167 75.06563 100.88229Q75.06563 98.75729 74.56563 98.06979Q74.08125 97.36667 73.33125 97.36667Q72.6125 97.36667 72.175 97.97604Q71.62813 98.75729 71.62813 100.88229ZM77.55 100.88229Q77.55 99.35104 77.8625 98.42917Q78.175 97.49167 78.78438 96.99167Q79.40938 96.49167 80.34688 96.49167Q81.03438 96.49167 81.55 96.77292Q82.08125 97.05417 82.425 97.58542Q82.76875 98.10104 82.95625 98.85104Q83.14375 99.60104 83.14375 100.88229Q83.14375 102.39792 82.83125 103.31979Q82.53438 104.24167 81.90938 104.75729Q81.3 105.25729 80.34688 105.25729Q79.1125 105.25729 78.39375 104.36667Q77.55 103.30417 77.55 100.88229ZM78.62813 100.88229Q78.62813 102.99167 79.12813 103.69479Q79.62813 104.39792 80.34688 104.39792Q81.08125 104.39792 81.56563 103.69479Q82.06563 102.99167 82.06563 100.88229Q82.06563 98.75729 81.56563 98.06979Q81.08125 97.36667 80.33125 97.36667Q79.6125 97.36667 79.175 97.97604Q78.62813 98.75729 78.62813 100.88229Z" fill-rule="nonzero"/><path fill="#000000" d="M121.970345 446.575L121.970345 445.35626L123.032845 445.35626L123.032845 446.575L121.970345 446.575ZM121.970345 453.95L121.970345 447.73126L123.032845 447.73126L123.032845 453.95L121.970345 453.95ZM127.26722 453.0125L127.42347 453.9344Q126.970345 454.02814 126.626595 454.02814Q126.04847 454.02814 125.73597 453.85626Q125.42347 453.66876 125.282845 453.3719Q125.157845 453.075 125.157845 452.1219L125.157845 448.54376L124.39222 448.54376L124.39222 447.73126L125.157845 447.73126L125.157845 446.1844L126.20472 445.5594L126.20472 447.73126L127.26722 447.73126L127.26722 448.54376L126.20472 448.54376L126.20472 452.1844Q126.20472 452.6375 126.251595 452.7625Q126.314095 452.8875 126.439095 452.96564Q126.564095 453.04376 126.79847 453.04376Q126.98597 453.04376 127.26722 453.0125ZM132.22034 451.95L133.31409 452.075Q133.06409 453.02814 132.36096 453.5594Q131.65784 454.09064 130.57971 454.09064Q129.22034 454.09064 128.40784 453.2469Q127.61097 452.40314 127.61097 450.8875Q127.61097 449.325 128.42346 448.46564Q129.23596 447.59064 130.51721 447.59064Q131.76721 447.59064 132.54846 448.4344Q133.34534 449.27814 133.34534 450.825Q133.34534 450.91876 133.34534 451.10626L128.70471 451.10626Q128.76721 452.1375 129.28284 452.6844Q129.79846 453.21564 130.57971 453.21564Q131.15784 453.21564 131.56409 452.91876Q131.98596 452.60626 132.22034 451.95ZM128.76721 450.2469L132.23596 450.2469Q132.17346 449.45 131.84534 449.0594Q131.32971 448.45 130.53284 448.45Q129.79846 448.45 129.29846 448.9344Q128.81409 449.41876 128.76721 450.2469ZM134.95471 453.95L134.95471 447.73126L135.90784 447.73126L135.90784 448.66876Q136.26721 448.0125 136.56409 447.8094Q136.87659 447.59064 137.25159 447.59064Q137.78284 447.59064 138.32971 447.91876L137.97034 448.90314Q137.57971 448.66876 137.20471 448.66876Q136.84534 448.66876 136.56409 448.8875Q136.29846 449.09064 136.18909 449.46564Q136.00159 450.02814 136.00159 450.6844L136.00159 453.95L134.95471 453.95ZM145.64221 453.95L144.59534 453.95L144.59534 447.23126Q144.20471 447.59064 143.57971 447.96564Q142.97034 448.325 142.48596 448.4969L142.48596 447.48126Q143.36096 447.0594 144.01721 446.48126Q144.68909 445.8875 144.97034 445.325L145.64221 445.325L145.64221 453.95Z" fill-rule="nonzero"/><path fill="#000000" d="M188.0792 446.575L188.0792 445.35626L189.1417 445.35626L189.1417 446.575L188.0792 446.575ZM188.0792 453.95L188.0792 447.73126L189.1417 447.73126L189.1417 453.95L188.0792 453.95ZM193.37607 453.0125L193.53232 453.9344Q193.0792 454.02814 192.73544 454.02814Q192.15732 454.02814 191.84482 453.85626Q191.53232 453.66876 191.3917 453.3719Q191.2667 453.075 191.2667 452.1219L191.2667 448.54376L190.50107 448.54376L190.50107 447.73126L191.2667 447.73126L191.2667 446.1844L192.31357 445.5594L192.31357 447.73126L193.37607 447.73126L193.37607 448.54376L192.31357 448.54376L192.31357 452.1844Q192.31357 452.6375 192.36044 452.7625Q192.42294 452.8875 192.54794 452.96564Q192.67294 453.04376 192.90732 453.04376Q193.09482 453.04376 193.37607 453.0125ZM198.3292 451.95L199.42294 452.075Q199.17294 453.02814 198.46982 453.5594Q197.7667 454.09064 196.68857 454.09064Q195.3292 454.09064 194.5167 453.2469Q193.71982 452.40314 193.71982 450.8875Q193.71982 449.325 194.53232 448.46564Q195.34482 447.59064 196.62607 447.59064Q197.87607 447.59064 198.65732 448.4344Q199.4542 449.27814 199.4542 450.825Q199.4542 450.91876 199.4542 451.10626L194.81357 451.10626Q194.87607 452.1375 195.3917 452.6844Q195.90732 453.21564 196.68857 453.21564Q197.2667 453.21564 197.67294 452.91876Q198.09482 452.60626 198.3292 451.95ZM194.87607 450.2469L198.34482 450.2469Q198.28232 449.45 197.9542 449.0594Q197.43857 448.45 196.6417 448.45Q195.90732 448.45 195.40732 448.9344Q194.92294 449.41876 194.87607 450.2469ZM201.06357 453.95L201.06357 447.73126L202.0167 447.73126L202.0167 448.66876Q202.37607 448.0125 202.67294 447.8094Q202.98544 447.59064 203.36044 447.59064Q203.8917 447.59064 204.43857 447.91876L204.0792 448.90314Q203.68857 448.66876 203.31357 448.66876Q202.9542 448.66876 202.67294 448.8875Q202.40732 449.09064 202.29794 449.46564Q202.11044 450.02814 202.11044 450.6844L202.11044 453.95L201.06357 453.95ZM213.3292 452.9344L213.3292 453.95L207.6417 453.95Q207.6417 453.575 207.7667 453.21564Q207.98544 452.6375 208.4542 452.075Q208.93857 451.5125 209.84482 450.77814Q211.25107 449.6219 211.73544 448.95Q212.23544 448.27814 212.23544 447.6844Q212.23544 447.0594 211.78232 446.6375Q211.3292 446.2 210.61044 446.2Q209.84482 446.2 209.3917 446.65314Q208.93857 447.10626 208.92294 447.91876L207.84482 447.8094Q207.9542 446.59064 208.67294 445.96564Q209.40732 445.325 210.6417 445.325Q211.87607 445.325 212.59482 446.0125Q213.31357 446.7 213.31357 447.71564Q213.31357 448.23126 213.09482 448.73126Q212.8917 449.21564 212.3917 449.77814Q211.90732 450.325 210.78232 451.27814Q209.8292 452.075 209.54794 452.3719Q209.28232 452.65314 209.11044 452.9344L213.3292 452.9344Z" fill-rule="nonzero"/><path fill="#000000" d="M254.18803 446.575L254.18803 445.35626L255.25053 445.35626L255.25053 446.575L254.18803 446.575ZM254.18803 453.95L254.18803 447.73126L255.25053 447.73126L255.25053 453.95L254.18803 453.95ZM259.48492 453.0125L259.64117 453.9344Q259.18805 454.02814 258.8443 454.02814Q258.26617 454.02814 257.95367 453.85626Q257.64117 453.66876 257.50055 453.3719Q257.37555 453.075 257.37555 452.1219L257.37555 448.54376L256.60992 448.54376L256.60992 447.73126L257.37555 447.73126L257.37555 446.1844L258.42242 445.5594L258.42242 447.73126L259.48492 447.73126L259.48492 448.54376L258.42242 448.54376L258.42242 452.1844Q258.42242 452.6375 258.4693 452.7625Q258.5318 452.8875 258.6568 452.96564Q258.7818 453.04376 259.01617 453.04376Q259.20367 453.04376 259.48492 453.0125ZM264.43805 451.95L265.5318 452.075Q265.2818 453.02814 264.57867 453.5594Q263.87555 454.09064 262.79742 454.09064Q261.43805 454.09064 260.62555 453.2469Q259.82867 452.40314 259.82867 450.8875Q259.82867 449.325 260.64117 448.46564Q261.45367 447.59064 262.73492 447.59064Q263.98492 447.59064 264.76617 448.4344Q265.56305 449.27814 265.56305 450.825Q265.56305 450.91876 265.56305 451.10626L260.92242 451.10626Q260.98492 452.1375 261.50055 452.6844Q262.01617 453.21564 262.79742 453.21564Q263.37555 453.21564 263.7818 452.91876Q264.20367 452.60626 264.43805 451.95ZM260.98492 450.2469L264.45367 450.2469Q264.39117 449.45 264.06305 449.0594Q263.54742 448.45 262.75055 448.45Q262.01617 448.45 261.51617 448.9344Q261.0318 449.41876 260.98492 450.2469ZM267.17242 453.95L267.17242 447.73126L268.12555 447.73126L268.12555 448.66876Q268.48492 448.0125 268.7818 447.8094Q269.0943 447.59064 269.4693 447.59064Q270.00055 447.59064 270.54742 447.91876L270.18805 448.90314Q269.79742 448.66876 269.42242 448.66876Q269.06305 448.66876 268.7818 448.8875Q268.51617 449.09064 268.4068 449.46564Q268.2193 450.02814 268.2193 450.6844L268.2193 453.95L267.17242 453.95ZM273.89117 451.6844L274.95367 451.54376Q275.12555 452.4344 275.56305 452.84064Q276.00055 453.23126 276.62555 453.23126Q277.37555 453.23126 277.89117 452.71564Q278.4068 452.2 278.4068 451.4344Q278.4068 450.71564 277.92242 450.2469Q277.45367 449.7625 276.7193 449.7625Q276.42242 449.7625 275.9693 449.8875L276.0943 448.95Q276.20367 448.96564 276.26617 448.96564Q276.93805 448.96564 277.4693 448.6219Q278.01617 448.2625 278.01617 447.52814Q278.01617 446.95 277.62555 446.575Q277.23492 446.1844 276.60992 446.1844Q276.00055 446.1844 275.57867 446.575Q275.17242 446.96564 275.06305 447.73126L274.00055 447.54376Q274.18805 446.4969 274.87555 445.91876Q275.56305 445.325 276.57867 445.325Q277.2818 445.325 277.87555 445.6375Q278.4693 445.9344 278.7818 446.45Q279.0943 446.96564 279.0943 447.5594Q279.0943 448.10626 278.79742 448.575Q278.50055 449.02814 277.92242 449.29376Q278.67242 449.46564 279.0943 450.02814Q279.51617 450.575 279.51617 451.41876Q279.51617 452.54376 278.68805 453.325Q277.87555 454.10626 276.62555 454.10626Q275.50055 454.10626 274.75055 453.4344Q274.00055 452.7469 273.89117 451.6844Z" fill-rule="nonzero"/><path fill="#000000" d="M320.29688 446.575L320.29688 445.35626L321.35938 445.35626L321.35938 446.575L320.29688 446.575ZM320.29688 453.95L320.29688 447.73126L321.35938 447.73126L321.35938 453.95L320.29688 453.95ZM325.59375 453.0125L325.75 453.9344Q325.29688 454.02814 324.95312 454.02814Q324.375 454.02814 324.0625 453.85626Q323.75 453.66876 323.60938 453.3719Q323.48438 453.075 323.48438 452.1219L323.48438 448.54376L322.71875 448.54376L322.71875 447.73126L323.48438 447.73126L323.48438 446.1844L324.53125 445.5594L324.53125 447.73126L325.59375 447.73126L325.59375 448.54376L324.53125 448.54376L324.53125 452.1844Q324.53125 452.6375 324.57812 452.7625Q324.64062 452.8875 324.76562 452.96564Q324.89062 453.04376 325.125 453.04376Q325.3125 453.04376 325.59375 453.0125ZM330.54688 451.95L331.64062 452.075Q331.39062 453.02814 330.6875 453.5594Q329.98438 454.09064 328.90625 454.09064Q327.54688 454.09064 326.73438 453.2469Q325.9375 452.40314 325.9375 450.8875Q325.9375 449.325 326.75 448.46564Q327.5625 447.59064 328.84375 447.59064Q330.09375 447.59064 330.875 448.4344Q331.67188 449.27814 331.67188 450.825Q331.67188 450.91876 331.67188 451.10626L327.03125 451.10626Q327.09375 452.1375 327.60938 452.6844Q328.125 453.21564 328.90625 453.21564Q329.48438 453.21564 329.89062 452.91876Q330.3125 452.60626 330.54688 451.95ZM327.09375 450.2469L330.5625 450.2469Q330.5 449.45 330.17188 449.0594Q329.65625 448.45 328.85938 448.45Q328.125 448.45 327.625 448.9344Q327.14062 449.41876 327.09375 450.2469ZM333.28125 453.95L333.28125 447.73126L334.23438 447.73126L334.23438 448.66876Q334.59375 448.0125 334.89062 447.8094Q335.20312 447.59064 335.57812 447.59064Q336.10938 447.59064 336.65625 447.91876L336.29688 448.90314Q335.90625 448.66876 335.53125 448.66876Q335.17188 448.66876 334.89062 448.8875Q334.625 449.09064 334.51562 449.46564Q334.32812 450.02814 334.32812 450.6844L334.32812 453.95L333.28125 453.95ZM343.375 453.95L343.375 451.8875L339.65625 451.8875L339.65625 450.91876L343.57812 445.35626L344.4375 445.35626L344.4375 450.91876L345.59375 450.91876L345.59375 451.8875L344.4375 451.8875L344.4375 453.95L343.375 453.95ZM343.375 450.91876L343.375 447.0594L340.6875 450.91876L343.375 450.91876Z" fill-rule="nonzero"/><path fill="#000000" d="M386.40573 446.575L386.40573 445.35626L387.46823 445.35626L387.46823 446.575L386.40573 446.575ZM386.40573 453.95L386.40573 447.73126L387.46823 447.73126L387.46823 453.95L386.40573 453.95ZM391.7026 453.0125L391.85886 453.9344Q391.40573 454.02814 391.06198 454.02814Q390.48386 454.02814 390.17136 453.85626Q389.85886 453.66876 389.71823 453.3719Q389.59323 453.075 389.59323 452.1219L389.59323 448.54376L388.8276 448.54376L388.8276 447.73126L389.59323 447.73126L389.59323 446.1844L390.6401 445.5594L390.6401 447.73126L391.7026 447.73126L391.7026 448.54376L390.6401 448.54376L390.6401 452.1844Q390.6401 452.6375 390.68698 452.7625Q390.74948 452.8875 390.87448 452.96564Q390.99948 453.04376 391.23386 453.04376Q391.42136 453.04376 391.7026 453.0125ZM396.65573 451.95L397.74948 452.075Q397.49948 453.02814 396.79636 453.5594Q396.09323 454.09064 395.0151 454.09064Q393.65573 454.09064 392.84323 453.2469Q392.04636 452.40314 392.04636 450.8875Q392.04636 449.325 392.85886 448.46564Q393.67136 447.59064 394.9526 447.59064Q396.2026 447.59064 396.98386 448.4344Q397.78073 449.27814 397.78073 450.825Q397.78073 450.91876 397.78073 451.10626L393.1401 451.10626Q393.2026 452.1375 393.71823 452.6844Q394.23386 453.21564 395.0151 453.21564Q395.59323 453.21564 395.99948 452.91876Q396.42136 452.60626 396.65573 451.95ZM393.2026 450.2469L396.67136 450.2469Q396.60886 449.45 396.28073 449.0594Q395.7651 448.45 394.96823 448.45Q394.23386 448.45 393.73386 448.9344Q393.24948 449.41876 393.2026 450.2469ZM399.3901 453.95L399.3901 447.73126L400.34323 447.73126L400.34323 448.66876Q400.7026 448.0125 400.99948 447.8094Q401.31198 447.59064 401.68698 447.59064Q402.21823 447.59064 402.7651 447.91876L402.40573 448.90314Q402.0151 448.66876 401.6401 448.66876Q401.28073 448.66876 400.99948 448.8875Q400.73386 449.09064 400.62448 449.46564Q400.43698 450.02814 400.43698 450.6844L400.43698 453.95L399.3901 453.95ZM406.10886 451.7L407.21823 451.60626Q407.34323 452.41876 407.78073 452.825Q408.23386 453.23126 408.87448 453.23126Q409.62448 453.23126 410.15573 452.65314Q410.68698 452.075 410.68698 451.1375Q410.68698 450.23126 410.17136 449.71564Q409.67136 449.1844 408.84323 449.1844Q408.34323 449.1844 407.92136 449.41876Q407.5151 449.65314 407.28073 450.0125L406.29636 449.8875L407.12448 445.48126L411.40573 445.48126L411.40573 446.48126L407.96823 446.48126L407.5151 448.79376Q408.28073 448.2469 409.12448 448.2469Q410.24948 448.2469 411.0151 449.02814Q411.79636 449.8094 411.79636 451.04376Q411.79636 452.2 411.12448 453.0594Q410.29636 454.09064 408.87448 454.09064Q407.7026 454.09064 406.9526 453.4344Q406.21823 452.77814 406.10886 451.7Z" fill-rule="nonzero"/><path fill="#000000" d="M452.51456 446.575L452.51456 445.35626L453.57706 445.35626L453.57706 446.575L452.51456 446.575ZM452.51456 453.95L452.51456 447.73126L453.57706 447.73126L453.57706 453.95L452.51456 453.95ZM457.81143 453.0125L457.96768 453.9344Q457.51456 454.02814 457.1708 454.02814Q456.59268 454.02814 456.28018 453.85626Q455.96768 453.66876 455.82706 453.3719Q455.70206 453.075 455.70206 452.1219L455.70206 448.54376L454.93643 448.54376L454.93643 447.73126L455.70206 447.73126L455.70206 446.1844L456.74893 445.5594L456.74893 447.73126L457.81143 447.73126L457.81143 448.54376L456.74893 448.54376L456.74893 452.1844Q456.74893 452.6375 456.7958 452.7625Q456.8583 452.8875 456.9833 452.96564Q457.1083 453.04376 457.34268 453.04376Q457.53018 453.04376 457.81143 453.0125ZM462.76456 451.95L463.8583 452.075Q463.6083 453.02814 462.90518 453.5594Q462.20206 454.09064 461.12393 454.09064Q459.76456 454.09064 458.95206 453.2469Q458.15518 452.40314 458.15518 450.8875Q458.15518 449.325 458.96768 448.46564Q459.78018 447.59064 461.06143 447.59064Q462.31143 447.59064 463.09268 448.4344Q463.88956 449.27814 463.88956 450.825Q463.88956 450.91876 463.88956 451.10626L459.24893 451.10626Q459.31143 452.1375 459.82706 452.6844Q460.34268 453.21564 461.12393 453.21564Q461.70206 453.21564 462.1083 452.91876Q462.53018 452.60626 462.76456 451.95ZM459.31143 450.2469L462.78018 450.2469Q462.71768 449.45 462.38956 449.0594Q461.87393 448.45 461.07706 448.45Q460.34268 448.45 459.84268 448.9344Q459.3583 449.41876 459.31143 450.2469ZM465.49893 453.95L465.49893 447.73126L466.45206 447.73126L466.45206 448.66876Q466.81143 448.0125 467.1083 447.8094Q467.4208 447.59064 467.7958 447.59064Q468.32706 447.59064 468.87393 447.91876L468.51456 448.90314Q468.12393 448.66876 467.74893 448.66876Q467.38956 448.66876 467.1083 448.8875Q466.84268 449.09064 466.7333 449.46564Q466.5458 450.02814 466.5458 450.6844L466.5458 453.95L465.49893 453.95ZM477.68643 447.46564L476.63956 447.54376Q476.49893 446.91876 476.24893 446.6375Q475.81143 446.1844 475.18643 446.1844Q474.68643 446.1844 474.2958 446.46564Q473.81143 446.84064 473.51456 447.54376Q473.2333 448.23126 473.21768 449.5125Q473.59268 448.9344 474.13956 448.65314Q474.70206 448.3719 475.31143 448.3719Q476.3583 448.3719 477.09268 449.15314Q477.84268 449.9344 477.84268 451.15314Q477.84268 451.96564 477.4833 452.66876Q477.13956 453.35626 476.53018 453.73126Q475.9208 454.09064 475.15518 454.09064Q473.82706 454.09064 472.99893 453.1219Q472.1708 452.15314 472.1708 449.9344Q472.1708 447.4344 473.09268 446.3094Q473.88956 445.325 475.24893 445.325Q476.26456 445.325 476.90518 445.90314Q477.56143 446.46564 477.68643 447.46564ZM473.38956 451.16876Q473.38956 451.71564 473.6083 452.21564Q473.84268 452.7 474.24893 452.96564Q474.6708 453.23126 475.13956 453.23126Q475.7958 453.23126 476.28018 452.7Q476.76456 452.15314 476.76456 451.23126Q476.76456 450.34064 476.28018 449.825Q475.81143 449.3094 475.09268 449.3094Q474.37393 449.3094 473.87393 449.825Q473.38956 450.34064 473.38956 451.16876Z" fill-rule="nonzero"/><path fill="#000000" d="M510.1234 446.575L510.1234 445.35626L511.1859 445.35626L511.1859 446.575L510.1234 446.575ZM510.1234 453.95L510.1234 447.73126L511.1859 447.73126L511.1859 453.95L510.1234 453.95ZM515.4203 453.0125L515.57654 453.9344Q515.1234 454.02814 514.77966 454.02814Q514.20154 454.02814 513.88904 453.85626Q513.57654 453.66876 513.4359 453.3719Q513.3109 453.075 513.3109 452.1219L513.3109 448.54376L512.5453 448.54376L512.5453 447.73126L513.3109 447.73126L513.3109 446.1844L514.3578 445.5594L514.3578 447.73126L515.4203 447.73126L515.4203 448.54376L514.3578 448.54376L514.3578 452.1844Q514.3578 452.6375 514.40466 452.7625Q514.46716 452.8875 514.59216 452.96564Q514.71716 453.04376 514.95154 453.04376Q515.13904 453.04376 515.4203 453.0125ZM520.3734 451.95L521.46716 452.075Q521.21716 453.02814 520.51404 453.5594Q519.8109 454.09064 518.7328 454.09064Q517.3734 454.09064 516.5609 453.2469Q515.76404 452.40314 515.76404 450.8875Q515.76404 449.325 516.57654 448.46564Q517.38904 447.59064 518.6703 447.59064Q519.9203 447.59064 520.70154 448.4344Q521.4984 449.27814 521.4984 450.825Q521.4984 450.91876 521.4984 451.10626L516.8578 451.10626Q516.9203 452.1375 517.4359 452.6844Q517.95154 453.21564 518.7328 453.21564Q519.3109 453.21564 519.71716 452.91876Q520.13904 452.60626 520.3734 451.95ZM516.9203 450.2469L520.38904 450.2469Q520.32654 449.45 519.9984 449.0594Q519.4828 448.45 518.6859 448.45Q517.95154 448.45 517.45154 448.9344Q516.96716 449.41876 516.9203 450.2469ZM523.1078 453.95L523.1078 447.73126L524.0609 447.73126L524.0609 448.66876Q524.4203 448.0125 524.71716 447.8094Q525.02966 447.59064 525.40466 447.59064Q525.9359 447.59064 526.4828 447.91876L526.1234 448.90314Q525.7328 448.66876 525.3578 448.66876Q524.9984 448.66876 524.71716 448.8875Q524.45154 449.09064 524.34216 449.46564Q524.15466 450.02814 524.15466 450.6844L524.15466 453.95L523.1078 453.95ZM530.09216 453.95L530.09216 445.35626L531.15466 445.35626L531.15466 453.95L530.09216 453.95ZM532.7328 450.84064Q532.7328 449.10626 533.6859 448.27814Q534.4828 447.59064 535.63904 447.59064Q536.9203 447.59064 537.7328 448.4344Q538.5609 449.2625 538.5609 450.7469Q538.5609 451.95 538.20154 452.6375Q537.84216 453.325 537.13904 453.71564Q536.45154 454.09064 535.63904 454.09064Q534.34216 454.09064 533.52966 453.2625Q532.7328 452.41876 532.7328 450.84064ZM533.8109 450.84064Q533.8109 452.02814 534.32654 452.6219Q534.8578 453.21564 535.63904 453.21564Q536.4359 453.21564 536.95154 452.6219Q537.46716 452.02814 537.46716 450.8094Q537.46716 449.65314 536.9359 449.0594Q536.4203 448.46564 535.63904 448.46564Q534.8578 448.46564 534.32654 449.0594Q533.8109 449.6375 533.8109 450.84064ZM540.1234 453.95L540.1234 447.73126L541.0609 447.73126L541.0609 448.60626Q541.7484 447.59064 543.0453 447.59064Q543.6078 447.59064 544.07654 447.79376Q544.5609 447.9969 544.7953 448.325Q545.02966 448.65314 545.1234 449.09064Q545.1703 449.3875 545.1703 450.1219L545.1703 453.95L544.1234 453.95L544.1234 450.16876Q544.1234 449.5125 543.9984 449.2Q543.8734 448.8875 543.5609 448.7Q543.2484 448.4969 542.82654 448.4969Q542.15466 448.4969 541.65466 448.9344Q541.1703 449.35626 541.1703 450.54376L541.1703 453.95L540.1234 453.95ZM546.9203 454.46564L547.95154 454.6219Q548.01404 455.09064 548.3109 455.3094Q548.70154 455.60626 549.3734 455.60626Q550.1078 455.60626 550.4984 455.3094Q550.90466 455.0125 551.0453 454.4969Q551.13904 454.16876 551.1234 453.1375Q550.4359 453.95 549.40466 453.95Q548.1234 453.95 547.4203 453.02814Q546.71716 452.09064 546.71716 450.8094Q546.71716 449.91876 547.02966 449.16876Q547.3578 448.40314 547.96716 447.9969Q548.57654 447.59064 549.40466 447.59064Q550.51404 447.59064 551.2328 448.48126L551.2328 447.73126L552.20154 447.73126L552.20154 453.10626Q552.20154 454.5594 551.90466 455.16876Q551.6078 455.77814 550.96716 456.1219Q550.32654 456.48126 549.38904 456.48126Q548.27966 456.48126 547.59216 455.98126Q546.90466 455.48126 546.9203 454.46564ZM547.7953 450.73126Q547.7953 451.95 548.27966 452.5125Q548.76404 453.075 549.4984 453.075Q550.2328 453.075 550.71716 452.5125Q551.21716 451.95 551.21716 450.7625Q551.21716 449.6219 550.70154 449.04376Q550.20154 448.46564 549.4828 448.46564Q548.77966 448.46564 548.27966 449.04376Q547.7953 449.60626 547.7953 450.73126Z" fill-rule="nonzero"/><path fill="#4f81bd" d="M166.5 66.083336C166.5 65.53105 166.94771 65.083336 167.5 65.083336L177.5 65.083336C178.05229 65.083336 178.5 65.53105 178.5 66.083336L178.5 76.083336C178.5 76.63562 178.05229 77.083336 177.5 77.083336L167.5 77.083336C166.94771 77.083336 166.5 76.63562 166.5 76.083336Z" fill-rule="nonzero"/><path fill="#1a1a1a" d="M187.4375 75.083336L187.4375 66.489586L191.25 66.489586Q192.40625 66.489586 193.0 66.72396Q193.59375 66.958336 193.95312 67.552086Q194.3125 68.13021 194.3125 68.833336Q194.3125 69.75521 193.71875 70.38021Q193.125 71.00521 191.89062 71.177086Q192.34375 71.395836 192.57812 71.59896Q193.07812 72.052086 193.51562 72.739586L195.01562 75.083336L193.57812 75.083336L192.45312 73.302086Q191.95312 72.520836 191.625 72.114586Q191.3125 71.708336 191.04688 71.552086Q190.79688 71.38021 190.53125 71.302086Q190.34375 71.270836 189.90625 71.270836L188.57812 71.270836L188.57812 75.083336L187.4375 75.083336ZM188.57812 70.28646L191.03125 70.28646Q191.79688 70.28646 192.23438 70.13021Q192.6875 69.958336 192.90625 69.614586Q193.14062 69.25521 193.14062 68.833336Q193.14062 68.22396 192.6875 67.833336Q192.25 67.44271 191.29688 67.44271L188.57812 67.44271L188.57812 70.28646ZM196.375 75.083336L196.375 66.489586L197.51562 66.489586L197.51562 70.75521L201.78125 66.489586L203.32812 66.489586L199.71875 69.97396L203.48438 75.083336L201.98438 75.083336L198.92188 70.739586L197.51562 72.09896L197.51562 75.083336L196.375 75.083336ZM204.45312 75.083336L204.45312 66.489586L210.65625 66.489586L210.65625 67.50521L205.59375 67.50521L205.59375 70.13021L210.34375 70.13021L210.34375 71.145836L205.59375 71.145836L205.59375 74.06771L210.85938 74.06771L210.85938 75.083336L204.45312 75.083336ZM217.54688 74.06771L217.54688 75.083336L211.85938 75.083336Q211.85938 74.708336 211.98438 74.34896Q212.20312 73.770836 212.67188 73.208336Q213.15625 72.645836 214.0625 71.91146Q215.46875 70.75521 215.95312 70.083336Q216.45312 69.41146 216.45312 68.81771Q216.45312 68.19271 216.0 67.770836Q215.54688 67.333336 214.82812 67.333336Q214.0625 67.333336 213.60938 67.78646Q213.15625 68.239586 213.14062 69.052086L212.0625 68.94271Q212.17188 67.72396 212.89062 67.09896Q213.625 66.458336 214.85938 66.458336Q216.09375 66.458336 216.8125 67.145836Q217.53125 67.833336 217.53125 68.84896Q217.53125 69.364586 217.3125 69.864586Q217.10938 70.34896 216.60938 70.91146Q216.125 71.458336 215.0 72.41146Q214.04688 73.208336 213.76562 73.50521Q213.5 73.78646 213.32812 74.06771L217.54688 74.06771ZM225.96875 75.083336L224.92188 75.083336L224.92188 68.364586Q224.53125 68.72396 223.90625 69.09896Q223.29688 69.458336 222.8125 69.63021L222.8125 68.614586Q223.6875 68.19271 224.34375 67.614586Q225.01562 67.020836 225.29688 66.458336L225.96875 66.458336L225.96875 75.083336ZM229.0 70.84896Q229.0 69.31771 229.3125 68.395836Q229.625 67.458336 230.23438 66.958336Q230.85938 66.458336 231.79688 66.458336Q232.48438 66.458336 233.0 66.739586Q233.53125 67.020836 233.875 67.552086Q234.21875 68.06771 234.40625 68.81771Q234.59375 69.56771 234.59375 70.84896Q234.59375 72.364586 234.28125 73.28646Q233.98438 74.208336 233.35938 74.72396Q232.75 75.22396 231.79688 75.22396Q230.5625 75.22396 229.84375 74.333336Q229.0 73.270836 229.0 70.84896ZM230.07812 70.84896Q230.07812 72.958336 230.57812 73.66146Q231.07812 74.364586 231.79688 74.364586Q232.53125 74.364586 233.01562 73.66146Q233.51562 72.958336 233.51562 70.84896Q233.51562 68.72396 233.01562 68.03646Q232.53125 67.333336 231.78125 67.333336Q231.0625 67.333336 230.625 67.94271Q230.07812 68.72396 230.07812 70.84896ZM236.0 70.84896Q236.0 69.31771 236.3125 68.395836Q236.625 67.458336 237.23438 66.958336Q237.85938 66.458336 238.79688 66.458336Q239.48438 66.458336 240.0 66.739586Q240.53125 67.020836 240.875 67.552086Q241.21875 68.06771 241.40625 68.81771Q241.59375 69.56771 241.59375 70.84896Q241.59375 72.364586 241.28125 73.28646Q240.98438 74.208336 240.35938 74.72396Q239.75 75.22396 238.79688 75.22396Q237.5625 75.22396 236.84375 74.333336Q236.0 73.270836 236.0 70.84896ZM237.07812 70.84896Q237.07812 72.958336 237.57812 73.66146Q238.07812 74.364586 238.79688 74.364586Q239.53125 74.364586 240.01562 73.66146Q240.51562 72.958336 240.51562 70.84896Q240.51562 68.72396 240.01562 68.03646Q239.53125 67.333336 238.78125 67.333336Q238.0625 67.333336 237.625 67.94271Q237.07812 68.72396 237.07812 70.84896ZM245.59375 75.083336L247.85938 71.84896L245.76562 68.864586L247.07812 68.864586L248.03125 70.31771Q248.29688 70.739586 248.46875 71.020836Q248.71875 70.63021 248.9375 70.333336L249.98438 68.864586L251.25 68.864586L249.09375 71.78646L251.40625 75.083336L250.125 75.083336L248.84375 73.145836L248.5 72.63021L246.85938 75.083336L245.59375 75.083336ZM257.96875 75.083336L256.92188 75.083336L256.92188 68.364586Q256.53125 68.72396 255.90625 69.09896Q255.29688 69.458336 254.8125 69.63021L254.8125 68.614586Q255.6875 68.19271 256.34375 67.614586Q257.01562 67.020836 257.29688 66.458336L257.96875 66.458336L257.96875 75.083336ZM261.29688 75.083336L261.29688 68.864586L262.23438 68.864586L262.23438 69.739586Q262.92188 68.72396 264.21875 68.72396Q264.78125 68.72396 265.25 68.927086Q265.73438 69.13021 265.96875 69.458336Q266.20312 69.78646 266.29688 70.22396Q266.34375 70.520836 266.34375 71.25521L266.34375 75.083336L265.29688 75.083336L265.29688 71.302086Q265.29688 70.645836 265.17188 70.333336Q265.04688 70.020836 264.73438 69.833336Q264.42188 69.63021 264.0 69.63021Q263.32812 69.63021 262.82812 70.06771Q262.34375 70.489586 262.34375 71.677086L262.34375 75.083336L261.29688 75.083336ZM267.90625 71.97396Q267.90625 70.239586 268.85938 69.41146Q269.65625 68.72396 270.8125 68.72396Q272.09375 68.72396 272.90625 69.56771Q273.73438 70.395836 273.73438 71.88021Q273.73438 73.083336 273.375 73.770836Q273.01562 74.458336 272.3125 74.84896Q271.625 75.22396 270.8125 75.22396Q269.51562 75.22396 268.70312 74.395836Q267.90625 73.552086 267.90625 71.97396ZM268.98438 71.97396Q268.98438 73.16146 269.5 73.75521Q270.03125 74.34896 270.8125 74.34896Q271.60938 74.34896 272.125 73.75521Q272.64062 73.16146 272.64062 71.94271Q272.64062 70.78646 272.10938 70.19271Q271.59375 69.59896 270.8125 69.59896Q270.03125 69.59896 269.5 70.19271Q268.98438 70.770836 268.98438 71.97396ZM279.32812 75.083336L279.32812 74.302086Q278.73438 75.22396 277.59375 75.22396Q276.84375 75.22396 276.21875 74.81771Q275.59375 74.395836 275.25 73.66146Q274.90625 72.927086 274.90625 71.97396Q274.90625 71.052086 275.21875 70.28646Q275.53125 69.520836 276.15625 69.13021Q276.78125 68.72396 277.54688 68.72396Q278.10938 68.72396 278.54688 68.958336Q278.98438 69.19271 279.26562 69.56771L279.26562 66.489586L280.3125 66.489586L280.3125 75.083336L279.32812 75.083336ZM276.0 71.97396Q276.0 73.177086 276.5 73.770836Q277.0 74.34896 277.6875 74.34896Q278.375 74.34896 278.85938 73.78646Q279.34375 73.22396 279.34375 72.06771Q279.34375 70.78646 278.84375 70.19271Q278.35938 69.59896 277.64062 69.59896Q276.9375 69.59896 276.46875 70.177086Q276.0 70.739586 276.0 71.97396ZM286.54688 73.083336L287.64062 73.208336Q287.39062 74.16146 286.6875 74.69271Q285.98438 75.22396 284.90625 75.22396Q283.54688 75.22396 282.73438 74.38021Q281.9375 73.53646 281.9375 72.020836Q281.9375 70.458336 282.75 69.59896Q283.5625 68.72396 284.84375 68.72396Q286.09375 68.72396 286.875 69.56771Q287.67188 70.41146 287.67188 71.958336Q287.67188 72.052086 287.67188 72.239586L283.03125 72.239586Q283.09375 73.270836 283.60938 73.81771Q284.125 74.34896 284.90625 74.34896Q285.48438 74.34896 285.89062 74.052086Q286.3125 73.739586 286.54688 73.083336ZM283.09375 71.38021L286.5625 71.38021Q286.5 70.583336 286.17188 70.19271Q285.65625 69.583336 284.85938 69.583336Q284.125 69.583336 283.625 70.06771Q283.14062 70.552086 283.09375 71.38021Z" fill-rule="nonzero"/><path fill="#c0504d" d="M304.5 66.083336C304.5 65.53105 304.94772 65.083336 305.5 65.083336L315.5 65.083336C316.05228 65.083336 316.5 65.53105 316.5 66.083336L316.5 76.083336C316.5 76.63562 316.05228 77.083336 315.5 77.083336L305.5 77.083336C304.94772 77.083336 304.5 76.63562 304.5 76.083336Z" fill-rule="nonzero"/><path fill="#1a1a1a" d="M325.4375 75.083336L325.4375 66.489586L329.25 66.489586Q330.40625 66.489586 331.0 66.72396Q331.59375 66.958336 331.95312 67.552086Q332.3125 68.13021 332.3125 68.833336Q332.3125 69.75521 331.71875 70.38021Q331.125 71.00521 329.89062 71.177086Q330.34375 71.395836 330.57812 71.59896Q331.07812 72.052086 331.51562 72.739586L333.01562 75.083336L331.57812 75.083336L330.45312 73.302086Q329.95312 72.520836 329.625 72.114586Q329.3125 71.708336 329.04688 71.552086Q328.79688 71.38021 328.53125 71.302086Q328.34375 71.270836 327.90625 71.270836L326.57812 71.270836L326.57812 75.083336L325.4375 75.083336ZM326.57812 70.28646L329.03125 70.28646Q329.79688 70.28646 330.23438 70.13021Q330.6875 69.958336 330.90625 69.614586Q331.14062 69.25521 331.14062 68.833336Q331.14062 68.22396 330.6875 67.833336Q330.25 67.44271 329.29688 67.44271L326.57812 67.44271L326.57812 70.28646ZM334.375 75.083336L334.375 66.489586L335.51562 66.489586L335.51562 70.75521L339.78125 66.489586L341.32812 66.489586L337.71875 69.97396L341.48438 75.083336L339.98438 75.083336L336.92188 70.739586L335.51562 72.09896L335.51562 75.083336L334.375 75.083336ZM342.45312 75.083336L342.45312 66.489586L348.65625 66.489586L348.65625 67.50521L343.59375 67.50521L343.59375 70.13021L348.34375 70.13021L348.34375 71.145836L343.59375 71.145836L343.59375 74.06771L348.85938 74.06771L348.85938 75.083336L342.45312 75.083336ZM355.54688 74.06771L355.54688 75.083336L349.85938 75.083336Q349.85938 74.708336 349.98438 74.34896Q350.20312 73.770836 350.67188 73.208336Q351.15625 72.645836 352.0625 71.91146Q353.46875 70.75521 353.95312 70.083336Q354.45312 69.41146 354.45312 68.81771Q354.45312 68.19271 354.0 67.770836Q353.54688 67.333336 352.82812 67.333336Q352.0625 67.333336 351.60938 67.78646Q351.15625 68.239586 351.14062 69.052086L350.0625 68.94271Q350.17188 67.72396 350.89062 67.09896Q351.625 66.458336 352.85938 66.458336Q354.09375 66.458336 354.8125 67.145836Q355.53125 67.833336 355.53125 68.84896Q355.53125 69.364586 355.3125 69.864586Q355.10938 70.34896 354.60938 70.91146Q354.125 71.458336 353.0 72.41146Q352.04688 73.208336 351.76562 73.50521Q351.5 73.78646 351.32812 74.06771L355.54688 74.06771ZM363.96875 75.083336L362.92188 75.083336L362.92188 68.364586Q362.53125 68.72396 361.90625 69.09896Q361.29688 69.458336 360.8125 69.63021L360.8125 68.614586Q361.6875 68.19271 362.34375 67.614586Q363.01562 67.020836 363.29688 66.458336L363.96875 66.458336L363.96875 75.083336ZM367.0 70.84896Q367.0 69.31771 367.3125 68.395836Q367.625 67.458336 368.23438 66.958336Q368.85938 66.458336 369.79688 66.458336Q370.48438 66.458336 371.0 66.739586Q371.53125 67.020836 371.875 67.552086Q372.21875 68.06771 372.40625 68.81771Q372.59375 69.56771 372.59375 70.84896Q372.59375 72.364586 372.28125 73.28646Q371.98438 74.208336 371.35938 74.72396Q370.75 75.22396 369.79688 75.22396Q368.5625 75.22396 367.84375 74.333336Q367.0 73.270836 367.0 70.84896ZM368.07812 70.84896Q368.07812 72.958336 368.57812 73.66146Q369.07812 74.364586 369.79688 74.364586Q370.53125 74.364586 371.01562 73.66146Q371.51562 72.958336 371.51562 70.84896Q371.51562 68.72396 371.01562 68.03646Q370.53125 67.333336 369.78125 67.333336Q369.0625 67.333336 368.625 67.94271Q368.07812 68.72396 368.07812 70.84896ZM374.0 70.84896Q374.0 69.31771 374.3125 68.395836Q374.625 67.458336 375.23438 66.958336Q375.85938 66.458336 376.79688 66.458336Q377.48438 66.458336 378.0 66.739586Q378.53125 67.020836 378.875 67.552086Q379.21875 68.06771 379.40625 68.81771Q379.59375 69.56771 379.59375 70.84896Q379.59375 72.364586 379.28125 73.28646Q378.98438 74.208336 378.35938 74.72396Q377.75 75.22396 376.79688 75.22396Q375.5625 75.22396 374.84375 74.333336Q374.0 73.270836 374.0 70.84896ZM375.07812 70.84896Q375.07812 72.958336 375.57812 73.66146Q376.07812 74.364586 376.79688 74.364586Q377.53125 74.364586 378.01562 73.66146Q378.51562 72.958336 378.51562 70.84896Q378.51562 68.72396 378.01562 68.03646Q377.53125 67.333336 376.78125 67.333336Q376.0625 67.333336 375.625 67.94271Q375.07812 68.72396 375.07812 70.84896ZM383.59375 75.083336L385.85938 71.84896L383.76562 68.864586L385.07812 68.864586L386.03125 70.31771Q386.29688 70.739586 386.46875 71.020836Q386.71875 70.63021 386.9375 70.333336L387.98438 68.864586L389.25 68.864586L387.09375 71.78646L389.40625 75.083336L388.125 75.083336L386.84375 73.145836L386.5 72.63021L384.85938 75.083336L383.59375 75.083336ZM392.0 72.81771L393.0625 72.677086Q393.23438 73.56771 393.67188 73.97396Q394.10938 74.364586 394.73438 74.364586Q395.48438 74.364586 396.0 73.84896Q396.51562 73.333336 396.51562 72.56771Q396.51562 71.84896 396.03125 71.38021Q395.5625 70.895836 394.82812 70.895836Q394.53125 70.895836 394.07812 71.020836L394.20312 70.083336Q394.3125 70.09896 394.375 70.09896Q395.04688 70.09896 395.57812 69.75521Q396.125 69.395836 396.125 68.66146Q396.125 68.083336 395.73438 67.708336Q395.34375 67.31771 394.71875 67.31771Q394.10938 67.31771 393.6875 67.708336Q393.28125 68.09896 393.17188 68.864586L392.10938 68.677086Q392.29688 67.63021 392.98438 67.052086Q393.67188 66.458336 394.6875 66.458336Q395.39062 66.458336 395.98438 66.770836Q396.57812 67.06771 396.89062 67.583336Q397.20312 68.09896 397.20312 68.69271Q397.20312 69.239586 396.90625 69.708336Q396.60938 70.16146 396.03125 70.427086Q396.78125 70.59896 397.20312 71.16146Q397.625 71.708336 397.625 72.552086Q397.625 73.677086 396.79688 74.458336Q395.98438 75.239586 394.73438 75.239586Q393.60938 75.239586 392.85938 74.56771Q392.10938 73.88021 392.0 72.81771ZM399.29688 75.083336L399.29688 68.864586L400.23438 68.864586L400.23438 69.739586Q400.92188 68.72396 402.21875 68.72396Q402.78125 68.72396 403.25 68.927086Q403.73438 69.13021 403.96875 69.458336Q404.20312 69.78646 404.29688 70.22396Q404.34375 70.520836 404.34375 71.25521L404.34375 75.083336L403.29688 75.083336L403.29688 71.302086Q403.29688 70.645836 403.17188 70.333336Q403.04688 70.020836 402.73438 69.833336Q402.42188 69.63021 402.0 69.63021Q401.32812 69.63021 400.82812 70.06771Q400.34375 70.489586 400.34375 71.677086L400.34375 75.083336L399.29688 75.083336ZM405.90625 71.97396Q405.90625 70.239586 406.85938 69.41146Q407.65625 68.72396 408.8125 68.72396Q410.09375 68.72396 410.90625 69.56771Q411.73438 70.395836 411.73438 71.88021Q411.73438 73.083336 411.375 73.770836Q411.01562 74.458336 410.3125 74.84896Q409.625 75.22396 408.8125 75.22396Q407.51562 75.22396 406.70312 74.395836Q405.90625 73.552086 405.90625 71.97396ZM406.98438 71.97396Q406.98438 73.16146 407.5 73.75521Q408.03125 74.34896 408.8125 74.34896Q409.60938 74.34896 410.125 73.75521Q410.64062 73.16146 410.64062 71.94271Q410.64062 70.78646 410.10938 70.19271Q409.59375 69.59896 408.8125 69.59896Q408.03125 69.59896 407.5 70.19271Q406.98438 70.770836 406.98438 71.97396ZM417.32812 75.083336L417.32812 74.302086Q416.73438 75.22396 415.59375 75.22396Q414.84375 75.22396 414.21875 74.81771Q413.59375 74.395836 413.25 73.66146Q412.90625 72.927086 412.90625 71.97396Q412.90625 71.052086 413.21875 70.28646Q413.53125 69.520836 414.15625 69.13021Q414.78125 68.72396 415.54688 68.72396Q416.10938 68.72396 416.54688 68.958336Q416.98438 69.19271 417.26562 69.56771L417.26562 66.489586L418.3125 66.489586L418.3125 75.083336L417.32812 75.083336ZM414.0 71.97396Q414.0 73.177086 414.5 73.770836Q415.0 74.34896 415.6875 74.34896Q416.375 74.34896 416.85938 73.78646Q417.34375 73.22396 417.34375 72.06771Q417.34375 70.78646 416.84375 70.19271Q416.35938 69.59896 415.64062 69.59896Q414.9375 69.59896 414.46875 70.177086Q414.0 70.739586 414.0 71.97396ZM424.54688 73.083336L425.64062 73.208336Q425.39062 74.16146 424.6875 74.69271Q423.98438 75.22396 422.90625 75.22396Q421.54688 75.22396 420.73438 74.38021Q419.9375 73.53646 419.9375 72.020836Q419.9375 70.458336 420.75 69.59896Q421.5625 68.72396 422.84375 68.72396Q424.09375 68.72396 424.875 69.56771Q425.67188 70.41146 425.67188 71.958336Q425.67188 72.052086 425.67188 72.239586L421.03125 72.239586Q421.09375 73.270836 421.60938 73.81771Q422.125 74.34896 422.90625 74.34896Q423.48438 74.34896 423.89062 74.052086Q424.3125 73.739586 424.54688 73.083336ZM421.09375 71.38021L424.5625 71.38021Q424.5 70.583336 424.17188 70.19271Q423.65625 69.583336 422.85938 69.583336Q422.125 69.583336 421.625 70.06771Q421.14062 70.552086 421.09375 71.38021ZM426.875 73.22396L427.90625 73.06771Q428.0 73.69271 428.39062 74.020836Q428.79688 74.34896 429.53125 74.34896Q430.25 74.34896 430.59375 74.06771Q430.95312 73.770836 430.95312 73.364586Q430.95312 73.00521 430.64062 72.802086Q430.42188 72.66146 429.5625 72.44271Q428.40625 72.145836 427.95312 71.94271Q427.51562 71.72396 427.28125 71.34896Q427.04688 70.97396 427.04688 70.50521Q427.04688 70.09896 427.23438 69.739586Q427.42188 69.38021 427.75 69.145836Q428.0 68.97396 428.42188 68.84896Q428.84375 68.72396 429.34375 68.72396Q430.0625 68.72396 430.60938 68.94271Q431.17188 69.145836 431.4375 69.50521Q431.70312 69.864586 431.79688 70.458336L430.76562 70.59896Q430.70312 70.13021 430.35938 69.864586Q430.03125 69.583336 429.40625 69.583336Q428.6875 69.583336 428.375 69.833336Q428.0625 70.06771 428.0625 70.395836Q428.0625 70.59896 428.1875 70.75521Q428.32812 70.927086 428.59375 71.03646Q428.75 71.09896 429.53125 71.302086Q430.65625 71.614586 431.09375 71.802086Q431.53125 71.989586 431.78125 72.34896Q432.03125 72.708336 432.03125 73.25521Q432.03125 73.78646 431.71875 74.25521Q431.42188 74.708336 430.84375 74.97396Q430.26562 75.22396 429.53125 75.22396Q428.3125 75.22396 427.67188 74.72396Q427.04688 74.208336 426.875 73.22396Z" fill-rule="nonzero"/><path fill="#757575" d="M32.14375 39.253124L33.8625 39.471874Q33.58125 41.26875 32.409374 42.284374Q31.253124 43.284374 29.55 43.284374Q27.425 43.284374 26.128124 41.89375Q24.83125 40.503124 24.83125 37.909374Q24.83125 36.221874 25.378124 34.971874Q25.940624 33.70625 27.08125 33.08125Q28.221874 32.440624 29.565624 32.440624Q31.253124 32.440624 32.315624 33.3Q33.39375 34.159374 33.70625 35.721874L31.9875 35.9875Q31.753124 34.940624 31.128124 34.425Q30.503124 33.89375 29.628124 33.89375Q28.3 33.89375 27.471874 34.846874Q26.64375 35.8 26.64375 37.846874Q26.64375 39.940624 27.440624 40.89375Q28.2375 41.83125 29.534374 41.83125Q30.565624 41.83125 31.253124 41.20625Q31.95625 40.565624 32.14375 39.253124ZM35.33125 43.05L35.33125 28.7375L37.08125 28.7375L37.08125 43.05L35.33125 43.05ZM46.159374 43.05L46.159374 41.51875Q44.95625 43.284374 42.878124 43.284374Q41.95625 43.284374 41.159374 42.940624Q40.3625 42.58125 39.971874 42.05Q39.596874 41.51875 39.440624 40.7375Q39.33125 40.221874 39.33125 39.096874L39.33125 32.675L41.08125 32.675L41.08125 38.425Q41.08125 39.8 41.190624 40.284374Q41.3625 40.971874 41.89375 41.378124Q42.440624 41.76875 43.221874 41.76875Q44.01875 41.76875 44.70625 41.3625Q45.409374 40.95625 45.690624 40.26875Q45.9875 39.565624 45.9875 38.2375L45.9875 32.675L47.7375 32.675L47.7375 43.05L46.159374 43.05ZM48.659374 39.95625L50.409374 39.675Q50.55 40.721874 51.221874 41.284374Q51.89375 41.83125 53.096874 41.83125Q54.3 41.83125 54.878124 41.346874Q55.471874 40.846874 55.471874 40.190624Q55.471874 39.596874 54.95625 39.253124Q54.596874 39.01875 53.159374 38.659374Q51.221874 38.159374 50.471874 37.815624Q49.7375 37.45625 49.346874 36.83125Q48.95625 36.190624 48.95625 35.425Q48.95625 34.7375 49.26875 34.14375Q49.596874 33.55 50.14375 33.159374Q50.55 32.8625 51.253124 32.659374Q51.971874 32.440624 52.784374 32.440624Q54.003124 32.440624 54.925 32.8Q55.846874 33.14375 56.284374 33.753124Q56.721874 34.346874 56.89375 35.346874L55.175 35.58125Q55.05 34.784374 54.4875 34.346874Q53.925 33.89375 52.909374 33.89375Q51.690624 33.89375 51.175 34.3Q50.659374 34.690624 50.659374 35.221874Q50.659374 35.565624 50.878124 35.846874Q51.08125 36.128124 51.55 36.315624Q51.815624 36.409374 53.096874 36.753124Q54.971874 37.253124 55.70625 37.58125Q56.440624 37.89375 56.8625 38.503124Q57.284374 39.096874 57.284374 40.003124Q57.284374 40.878124 56.76875 41.659374Q56.253124 42.440624 55.284374 42.8625Q54.315624 43.284374 53.096874 43.284374Q51.08125 43.284374 50.01875 42.440624Q48.95625 41.596874 48.659374 39.95625ZM63.20625 41.471874L63.45625 43.034374Q62.721874 43.190624 62.128124 43.190624Q61.175 43.190624 60.64375 42.89375Q60.128124 42.58125 59.909374 42.096874Q59.690624 41.596874 59.690624 40.01875L59.690624 34.05L58.409374 34.05L58.409374 32.675L59.690624 32.675L59.690624 30.1125L61.440624 29.05L61.440624 32.675L63.20625 32.675L63.20625 34.05L61.440624 34.05L61.440624 40.1125Q61.440624 40.8625 61.534374 41.08125Q61.628124 41.284374 61.83125 41.425Q62.05 41.55 62.440624 41.55Q62.721874 41.55 63.20625 41.471874ZM72.47188 39.70625L74.28438 39.940624Q73.8625 41.51875 72.69063 42.409374Q71.53438 43.284374 69.72188 43.284374Q67.45625 43.284374 66.1125 41.89375Q64.78438 40.4875 64.78438 37.95625Q64.78438 35.33125 66.12813 33.89375Q67.47188 32.440624 69.62813 32.440624Q71.70625 32.440624 73.01875 33.8625Q74.34688 35.26875 74.34688 37.846874Q74.34688 38.003124 74.33125 38.315624L66.59688 38.315624Q66.69063 40.01875 67.56563 40.925Q68.44063 41.83125 69.7375 41.83125Q70.70625 41.83125 71.37813 41.33125Q72.06563 40.815624 72.47188 39.70625ZM66.69063 36.8625L72.4875 36.8625Q72.37813 35.565624 71.83125 34.909374Q70.9875 33.89375 69.64375 33.89375Q68.44063 33.89375 67.6125 34.70625Q66.78438 35.503124 66.69063 36.8625ZM76.34688 43.05L76.34688 32.675L77.925 32.675L77.925 34.253124Q78.53438 33.14375 79.05 32.8Q79.56563 32.440624 80.175 32.440624Q81.06563 32.440624 81.9875 33.003124L81.37813 34.64375Q80.7375 34.253124 80.09688 34.253124Q79.51875 34.253124 79.05 34.6125Q78.59688 34.95625 78.39375 35.565624Q78.1125 36.503124 78.1125 37.6125L78.1125 43.05L76.34688 43.05ZM82.65938 39.95625L84.40938 39.675Q84.55 40.721874 85.22188 41.284374Q85.89375 41.83125 87.09688 41.83125Q88.3 41.83125 88.87813 41.346874Q89.47188 40.846874 89.47188 40.190624Q89.47188 39.596874 88.95625 39.253124Q88.59688 39.01875 87.15938 38.659374Q85.22188 38.159374 84.47188 37.815624Q83.7375 37.45625 83.34688 36.83125Q82.95625 36.190624 82.95625 35.425Q82.95625 34.7375 83.26875 34.14375Q83.59688 33.55 84.14375 33.159374Q84.55 32.8625 85.25313 32.659374Q85.97188 32.440624 86.78438 32.440624Q88.00313 32.440624 88.925 32.8Q89.84688 33.14375 90.28438 33.753124Q90.72188 34.346874 90.89375 35.346874L89.175 35.58125Q89.05 34.784374 88.4875 34.346874Q87.925 33.89375 86.90938 33.89375Q85.69063 33.89375 85.175 34.3Q84.65938 34.690624 84.65938 35.221874Q84.65938 35.565624 84.87813 35.846874Q85.08125 36.128124 85.55 36.315624Q85.81563 36.409374 87.09688 36.753124Q88.97188 37.253124 89.70625 37.58125Q90.44063 37.89375 90.8625 38.503124Q91.28438 39.096874 91.28438 40.003124Q91.28438 40.878124 90.76875 41.659374Q90.25313 42.440624 89.28438 42.8625Q88.31563 43.284374 87.09688 43.284374Q85.08125 43.284374 84.01875 42.440624Q82.95625 41.596874 82.65938 39.95625ZM99.59688 43.05L99.59688 28.7375L104.9875 28.7375Q106.425 28.7375 107.175 28.8625Q108.22188 29.05 108.94063 29.55Q109.65938 30.034374 110.08125 30.925Q110.51875 31.815624 110.51875 32.878124Q110.51875 34.70625 109.34688 35.971874Q108.19063 37.221874 105.15938 37.221874L101.4875 37.221874L101.4875 43.05L99.59688 43.05ZM101.4875 35.534374L105.19063 35.534374Q107.01875 35.534374 107.78438 34.8625Q108.56563 34.175 108.56563 32.925Q108.56563 32.034374 108.1125 31.39375Q107.65938 30.753124 106.925 30.55Q106.44063 30.425 105.14375 30.425L101.4875 30.425L101.4875 35.534374ZM115.72188 47.253124Q114.26875 45.425 113.26875 42.971874Q112.26875 40.503124 112.26875 37.8625Q112.26875 35.534374 113.01875 33.409374Q113.89375 30.940624 115.72188 28.4875L116.9875 28.4875Q115.8 30.51875 115.425 31.39375Q114.83125 32.7375 114.4875 34.20625Q114.06563 36.034374 114.06563 37.878124Q114.06563 42.565624 116.9875 47.253124L115.72188 47.253124ZM119.14375 39.7375L120.83125 39.58125Q121.05 40.76875 121.64375 41.315624Q122.25313 41.846874 123.20625 41.846874Q124.01875 41.846874 124.62813 41.4875Q125.2375 41.1125 125.62813 40.4875Q126.01875 39.8625 126.28438 38.815624Q126.55 37.753124 126.55 36.659374Q126.55 36.55 126.53438 36.315624Q126.00313 37.14375 125.09688 37.675Q124.19063 38.190624 123.1125 38.190624Q121.34688 38.190624 120.1125 36.909374Q118.87813 35.6125 118.87813 33.503124Q118.87813 31.33125 120.15938 30.003124Q121.45625 28.675 123.37813 28.675Q124.78438 28.675 125.94063 29.425Q127.09688 30.175 127.69063 31.565624Q128.3 32.95625 128.3 35.596874Q128.3 38.346874 127.69063 39.971874Q127.09688 41.596874 125.925 42.45625Q124.75313 43.3 123.175 43.3Q121.4875 43.3 120.425 42.3625Q119.3625 41.425 119.14375 39.7375ZM126.34688 33.425Q126.34688 31.909374 125.53438 31.01875Q124.7375 30.128124 123.59688 30.128124Q122.425 30.128124 121.55 31.096874Q120.69063 32.05 120.69063 33.565624Q120.69063 34.940624 121.50313 35.8Q122.33125 36.64375 123.55 36.64375Q124.76875 36.64375 125.55 35.8Q126.34688 34.940624 126.34688 33.425ZM129.87813 39.3L131.72188 39.14375Q131.925 40.4875 132.675 41.175Q133.425 41.846874 134.4875 41.846874Q135.75313 41.846874 136.62813 40.89375Q137.50313 39.940624 137.50313 38.346874Q137.50313 36.846874 136.65938 35.9875Q135.81563 35.1125 134.45625 35.1125Q133.59688 35.1125 132.90938 35.503124Q132.2375 35.878124 131.84688 36.503124L130.19063 36.284374L131.58125 28.925L138.70625 28.925L138.70625 30.6125L132.9875 30.6125L132.22188 34.45625Q133.50313 33.55 134.925 33.55Q136.8 33.55 138.08125 34.8625Q139.37813 36.159374 139.37813 38.190624Q139.37813 40.14375 138.2375 41.55Q136.8625 43.3 134.4875 43.3Q132.53438 43.3 131.28438 42.20625Q130.05 41.1125 129.87813 39.3ZM142.51875 47.253124L141.26875 47.253124Q144.175 42.565624 144.175 37.878124Q144.175 36.034374 143.76875 34.2375Q143.425 32.76875 142.83125 31.425Q142.45625 30.534374 141.26875 28.4875L142.51875 28.4875Q144.3625 30.940624 145.2375 33.409374Q145.9875 35.534374 145.9875 37.8625Q145.9875 40.503124 144.97188 42.971874Q143.97188 45.425 142.51875 47.253124ZM156.28438 43.05L153.1125 32.675L154.925 32.675L156.58125 38.659374L157.19063 40.89375Q157.2375 40.721874 157.72188 38.753124L159.37813 32.675L161.19063 32.675L162.7375 38.690624L163.25313 40.675L163.84688 38.675L165.62813 32.675L167.33125 32.675L164.09688 43.05L162.26875 43.05L160.6125 36.83125L160.22188 35.065624L158.1125 43.05L156.28438 43.05ZM169.37813 30.753124L169.37813 28.7375L171.14375 28.7375L171.14375 30.753124L169.37813 30.753124ZM169.37813 43.05L169.37813 32.675L171.14375 32.675L171.14375 43.05L169.37813 43.05ZM177.20625 41.471874L177.45625 43.034374Q176.72188 43.190624 176.12813 43.190624Q175.175 43.190624 174.64375 42.89375Q174.12813 42.58125 173.90938 42.096874Q173.69063 41.596874 173.69063 40.01875L173.69063 34.05L172.40938 34.05L172.40938 32.675L173.69063 32.675L173.69063 30.1125L175.44063 29.05L175.44063 32.675L177.20625 32.675L177.20625 34.05L175.44063 34.05L175.44063 40.1125Q175.44063 40.8625 175.53438 41.08125Q175.62813 41.284374 175.83125 41.425Q176.05 41.55 176.44063 41.55Q176.72188 41.55 177.20625 41.471874ZM179.3625 43.05L179.3625 28.7375L181.12813 28.7375L181.12813 33.8625Q182.3625 32.440624 184.2375 32.440624Q185.37813 32.440624 186.22188 32.89375Q187.08125 33.346874 187.44063 34.159374Q187.81563 34.95625 187.81563 36.471874L187.81563 43.05L186.06563 43.05L186.06563 36.471874Q186.06563 35.159374 185.4875 34.565624Q184.90938 33.95625 183.87813 33.95625Q183.09688 33.95625 182.39375 34.3625Q181.70625 34.76875 181.40938 35.471874Q181.12813 36.159374 181.12813 37.378124L181.12813 43.05L179.3625 43.05ZM195.34688 43.05L195.34688 32.675L196.925 32.675L196.925 34.253124Q197.53438 33.14375 198.05 32.8Q198.56563 32.440624 199.175 32.440624Q200.06563 32.440624 200.9875 33.003124L200.37813 34.64375Q199.7375 34.253124 199.09688 34.253124Q198.51875 34.253124 198.05 34.6125Q197.59688 34.95625 197.39375 35.565624Q197.1125 36.503124 197.1125 37.6125L197.1125 43.05L195.34688 43.05ZM209.47188 39.70625L211.28438 39.940624Q210.8625 41.51875 209.69063 42.409374Q208.53438 43.284374 206.72188 43.284374Q204.45625 43.284374 203.1125 41.89375Q201.78438 40.4875 201.78438 37.95625Q201.78438 35.33125 203.12813 33.89375Q204.47188 32.440624 206.62813 32.440624Q208.70625 32.440624 210.01875 33.8625Q211.34688 35.26875 211.34688 37.846874Q211.34688 38.003124 211.33125 38.315624L203.59688 38.315624Q203.69063 40.01875 204.56563 40.925Q205.44063 41.83125 206.7375 41.83125Q207.70625 41.83125 208.37813 41.33125Q209.06563 40.815624 209.47188 39.70625ZM203.69063 36.8625L209.4875 36.8625Q209.37813 35.565624 208.83125 34.909374Q207.9875 33.89375 206.64375 33.89375Q205.44063 33.89375 204.6125 34.70625Q203.78438 35.503124 203.69063 36.8625ZM212.65938 39.95625L214.40938 39.675Q214.55 40.721874 215.22188 41.284374Q215.89375 41.83125 217.09688 41.83125Q218.3 41.83125 218.87813 41.346874Q219.47188 40.846874 219.47188 40.190624Q219.47188 39.596874 218.95625 39.253124Q218.59688 39.01875 217.15938 38.659374Q215.22188 38.159374 214.47188 37.815624Q213.7375 37.45625 213.34688 36.83125Q212.95625 36.190624 212.95625 35.425Q212.95625 34.7375 213.26875 34.14375Q213.59688 33.55 214.14375 33.159374Q214.55 32.8625 215.25313 32.659374Q215.97188 32.440624 216.78438 32.440624Q218.00313 32.440624 218.925 32.8Q219.84688 33.14375 220.28438 33.753124Q220.72188 34.346874 220.89375 35.346874L219.175 35.58125Q219.05 34.784374 218.4875 34.346874Q217.925 33.89375 216.90938 33.89375Q215.69063 33.89375 215.175 34.3Q214.65938 34.690624 214.65938 35.221874Q214.65938 35.565624 214.87813 35.846874Q215.08125 36.128124 215.55 36.315624Q215.81563 36.409374 217.09688 36.753124Q218.97188 37.253124 219.70625 37.58125Q220.44063 37.89375 220.8625 38.503124Q221.28438 39.096874 221.28438 40.003124Q221.28438 40.878124 220.76875 41.659374Q220.25313 42.440624 219.28438 42.8625Q218.31563 43.284374 217.09688 43.284374Q215.08125 43.284374 214.01875 42.440624Q212.95625 41.596874 212.65938 39.95625ZM222.72188 37.8625Q222.72188 34.9875 224.31563 33.596874Q225.65938 32.440624 227.58125 32.440624Q229.72188 32.440624 231.06563 33.846874Q232.425 35.253124 232.425 37.721874Q232.425 39.721874 231.83125 40.878124Q231.2375 42.01875 230.08125 42.659374Q228.94063 43.284374 227.58125 43.284374Q225.39375 43.284374 224.05 41.89375Q222.72188 40.4875 222.72188 37.8625ZM224.51875 37.8625Q224.51875 39.8625 225.37813 40.846874Q226.25313 41.83125 227.58125 41.83125Q228.89375 41.83125 229.75313 40.846874Q230.62813 39.846874 230.62813 37.8Q230.62813 35.878124 229.75313 34.89375Q228.87813 33.89375 227.58125 33.89375Q226.25313 33.89375 225.37813 34.89375Q224.51875 35.878124 224.51875 37.8625ZM241.15938 43.05L241.15938 41.51875Q239.95625 43.284374 237.87813 43.284374Q236.95625 43.284374 236.15938 42.940624Q235.3625 42.58125 234.97188 42.05Q234.59688 41.51875 234.44063 40.7375Q234.33125 40.221874 234.33125 39.096874L234.33125 32.675L236.08125 32.675L236.08125 38.425Q236.08125 39.8 236.19063 40.284374Q236.3625 40.971874 236.89375 41.378124Q237.44063 41.76875 238.22188 41.76875Q239.01875 41.76875 239.70625 41.3625Q240.40938 40.95625 240.69063 40.26875Q240.9875 39.565624 240.9875 38.2375L240.9875 32.675L242.7375 32.675L242.7375 43.05L241.15938 43.05ZM244.34688 43.05L244.34688 32.675L245.925 32.675L245.925 34.253124Q246.53438 33.14375 247.05 32.8Q247.56563 32.440624 248.175 32.440624Q249.06563 32.440624 249.9875 33.003124L249.37813 34.64375Q248.7375 34.253124 248.09688 34.253124Q247.51875 34.253124 247.05 34.6125Q246.59688 34.95625 246.39375 35.565624Q246.1125 36.503124 246.1125 37.6125L246.1125 43.05L244.34688 43.05ZM258.14374 39.253124L259.8625 39.471874Q259.58124 41.26875 258.40936 42.284374Q257.2531 43.284374 255.55 43.284374Q253.425 43.284374 252.12813 41.89375Q250.83125 40.503124 250.83125 37.909374Q250.83125 36.221874 251.37813 34.971874Q251.94063 33.70625 253.08125 33.08125Q254.22188 32.440624 255.56563 32.440624Q257.2531 32.440624 258.3156 33.3Q259.39374 34.159374 259.70624 35.721874L257.9875 35.9875Q257.7531 34.940624 257.1281 34.425Q256.5031 33.89375 255.62813 33.89375Q254.3 33.89375 253.47188 34.846874Q252.64375 35.8 252.64375 37.846874Q252.64375 39.940624 253.44063 40.89375Q254.2375 41.83125 255.53438 41.83125Q256.5656 41.83125 257.2531 41.20625Q257.95624 40.565624 258.14374 39.253124ZM268.47186 39.70625L270.28436 39.940624Q269.8625 41.51875 268.6906 42.409374Q267.53436 43.284374 265.72186 43.284374Q263.45624 43.284374 262.1125 41.89375Q260.78436 40.4875 260.78436 37.95625Q260.78436 35.33125 262.1281 33.89375Q263.47186 32.440624 265.6281 32.440624Q267.70624 32.440624 269.01874 33.8625Q270.34686 35.26875 270.34686 37.846874Q270.34686 38.003124 270.33124 38.315624L262.59686 38.315624Q262.6906 40.01875 263.5656 40.925Q264.4406 41.83125 265.7375 41.83125Q266.70624 41.83125 267.3781 41.33125Q268.0656 40.815624 268.47186 39.70625ZM262.6906 36.8625L268.4875 36.8625Q268.3781 35.565624 267.83124 34.909374Q266.9875 33.89375 265.64374 33.89375Q264.4406 33.89375 263.6125 34.70625Q262.78436 35.503124 262.6906 36.8625ZM271.65936 39.95625L273.40936 39.675Q273.55 40.721874 274.22186 41.284374Q274.89374 41.83125 276.09686 41.83125Q277.3 41.83125 277.8781 41.346874Q278.47186 40.846874 278.47186 40.190624Q278.47186 39.596874 277.95624 39.253124Q277.59686 39.01875 276.15936 38.659374Q274.22186 38.159374 273.47186 37.815624Q272.7375 37.45625 272.34686 36.83125Q271.95624 36.190624 271.95624 35.425Q271.95624 34.7375 272.26874 34.14375Q272.59686 33.55 273.14374 33.159374Q273.55 32.8625 274.2531 32.659374Q274.97186 32.440624 275.78436 32.440624Q277.0031 32.440624 277.925 32.8Q278.84686 33.14375 279.28436 33.753124Q279.72186 34.346874 279.89374 35.346874L278.175 35.58125Q278.05 34.784374 277.4875 34.346874Q276.925 33.89375 275.90936 33.89375Q274.6906 33.89375 274.175 34.3Q273.65936 34.690624 273.65936 35.221874Q273.65936 35.565624 273.8781 35.846874Q274.08124 36.128124 274.55 36.315624Q274.8156 36.409374 276.09686 36.753124Q277.97186 37.253124 278.70624 37.58125Q279.4406 37.89375 279.8625 38.503124Q280.28436 39.096874 280.28436 40.003124Q280.28436 40.878124 279.76874 41.659374Q279.2531 42.440624 278.28436 42.8625Q277.3156 43.284374 276.09686 43.284374Q274.08124 43.284374 273.01874 42.440624Q271.95624 41.596874 271.65936 39.95625ZM288.33124 43.05L288.33124 28.7375L290.08124 28.7375L290.08124 43.05L288.33124 43.05ZM291.72186 37.8625Q291.72186 34.9875 293.3156 33.596874Q294.65936 32.440624 296.58124 32.440624Q298.72186 32.440624 300.0656 33.846874Q301.425 35.253124 301.425 37.721874Q301.425 39.721874 300.83124 40.878124Q300.2375 42.01875 299.08124 42.659374Q297.9406 43.284374 296.58124 43.284374Q294.39374 43.284374 293.05 41.89375Q291.72186 40.4875 291.72186 37.8625ZM293.51874 37.8625Q293.51874 39.8625 294.3781 40.846874Q295.2531 41.83125 296.58124 41.83125Q297.89374 41.83125 298.7531 40.846874Q299.6281 39.846874 299.6281 37.8Q299.6281 35.878124 298.7531 34.89375Q297.8781 33.89375 296.58124 33.89375Q295.2531 33.89375 294.3781 34.89375Q293.51874 35.878124 293.51874 37.8625ZM310.14374 41.76875Q309.15936 42.596874 308.2531 42.940624Q307.34686 43.284374 306.3156 43.284374Q304.6125 43.284374 303.6906 42.45625Q302.76874 41.6125 302.76874 40.315624Q302.76874 39.55 303.1125 38.925Q303.47186 38.3 304.03436 37.925Q304.59686 37.534374 305.3 37.33125Q305.8156 37.20625 306.8625 37.065624Q308.9875 36.815624 309.9875 36.471874Q310.0031 36.1125 310.0031 36.003124Q310.0031 34.940624 309.5031 34.4875Q308.83124 33.89375 307.5031 33.89375Q306.2531 33.89375 305.65936 34.33125Q305.08124 34.76875 304.8 35.878124L303.08124 35.64375Q303.3156 34.534374 303.84686 33.8625Q304.3781 33.175 305.39374 32.815624Q306.40936 32.440624 307.7531 32.440624Q309.08124 32.440624 309.90936 32.753124Q310.7375 33.065624 311.1281 33.55Q311.51874 34.01875 311.675 34.7375Q311.76874 35.190624 311.76874 36.3625L311.76874 38.70625Q311.76874 41.159374 311.8781 41.815624Q311.9875 42.45625 312.33124 43.05L310.4875 43.05Q310.22186 42.503124 310.14374 41.76875ZM309.9875 37.846874Q309.03436 38.2375 307.1125 38.503124Q306.03436 38.659374 305.58124 38.8625Q305.14374 39.05 304.89374 39.425Q304.64374 39.8 304.64374 40.26875Q304.64374 40.971874 305.175 41.440624Q305.70624 41.909374 306.7375 41.909374Q307.7531 41.909374 308.53436 41.471874Q309.33124 41.01875 309.70624 40.253124Q309.9875 39.64375 309.9875 38.4875L309.9875 37.846874ZM321.09686 43.05L321.09686 41.7375Q320.1125 43.284374 318.1906 43.284374Q316.95624 43.284374 315.90936 42.596874Q314.8781 41.909374 314.3 40.690624Q313.7375 39.471874 313.7375 37.878124Q313.7375 36.315624 314.2531 35.05Q314.76874 33.784374 315.8 33.1125Q316.84686 32.440624 318.1125 32.440624Q319.05 32.440624 319.78436 32.846874Q320.51874 33.2375 320.9875 33.8625L320.9875 28.7375L322.72186 28.7375L322.72186 43.05L321.09686 43.05ZM315.53436 37.878124Q315.53436 39.8625 316.3781 40.846874Q317.22186 41.83125 318.3625 41.83125Q319.51874 41.83125 320.3156 40.89375Q321.1281 39.95625 321.1281 38.01875Q321.1281 35.89375 320.3 34.89375Q319.4875 33.89375 318.28436 33.89375Q317.1125 33.89375 316.3156 34.8625Q315.53436 35.815624 315.53436 37.878124ZM332.47186 39.70625L334.28436 39.940624Q333.8625 41.51875 332.6906 42.409374Q331.53436 43.284374 329.72186 43.284374Q327.45624 43.284374 326.1125 41.89375Q324.78436 40.4875 324.78436 37.95625Q324.78436 35.33125 326.1281 33.89375Q327.47186 32.440624 329.6281 32.440624Q331.70624 32.440624 333.01874 33.8625Q334.34686 35.26875 334.34686 37.846874Q334.34686 38.003124 334.33124 38.315624L326.59686 38.315624Q326.6906 40.01875 327.5656 40.925Q328.4406 41.83125 329.7375 41.83125Q330.70624 41.83125 331.3781 41.33125Q332.0656 40.815624 332.47186 39.70625ZM326.6906 36.8625L332.4875 36.8625Q332.3781 35.565624 331.83124 34.909374Q330.9875 33.89375 329.64374 33.89375Q328.4406 33.89375 327.6125 34.70625Q326.78436 35.503124 326.6906 36.8625ZM343.09686 43.05L343.09686 41.7375Q342.1125 43.284374 340.1906 43.284374Q338.95624 43.284374 337.90936 42.596874Q336.8781 41.909374 336.3 40.690624Q335.7375 39.471874 335.7375 37.878124Q335.7375 36.315624 336.2531 35.05Q336.76874 33.784374 337.8 33.1125Q338.84686 32.440624 340.1125 32.440624Q341.05 32.440624 341.78436 32.846874Q342.51874 33.2375 342.9875 33.8625L342.9875 28.7375L344.72186 28.7375L344.72186 43.05L343.09686 43.05ZM337.53436 37.878124Q337.53436 39.8625 338.3781 40.846874Q339.22186 41.83125 340.3625 41.83125Q341.51874 41.83125 342.3156 40.89375Q343.1281 39.95625 343.1281 38.01875Q343.1281 35.89375 342.3 34.89375Q341.4875 33.89375 340.28436 33.89375Q339.1125 33.89375 338.3156 34.8625Q337.53436 35.815624 337.53436 37.878124Z" fill-rule="nonzero"/></svg>